<?xml version="1.0" ?>
<!-- Uploaded to: SVG Repo, www.svgrepo.com, Generator: SVG Repo Mixer Tools -->
<svg width="800px" height="800px" viewBox="0 0 50 50" id="Message_And_Communication_Icons" version="1.1" xml:space="preserve" xmlns="http://www.w3.org/2000/svg" xmlns:xlink="http://www.w3.org/1999/xlink">
<g>
<g>
<g>
<g>
<g>
<g>
<path d="M33.9,7.1V11h3.3V4.6H24.8v2h8.5C33.7,6.6,33.9,6.8,33.9,7.1z M28.1,6.2        c-0.2,0-0.4-0.2-0.4-0.4s0.2-0.4,0.4-0.4s0.4,0.2,0.4,0.4S28.3,6.2,28.1,6.2z" style="fill:#4DE0F9;"/>
</g>
</g>
</g>
<g>
<g>
<path d="M33.9,21.4v21.4c0,0.3-0.3,0.6-0.6,0.6h-8.5V47h12.4V21.4H33.9z" style="fill:#4DE0F9;"/>
</g>
</g>
</g>
<g>
<g>
<polygon points="36.5,46 13.5,46 13.5,4 36.5,4 36.5,9 35.3,9 35.3,5.2 14.7,5.2 14.7,44.8 35.3,44.8       35.3,22.7 36.5,22.7     " style="fill:#0D5FC3;"/>
</g>
</g>
<g>
<g>
<path d="M29,7.5h-8c-0.6,0-1.1-0.5-1.1-1.1V4h10.2v2.4C30.1,7.1,29.6,7.5,29,7.5z M21.1,6.3h7.8V5.2h-7.8      V6.3z" style="fill:#0D5FC3;"/>
</g>
</g>
<g>
<g>
<path d="M29.8,5.6h-1.4c0,0.1,0.1,0.1,0.1,0.2c0,0.2-0.2,0.4-0.4,0.4s-0.4-0.2-0.4-0.4      c0-0.1,0-0.2,0.1-0.2h-7.7c-0.1,0-0.2,0.1-0.2,0.2v1.6c0,0.4,0.3,0.8,0.8,0.8h8.6c0.4,0,0.8-0.3,0.8-0.8V5.9      C30.1,5.7,30,5.6,29.8,5.6z" style="fill:#4DE0F9;"/>
</g>
</g>
<g>
<g>
<path d="M29,7.5h-8c-0.6,0-1.1-0.5-1.1-1.1V4h10.2v2.4C30.1,7.1,29.6,7.5,29,7.5z M21.1,6.3h7.8V5.2h-7.8      V6.3z" style="fill:#0D5FC3;"/>
</g>
</g>
</g>
<g>
<g>
<g>
<polygon points="38.1,12 38.1,19.4 25.8,19.4 25.8,23.7 28.3,21.4 41.1,21.4 41.1,12     " style="fill:#4DE0F9;"/>
</g>
</g>
<g>
<g>
<path d="M24.2,24V10.4h16.4V21H27.5L24.2,24z M25.4,11.6v9.8l1.6-1.5h12.4v-8.3H25.4z" style="fill:#0D5FC3;"/>
</g>
</g>
<g>
<g>
<g>
<rect height="1.2" style="fill:#0D5FC3;" width="1.8" x="34.1" y="13.8"/>
</g>
</g>
<g>
<g>
<rect height="1.2" style="fill:#0D5FC3;" width="3.6" x="29.1" y="13.8"/>
</g>
</g>
<g>
<g>
<rect height="1.2" style="fill:#0D5FC3;" width="6.7" x="29.1" y="16.4"/>
</g>
</g>
</g>
</g>
</g>
</svg>