<svg xmlns="http://www.w3.org/2000/svg" xmlns:xlink="http://www.w3.org/1999/xlink" width="698.284" height="608.579" xmlns:v="https://vecta.io/nano"><path d="M326.789 598.276a1.22 1.22 0 0 0 1.178-.746c.197-.471.079-1.016-.297-1.362l-.083-.331.033-.08c.513-1.212 1.704-1.998 3.02-1.993s2.501.799 3.005 2.015c.986 2.374 2.24 4.751 2.549 7.261a9.65 9.65 0 0 1-.17 3.324c2.315-5.049 3.517-10.537 3.524-16.092 0-1.394-.077-2.787-.232-4.172q-.192-1.703-.533-3.382c-1.241-6.074-3.904-11.767-7.772-16.611a10.43 10.43 0 0 1-4.338-4.501 7.95 7.95 0 0 1-.724-2.174 9.82 9.82 0 0 0 .637-3.386c.294-.447.821-.669 1.142-1.104 1.599-2.167 3.801-1.789 4.951 1.156 2.456 1.24 2.48 3.295.973 5.273-.959 1.258-1.091 2.96-1.932 4.307l.263.329a39.42 39.42 0 0 1 4.117 6.523 16.4 16.4 0 0 1 .979-7.617c.937-2.261 2.693-4.164 4.24-6.119.837-1.074 2.237-1.538 3.549-1.176s2.277 1.478 2.445 2.829l.009.086q-.345.194-.675.413a1.65 1.65 0 0 0 .665 3.003l.034.005a16.47 16.47 0 0 1-.433 2.455c1.984 7.673-2.3 10.468-8.416 10.594l-.402.204c1.161 3.291 1.89 6.72 2.167 10.199a38.19 38.19 0 0 1-.028 6.166l.01-.073a10.09 10.09 0 0 1 3.445-5.827c2.651-2.178 6.396-2.98 9.256-4.73.621-.398 1.416-.4 2.038-.005s.959 1.116.862 1.847l-.012.076a11.27 11.27 0 0 0-1.243.599q-.345.194-.675.413a1.65 1.65 0 0 0 .665 3.003l.034.005.069.01a16.43 16.43 0 0 1-3.022 4.733c-1.241 6.699-6.569 7.334-12.269 5.383h-.003a40.25 40.25 0 0 1-2.704 7.893h-9.659c-.035-.107-.066-.218-.097-.325.894.056 1.792.003 2.673-.159l-2.15-2.645a.6.6 0 0 1-.045-.052l-1.094-1.347h0c-.019-1.38.139-2.756.471-4.095zm-240.665 0a1.22 1.22 0 0 1-1.178-.746c-.197-.471-.079-1.016.297-1.362l.083-.331-.033-.08c-.513-1.212-1.704-1.998-3.02-1.993s-2.501.799-3.005 2.015c-.986 2.374-2.24 4.751-2.549 7.261a9.65 9.65 0 0 0 .17 3.324c-2.315-5.049-3.517-10.537-3.524-16.092 0-1.394.077-2.787.232-4.172q.192-1.703.533-3.382c1.241-6.074 3.904-11.767 7.772-16.611a10.43 10.43 0 0 0 4.338-4.501 7.95 7.95 0 0 0 .724-2.174 9.82 9.82 0 0 1-.637-3.386c-.294-.447-.821-.669-1.142-1.104-1.599-2.167-3.801-1.789-4.951 1.156-2.456 1.24-2.48 3.295-.973 5.273.959 1.258 1.091 2.96 1.932 4.307l-.263.329a39.42 39.42 0 0 0-4.117 6.523 16.4 16.4 0 0 0-.979-7.617c-.937-2.261-2.693-4.164-4.24-6.119-.837-1.074-2.237-1.538-3.549-1.176s-2.277 1.478-2.445 2.829l-.009.086q.345.194.675.413a1.65 1.65 0 0 1-.665 3.003l-.034.005a16.47 16.47 0 0 0 .433 2.455c-1.984 7.673 2.3 10.468 8.416 10.594l.402.204a40.26 40.26 0 0 0-2.167 10.199 38.12 38.12 0 0 0 .028 6.166l-.01-.073a10.09 10.09 0 0 0-3.445-5.827c-2.651-2.178-6.396-2.98-9.256-4.73-.621-.398-1.416-.4-2.038-.005s-.959 1.116-.862 1.847l.012.076a11.27 11.27 0 0 1 1.243.599q.345.194.675.413a1.65 1.65 0 0 1-.665 3.003l-.034.005-.069.01a16.43 16.43 0 0 0 3.022 4.733c1.241 6.699 6.569 7.334 12.269 5.383h.003a40.25 40.25 0 0 0 2.704 7.893h9.659c.035-.107.066-.218.097-.325-.894.056-1.792.003-2.673-.159l2.15-2.645a.6.6 0 0 0 .045-.052l1.094-1.347h0c.019-1.38-.139-2.756-.471-4.095z" fill="#f2f2f2"/><g fill="#e6e6e6"><path d="M232.106 79.267c1.954-3.935 5.078-7.201 6.988-11.157s2.282-9.251-.901-12.278c-2.703-2.571-6.936-2.607-10.168-4.469-8.234-4.744-8.225-19.814-17.638-21.116-4.578-.633-8.719 2.8-11.486 6.501s-4.971 8.02-8.808 10.596c-4.344 2.915-9.959 3.042-14.783 5.067-9.248 3.882-14.096 13.864-18.15 23.038-2.612 5.91-5.283 12.284-4.071 18.631-2.634 1.639-1.46 6.047 1.169 7.693s5.931 1.61 8.95 2.323c6.345 1.499 11.54 6.55 14.003 12.586 1.92 4.705 2.312 9.871 2.683 14.939q.964 13.191 1.928 26.382c.286 3.912.661 8.07 3.042 11.188s7.538 4.424 10.215 1.556c2.558-2.74 1.406-7.079 1.354-10.827s3.337-8.416 6.532-6.455l1.127-2.557c14.906-5.337 25.311-18.902 26.603-34.682.816-12.444-4.136-25.788 1.412-36.957zm7.458 78.912a5.08 5.08 0 0 0-2.914-8.743l.012.422c-1.374.802-2.94 1.214-4.531 1.191a13.72 13.72 0 0 0-4.661.738 3.93 3.93 0 0 0-2.585 3.615c.177 1.234.945 2.304 2.057 2.865a11.27 11.27 0 0 0 3.499 1.063c3.134.59 6.802 1.036 9.123-1.152zm61.117-78.703a11.54 11.54 0 0 0 3.273-3.39c.84-1.391.738-3.155-.255-4.44-.988-.857-2.26-1.317-3.568-1.289-3.552-.265-7.122.156-10.515 1.24q5.226 4.63 10.452 9.26zm-17.423 8.027c1.408 1.554.959 3.965.561 6.024s-.449 4.632 1.322 5.755c1.535.974 3.69.179 4.812-1.25a11.08 11.08 0 0 0 1.78-5.092c.552-2.642.801-5.339.743-8.037a12.39 12.39 0 0 0-2.729-7.46c-2.479-2.826-6.482-3.762-9.957-2.326l1.619-.08a15.8 15.8 0 0 0-2.633 5.053c-.55 1.872-.041 3.896 1.331 5.284.96.836 2.298 1.185 3.153 2.128zm79.42-26.067l.287-.886a6.07 6.07 0 0 0-2.729 7.134 6.63 6.63 0 0 0 2.442-6.248zm-15.645 12.685a11.27 11.27 0 0 0 5.634-8.433 6.2 6.2 0 0 0-.365-3.221 3.33 3.33 0 0 0-2.424-2.002l-.656 1.032c-.94-.809-2.519.023-2.914 1.199a6.42 6.42 0 0 0 .305 3.65 4.81 4.81 0 0 1-.057 3.621 13.02 13.02 0 0 1-1.774 1.864c-.657.597-.799 1.576-.339 2.335.617.705 1.771.409 2.59-.046zm-6.671-5.763a6.13 6.13 0 0 0 .763-3.311l-1.434-.45a6.12 6.12 0 0 0-2.368 1.713c-.531.533-.69 1.332-.404 2.028s.963 1.151 1.715 1.155a1.87 1.87 0 0 0 1.728-1.136zm70.066-7.255l.388.33c.114-.024.223-.067.339-.081z"/><path d="M408.131 73.684q1.974-1.597 3.948-3.194a6.6 6.6 0 0 0 1.755-1.844 4.46 4.46 0 0 0-.318-4.295 11.81 11.81 0 0 0-2.699-2.918 4.88 4.88 0 0 0-3.725 5.304c.238 1.51 1.186 3.124.412 4.442-.301.513-.82.862-1.167 1.346s-.46 1.253.017 1.608c.53.394 1.263-.033 1.777-.448zm2.878 6.517a3.42 3.42 0 0 0 2.643-1.04 23.34 23.34 0 0 0 4.569-5.019q-4.442 1.407-8.884 2.814l.923 1.08c-.82.535-.213 1.982.749 2.166zm8.3 6.096a2.27 2.27 0 0 0 2.344 1.431 3.39 3.39 0 0 0 2.416-1.547 4.5 4.5 0 0 0-3.539-7.025l.818 1.249c.208 2.132-2.69 3.85-2.038 5.891zm57.513 23.352a4.62 4.62 0 0 0 5.542-.013c1.046-.893 1.672-2.182 1.729-3.557a4.94 4.94 0 0 0-1.433-3.686l-1.512.844a3.85 3.85 0 0 0-5.244 1.042 4.2 4.2 0 0 0 .919 5.37zm17.588 1.991a4.48 4.48 0 0 0 3.073-3.122l-2.94-.386a6.51 6.51 0 0 0-2.779-1.214 2.23 2.23 0 0 0-2.421 1.427 2.42 2.42 0 0 0 .824 2.208 4.48 4.48 0 0 0 4.243 1.088zm-12.143 5.879c.106.976.766 1.804 1.694 2.124a2.75 2.75 0 0 0 3.049-.472c.36-.407.502-.962.381-1.492a1.68 1.68 0 0 0-.992-1.177l-2.205-.401c-.852-.441-1.941.459-1.927 1.419zm-127.943 15.504l-1.707-1.558c.454.633 1.035 1.164 1.707 1.558z"/><path d="M341.289 123.847c1.051 4.879 6.306 8.854 11.077 7.388l.252.23c-1.519-2.079-1.776-5.155-1.422-7.83 1.338-9.316 7.334-17.306 15.906-21.193a6.57 6.57 0 0 0 2.985-1.945c.68-.994.426-2.699-.745-2.98a2.79 2.79 0 0 0-1.819.421l-8.866 4.364c-4.478 2.204-9.046 4.471-12.563 8.012s-5.855 8.653-4.805 13.533zM198.168 291.629a108.87 108.87 0 0 0-26.881-14.048c-5.883-2.092-12.205-3.687-18.335-2.5-6.818 1.41-12.554 5.989-15.44 12.325a22.86 22.86 0 0 0 .747 19.812c2.827 5.297 7.722 9.516 9.358 15.293 1.103 3.895.581 8.041.05 12.054q-1.628 12.301-3.256 24.601c-.988 7.466-1.951 15.236.413 22.386s9.109 13.454 16.602 12.694l1.485-.112c-4.956-3.37-6.346-10.348-4.87-16.157s5.221-10.736 8.879-15.485q16.279-21.139 32.558-42.277c4.391-5.702 9.035-12.749 6.694-19.554-1.331-3.868-4.678-6.652-8.004-9.034zm-73.961-35.625c-1.099-.373-2.26.455-2.906 1.419a19.48 19.48 0 0 1-1.834 2.948c-1.691 1.743-4.772 1.396-6.595-.207s-2.613-4.083-2.967-6.485c-.425-2.882-.241-6.097 1.661-8.304 1.958-2.271 5.177-2.881 8.138-3.353 3.059-.487 6.487-.894 8.993.927 1.579 1.147 2.499 2.997 3.961 4.289s4.064 1.781 5.164.17c.585-1.159.565-2.531-.053-3.673a8.99 8.99 0 0 1-1.092-3.637c.074-1.771 1.496-3.179 2.951-4.191s3.099-1.886 4.053-3.379c1.174-1.837 1.05-4.204 1.778-6.259 1.763-4.974 8.055-7.187 9.888-12.136a4.68 4.68 0 0 0 .14-3.282c-.767-1.971-2.841-1.584-2.968-3.994-.122-2.305 1.801-4.565 3.754-5.527 2.693-1.327 5.833-1.219 8.834-1.3s6.235-.48 8.437-2.52a7.27 7.27 0 0 0-.773-10.818c-1.641-1.133-3.716-1.528-5.313-2.723-1.989-1.489-2.931-3.968-4.48-5.91a22.73 22.73 0 0 0-4.387-3.885q-1.994-1.479-3.988-2.959c-2.403-1.783-4.904-3.612-7.828-4.247s-6.407.264-7.871 2.873a8.88 8.88 0 0 0-.924 3.737 53.81 53.81 0 0 0 .381 9.154q.362 3.664.724 7.329c.216 2.19-.016 5.077-2.142 5.646-4.716 1.261-3.125-5.712-4.171-7.849-1.601-3.27-8.957-4.84-12.102-6.203-1.964-.851-4.037-1.791-5.223-3.573-1.476-2.218-1.173-5.236-.016-7.636s3.043-4.352 4.756-6.393c1.746-2.08 3.337-4.285 4.925-6.487q2.763-3.832 5.527-7.664c2.363-3.276 4.847-7.275 3.504-11.085a2.98 2.98 0 0 0-5.457.658c-.588 2.057.981 4.683-.52 6.207-1.061.855-2.583.826-3.611-.068a8.2 8.2 0 0 1-2.158-3.264l-5.458-12.128c-.59-1.271-1.206-3.446-2.995-3.232-1.553.186-2.391 2.449-2.337 3.762.078 1.911 1.135 3.619 1.942 5.353s1.372 3.817.486 5.512c-1.123 2.146-3.965 2.628-6.386 2.557-4.563-.138-9.035-1.318-13.072-3.449q-.158 3.364-.316 6.729-4.82-2.017-9.64-4.035-.936-.392-1.872-.784c-2.711-1.135-5.425-2.27-8.215-3.191-1.584-.523-3.19-.976-4.796-1.428q-1.464-.413-2.928-.825c-1.926-.682-3.969-.974-6.009-.857-2.143.269-4.055 1.42-6.037 2.281-4.422 1.92-10.142-.012-14.881-.046a19.9 19.9 0 0 0-16.966-8.645c-6.757.187-12.956 3.792-16.461 9.571a39.94 39.94 0 0 0-2.222 4.467q-.965 2.162-1.929 4.323c-.943 2.114-1.907 4.341-1.722 6.648s1.954 4.665 4.269 4.644c-5.458 2.471-6.594 11.118-1.959 14.915 1.283 1.051 2.857 1.739 4.012 2.93a6.29 6.29 0 0 1-4.727 10.668c6.659 2.574 14.213.207 18.214-5.705 1.982-3.103 2.843-6.979 5.539-9.486 3.57-3.32 9.467-3.063 13.585-.452s6.722 7.056 8.514 11.591c2.348 5.942 3.851 12.732 8.853 16.707 2.419 1.922 5.482 3.003 7.62 5.233 3.044 3.176 3.571 7.969 3.503 12.368s-.542 8.963 1.06 13.06 6.196 7.467 10.316 5.923a16.41 16.41 0 0 0 6.869 19.165q-1.126-6.982-2.251-13.965c3.741 1.053 6.165 4.681 7.565 8.306s2.14 7.545 4.17 10.859c3.196 5.218 8.983 7.467 14.871 7.447 6.36-.021 8.775-3.054 12.966-7.52a6.84 6.84 0 0 0 1.86-2.792 2.35 2.35 0 0 0-1.223-2.828zm18.008-.231q-5.332-.838-10.665-1.676 2.795 1.681 5.591 3.361a20.22 20.22 0 0 0 5.021 2.419 6.82 6.82 0 0 0 5.402-.569l-.455-.87c-.717-1.813-2.968-2.363-4.894-2.665zm-2.415 19.76l.025-.062a2.09 2.09 0 0 0-2.12-.983 7.75 7.75 0 0 1-2.479.04 3.52 3.52 0 0 1-2.132-2.423c-.353-1.063-.458-2.2-.86-3.246-.593-1.686-2.079-2.899-3.85-3.14a3.33 3.33 0 0 0-3.579 3.004 5.55 5.55 0 0 0 .83 2.524q.575 1.106 1.15 2.213a14.89 14.89 0 0 0 1.112 1.903 7.43 7.43 0 0 0 11.902.17zM119.039 86.358c2.707 1.596 6.097 2.696 7.383 5.563l.742.24q-1.214 1.509-2.428 3.017c-1 1.243-2.052 2.628-2.029 4.223.032 2.197 2.145 3.854 4.281 4.372a9.38 9.38 0 0 0 10.845-6.392c.254-.926.359-1.887.581-2.821a22.94 22.94 0 0 1 2.906-6.243q10.782-18.139 21.564-36.278c.895-1.506 1.818-3.308 1.145-4.925a3.87 3.87 0 0 0-3.82-2.05 11.35 11.35 0 0 0-4.349 1.463c-1.204-2.115-3.369-3.503-5.793-3.714a21.87 21.87 0 0 0-7.11.619 43.78 43.78 0 0 0-14.917 5.124c-2.528 1.278-5.31 2.856-6.043 5.592-.902 3.366 2.005 6.796 5.353 7.763s6.921.155 10.309-.659a7.8 7.8 0 0 1-13.039 7.36c-2.429-2.365-3.618-6.47-6.952-7.08-3.324-.608-5.966 2.937-6.699 6.235a17.72 17.72 0 0 0 8.072 18.592zm41.688 58.188c-1.601-4.512-3.704-8.828-6.271-12.869a38.45 38.45 0 0 0-7.128-8.59 27.54 27.54 0 0 0-8.621-5.05c-3.065-1.108-6.477-1.656-9.576-.645s-5.735 3.892-5.672 7.15c.069 3.603 3.222 6.421 6.508 7.902s6.941 2.125 10.04 3.963a15.05 15.05 0 0 1 7.228 12.149l.781 1.291a15.59 15.59 0 0 0-4.87 2.652 5.3 5.3 0 0 0-1.85 4.977c.542 2.182 2.769 3.434 4.784 4.432q5.584 2.765 11.167 5.531c-1.895-5.652 4.31-10.911 4.653-16.862a15.59 15.59 0 0 0-1.172-6.031zM67.13 129.287c2.258 1.754 5.73.933 7.798-1.04s3.076-4.782 4.016-7.482c-.343 2.673-.311 5.38.097 8.044.429 2.693 1.966 5.083 4.239 6.59a11.44 11.44 0 0 0 3.263 1.188 27.47 27.47 0 0 0 15.937-1.139l.046-1.738c-2.553.291-4.485-2.509-4.654-5.073s.762-5.079.844-7.647-1.156-5.569-3.685-6.026a4.89 4.89 0 0 1-6.217 6.707c-2.927-1.19-3.99-4.756-6.252-6.962-2.858-2.542-6.962-3.119-10.41-1.464a12.91 12.91 0 0 0-6.692 8.51c-.687 2.638-.483 5.86 1.67 7.533zm69.689-18.301l.105-.17c-.63-1.82-2.584-2.888-4.492-3.159a29.22 29.22 0 0 0-5.763.19c-1.928.249-3.882-.181-5.526-1.217-1.313-.981-2.061-2.526-3.11-3.785s-2.748-2.294-4.273-1.692c-1.651.652-2.091 2.965-1.29 4.549a8.04 8.04 0 0 0 4.045 3.302 31.2 31.2 0 0 0 20.304 1.982zm-21.692 5.457c-1.097.804-1.364 2.329-.606 3.458s2.272 1.458 3.431.747l.557.55c.741-1.326 1.046-3.103.099-4.291a2.63 2.63 0 0 0-3.48-.464zm-6.516 4.758c.017-.97-.565-1.85-1.464-2.215a2.25 2.25 0 0 0-1.717.408 2.24 2.24 0 0 0-.892 1.522 4.48 4.48 0 0 0 1.174 3.374c.49.736 1.272 1.228 2.148 1.35.873.029 1.763-.884 1.409-1.682l-1.333-.026a6.88 6.88 0 0 0 .675-2.731zm-26.059-13.647q.734.595 1.468 1.19a17.6 17.6 0 0 0 2.735 1.942 7.49 7.49 0 0 0 5.573.682 5.74 5.74 0 0 0 3.922-3.87c.585-2.205-.369-4.494-1.303-6.576a3.99 3.99 0 0 0-1.026-1.565 1.37 1.37 0 0 0-1.731-.068 1.71 1.71 0 0 0-.279 1.644c.201.548.293 1.13.27 1.714-.093.576-.697 1.119-1.229.881l-.085 1.959c-2.541-1.286-3.885-4.708-6.713-5.045a3.49 3.49 0 0 0-3.485 5.122 7.01 7.01 0 0 0 1.883 1.989zm-6.053-8.457a3.87 3.87 0 0 0 1.65-3.687 2.38 2.38 0 0 0-3.23-1.724 3.83 3.83 0 0 0-1.439 2.209q-1.005 2.834-2.009 5.667l1.126-.819c1.393-.3 2.716-.858 3.903-1.647zm13.044-11.593c.407-.513.566-1.181.434-1.822s-.541-1.192-1.118-1.503l-1.407-.132a2.11 2.11 0 1 0 2.091 3.457zm12.947 2.172c1.313.628 2.976 1.227 4.118.325.689-.623.992-1.567.795-2.475a6.29 6.29 0 0 0-1.161-2.446 23.5 23.5 0 0 0-6.535-6.31l-.635.825c-.887 2.303-1.743 4.992-.506 7.127.834 1.44 2.423 2.237 3.924 2.955zm9.784 2.05l2.456 1.111c-.494-.861-1.483-1.308-2.456-1.111zm-6.618 7.726l-1.16.382c-.987 1.622-.559 3.695-.1 5.537.29 1.164.916 2.597 2.115 2.544 1.167-.052 1.683-1.466 1.907-2.612a7.89 7.89 0 0 0 .11-3.82c-.327-1.292-1.545-2.154-2.872-2.032zM87.15 93.995l.859.346c.414-.059.737-.389.787-.804s-.184-.812-.572-.968-.832-.032-1.084.302-.247.795.01 1.125zm43.289 65.657a2.61 2.61 0 0 0-2.388 3.518c.843 1.816 3.747 1.824 5.038.293a3.95 3.95 0 0 0-1.019-5.722zm41.825 43.011c-.682.182-1.261.632-1.606 1.247s-.426 1.345-.226 2.021l2.411.167q1.225-.615 2.449-1.229c-.1-.699-.478-1.327-1.048-1.743a2.61 2.61 0 0 0-1.98-.464zm-9.799 2.982c-1.402.996-2.192 2.644-2.089 4.361.161 1.729 1.423 3.154 3.119 3.524a3.33 3.33 0 0 0 3.765-2.554c.408-2.494-2.272-4.32-3.235-6.656zm93.635-16.469c.255 1.872-1.432 3.512-1.495 5.4-.074 2.24 2.364 3.983 4.595 3.763 2.245-.389 4.177-1.808 5.22-3.834l.048-.21q-1.63-1.842-3.26-3.684c-1.334-1.508-2.749-3.225-2.697-5.238.026-.992.417-1.954.395-2.946a7.14 7.14 0 0 0-.472-2.082c-.294-.878-.695-1.867-1.572-2.164-1.098-.371-2.206.602-2.731 1.636a6.47 6.47 0 0 0 .191 6.095c.634 1.078 1.609 2.025 1.777 3.264zm-10.246 6.586a1.87 1.87 0 0 0 1.561.1 8.17 8.17 0 0 0 2.747-.998c.858-.516 1.371-1.453 1.344-2.453a3.21 3.21 0 0 0-2.614-2.427 2.81 2.81 0 0 0-2.615.399c-.81.759-.713 2.048-.554 3.147l-.171.286c-.152.679-.25 1.522.302 1.946zm171.026 80.003q-.353-.877-.705-1.753c-.322.794-.202 1.606.705 1.753z"/><path d="M557.957 152.838c-3.016-3.272-4.863-5.159-6.767-9.214a14.93 14.93 0 0 0-11.297-8.484c-6.257-1.031-12.65.601-18.983.274-10.143-.524-19.29-5.964-29.004-8.932-5.439-1.524-10.977-2.666-16.575-3.419q-4.838-.765-9.677-1.53c-10.573-1.672-21.214-3.349-31.916-3.127-3.086.064-7.385-.864-7.138-3.94.307-3.821 7.182-3.32 8.505-6.918.818-2.226-1.14-4.563-3.287-5.57s-4.626-1.309-6.575-2.661-3.017-4.484-1.226-6.038q-7.447 3.818-14.894 7.635c-4.128 2.116-8.74 4.869-9.469 9.45a10.95 10.95 0 0 0-6.148 4.271c-2.793.015-4.987 2.696-5.448 5.45s.377 5.542 1.204 8.209c-1.013-1.94-2.089-3.955-3.874-5.221s-4.503-1.507-6.026.066c-1.562 1.614-1.197 4.322-.092 6.277s2.802 3.534 3.845 5.523c3.257 6.213-2.644 14.961-9.625 14.269q.702-9.624 1.405-19.248a12.88 12.88 0 0 0-.485-5.887c-.761-1.837-2.711-3.345-4.652-2.911-3.489.78-3.191 5.891-1.739 9.158s2.898 7.811-.065 9.812c-1.913 1.292-4.507.494-6.573-.537s-4.275-2.302-6.533-1.82-3.678 3.933-1.683 5.095q-4.962-.862-9.925-1.725a7.06 7.06 0 0 1-8.834 5.636q-.487-2.019-.974-4.038-.726-.202-1.452-.404c1.52.423-.858 6.832-2.989 11.727-2.865-.336-7.053-.401-7.531-1.222-2.288-3.932-2.016-13.298-5.992-15.51q-2.99-1.664-6.133-3.033a14.35 14.35 0 0 0-3.46-1.136c-2.441-.385-4.903.372-7.258 1.121-2.783.884-5.632 1.801-7.936 3.595a24.83 24.83 0 0 0-4.999 5.945q-6.826 10.102-13.652 20.204a21.65 21.65 0 0 0-3.162 5.925 7.74 7.74 0 0 0 .72 6.413c1.246 1.925 3.649 2.747 5.812 1.986 1.319-.571 2.64-1.865 3.947-1.267.99.453 1.237 1.754 1.133 2.837a7.58 7.58 0 0 0-.058 3.233c.595 1.687 2.884 2.273 4.517 1.544a6.98 6.98 0 0 0 3.318-4.04c1.573-4.035 1.413-8.499 1.805-12.812s1.571-8.926 4.971-11.608c1.018-.803 2.513-1.381 3.561-.618.804.731 1.056 1.892.626 2.89a11.32 11.32 0 0 1-1.697 2.666c-2.349 3.304-3.219 7.435-2.404 11.406l.695.43c2.651-.688 6.2.544 9.72 1.724a12.65 12.65 0 0 0-6.428 4.422c-4.069 5.709-7.014 11.111-15.063 11.043-1.909-.016-3.803-.394-5.712-.398-1.927-.119-3.826.513-5.297 1.764-1.448 1.417-1.895 3.576-3.134 5.179-1.628 2.108-4.35 2.966-6.836 3.923-1.817.7-3.732 1.644-4.567 3.402a8.43 8.43 0 0 0-.35 4.506c.28 2.663.775 5.692 3.035 7.13a7.19 7.19 0 0 0 5.532.468c2.35-.572 4.649-1.648 7.062-1.488 3.79.253 6.91 3.89 6.949 7.688.019 1.922-.541 4.127.733 5.567 1.197 1.353 3.572 1.112 4.813-.202 1.171-1.418 1.563-3.325 1.045-5.09-.527-1.732-1.337-3.364-2.398-4.831a5.64 5.64 0 0 1 6.487 2.999c.842 1.87.57 4.028.838 6.061s1.506 4.293 3.554 4.41a2.87 2.87 0 0 0 2.885-2.264 20.62 20.62 0 0 0-.168-3.087c.145-2.091 1.898-3.706 3.994-3.68a5.64 5.64 0 0 0 1.381 7.038c1.558 1.206 3.618 1.475 5.559 1.812s4.011.87 5.264 2.39c2.087 2.533-.467 3.673-.864 5.818-.488 2.633 1.712 6.522 2.556 9.041q5.824 8.147 11.647 16.294c.867 1.321 1.889 2.532 3.044 3.609 3.832 3.292 10.151 2.967 13.826-.499 3.658-3.701 4.474-9.355 2.013-13.939-2.271-4.134-6.772-6.695-8.994-10.856 3.699 3.062 8.24 4.93 13.023 5.356 8.462 1.72 16.503 5.092 23.66 9.923a32.99 32.99 0 0 0 8.136 20.251 29.16 29.16 0 0 1 8.461-16.803c2.991-2.917 7.078-5.269 11.181-4.484s7.217 6.017 4.735 9.378q3.119.232 6.239.464 1.399 3.478 2.798 6.957a2.41 2.41 0 0 1 2.35-1.631c1.947.294 3.312 2.105 5.164 2.774 3.491 1.261 7.223-2.232 7.674-5.916s-1.301-7.241-3.004-10.539a19.67 19.67 0 0 0 20.213-29.846 50.09 50.09 0 0 1 14.071-10.359c4.869-2.405 10.195-4.056 14.45-7.431s7.239-9.233 5.193-14.263c-1.446-3.553-5.072-5.965-6.158-9.645-1.571-5.327 3.202-10.836 8.593-12.167s11.022.305 16.333 1.928c-.816-5.465 5.518-10.588 10.692-8.648q3.25-1.316 6.5-2.632c-2.512 5.538-7.954 9.061-11.956 13.639s-6.385 12.033-2.205 16.449q8.988-8.147 17.977-16.293 9.402-8.522 18.804-17.043-.449-1.319-.898-2.638c5.93-2.252 12.317-4.115 17.989-6.913zm-311.243 73.097c-.496.714-.491 1.663.012 2.372.664.564 1.635.577 2.313.031.644-.549 1.146-1.245 1.466-2.029a3.3 3.3 0 0 0 3.356 1.758 8.25 8.25 0 0 0 3.703-1.544 8.12 8.12 0 0 0 2.249-1.951 3.21 3.21 0 0 0 .565-2.827 4.87 4.87 0 0 0-1.461-1.886q-2.378-2.197-4.757-4.394l-.537-.161a3.03 3.03 0 0 0-4.372-.047c-.985 1.102-.989 2.749-.839 4.219s.385 3.037-.27 4.362c-.375.76-1.011 1.361-1.429 2.098zm91.995 50.03c-12.581-2.801-22.388-12.658-25.125-25.254-.584-2.911-.849-6.092-2.786-8.342-1.875-2.179-4.938-2.965-7.812-2.965s-5.708.662-8.577.841c-5.016.313-10.331-1.012-13.917-4.532-1.699-1.667-2.984-3.784-4.968-5.099-2.666-1.767-6.201-1.766-9.239-.764-3.384 1.115-6.092 4.167-9.792 3.747-3.848-.437-8.307-1.797-9.816 3.27-.434 1.459-.286 3.059-.836 4.478-.848 2.187-3.098 3.42-4.878 4.948-3.586 3.078-5.491 7.753-6.134 12.435s-.145 9.436.352 14.135c.268 2.535.621 5.262 2.362 7.124 2.427 2.595 6.499 2.495 10.04 2.202q6.17-.51 12.341-1.019c2.218-.183 4.744-.261 6.323 1.307.946.94 1.346 2.299 2.178 3.341a5.13 5.13 0 0 0 6.258 1.262 10.39 10.39 0 0 0 7.837 15.391l.317.2c-2.634 4.51-5.366 9.574-4.274 14.681.936 4.379 4.563 7.89 5.156 12.328.544 4.072-1.581 8.237-.641 12.236.952 4.05 5.042 6.874 9.192 7.175s8.227-1.539 11.441-4.181 5.7-6.044 8.149-9.408c1.512-2.077 3.063-4.238 3.582-6.754.552-2.677-.088-5.644 1.214-8.048 1.501-2.772 5.065-3.811 6.864-6.4 2.329-3.352.957-7.918 1.472-11.968 1.274-10.022 14.008-16.268 13.719-26.367zm-1.839 34.214c-.348 1.565-1.814 2.595-3.21 3.383s-2.932 1.582-3.643 3.019c-.729 1.471-.396 3.225-.015 4.822q1.189 4.984 2.802 9.853a100.34 100.34 0 0 0 5.446-12.187c.653-1.556 1.057-3.205 1.195-4.886a6.04 6.04 0 0 0-1.643-4.617zm85.69-17.43q-2.625-3.03-5.249-6.06c-1.197-1.381-2.561-2.856-4.374-3.087l-.746.477q2.276 5.418 4.551 10.837a10.29 10.29 0 0 0 2.748 4.323c1.358 1.067 3.56 1.272 4.692-.032a3.48 3.48 0 0 0 .411-3.452 10.26 10.26 0 0 0-2.034-3.006zm16.954 3.868a5.03 5.03 0 0 0 2.974-2.772 14.91 14.91 0 0 0 1.064-4.037q.449-2.713.897-5.426l-.391-.101c-.786-.377-1.729-.115-2.209.613a8.65 8.65 0 0 0-.99 2.312 2.8 2.8 0 0 1-1.599 1.838c-1.404.424-2.735-1.065-4.201-1.007a2.64 2.64 0 0 0-2.294 2.355 5.12 5.12 0 0 0 .96 3.364c1.25 1.941 3.57 3.5 5.789 2.862zm9.674 3.429l4.032-10.62a10.36 10.36 0 0 0-4.032 10.62zm20.578-8.561l-.815.035a5.26 5.26 0 0 0-.044 4.657c.716 1.451 1.757 2.716 3.042 3.698a21.37 21.37 0 0 0 6.711 3.747c3.586 1.046 7.293 1.617 11.027 1.698q3.202.21 6.404.419c1.017.067 2.332-.062 2.615-1.041.233-.808-.455-1.568-1.098-2.111a40.24 40.24 0 0 0-19.79-8.982c-2.767-.421-5.704-.594-8.05-2.12zm22.786 28.185q-2.303-2.233-4.606-4.466c-1.493-1.448-3.73-2.982-5.441-1.8-.983.68-1.287 2.005-2.12 2.861-1.031.924-2.46 1.264-3.797.904-1.311-.368-2.551-.956-3.666-1.738l-3.81-2.364q-1.972-1.224-3.943-2.447l-2.966 2.883c.129-1.419-1.763-2.341-3.072-1.78-1.261.707-2.131 1.951-2.363 3.378a18.47 18.47 0 0 1-1.134 4.107c-1.506 2.884-5.163 3.738-8.381 4.221s-6.862 1.163-8.584 3.923c-1.434 2.299-1.005 5.251-.525 7.918l1.813 10.09c.086 1.222.576 2.382 1.394 3.294 1.593 1.406 4.06.551 6.004-.306a40.6 40.6 0 0 1 12.904-3.74 18.62 18.62 0 0 1 12.785 3.275c2.306 1.755 4.064 4.186 6.507 5.745 3.41 2.051 7.575 2.415 11.289.985a16.81 16.81 0 0 0 8.586-7.657c3.382-6.248 3.217-13.816-.433-19.911a39.44 39.44 0 0 0-6.441-7.376zm-4.527 41.108a2.71 2.71 0 0 0-.172 3.215c.669.959 1.689 1.615 2.838 1.827a13.19 13.19 0 0 0 3.451.158l.035-.861a8.84 8.84 0 0 0-2.021-4.073c-1.112-1.057-3.077-1.382-4.131-.266zm39.532.921l-.55-.201q-1.965 2.962-3.93 5.923c-.705 1.062-1.44 2.338-1.01 3.538.509 1.42 2.39 1.837 3.852 1.461 2.277-.618 3.99-2.499 4.394-4.823.329-2.338-.751-4.651-2.756-5.898zm9.987-6.266l-3.617-2.875q-.072 2.001-.145 4.001l-.136.002c.834.731 1.621 1.514 2.357 2.344.846.72 2.267 1.049 2.99.206a1.89 1.89 0 0 0 .078-2.087 5.55 5.55 0 0 0-1.528-1.591zm-65.335-125.08c-1.517-.047-3.197-.14-4.373.82a5.85 5.85 0 0 0-1.009 1.177l-.415.58a15.96 15.96 0 0 0-1.615 2.598 3.43 3.43 0 0 0-.22 2.834 1.64 1.64 0 0 0 1.05.915c.469.134.972.054 1.375-.219.649-.601.497-1.69.987-2.426.438-.562 1.114-.885 1.826-.873.701.018 1.398.096 2.085.236a10.06 10.06 0 0 0 9.845-15.379l-.122-.373c-2.168-.083-4.086 1.395-4.557 3.513-.339 1.768.38 3.822-.692 5.268-.904 1.22-2.648 1.375-4.165 1.328zm13.584-18.744l-.231-.02a11.73 11.73 0 0 0-3.848 1.434c-.39.181-.701.497-.877.889-.105.423.01.871.306 1.19a3.85 3.85 0 0 0 1.02.768 6.08 6.08 0 0 0 1.854.83 2.06 2.06 0 0 0 1.893-.489c.475-.653.638-1.483.444-2.267a11.92 11.92 0 0 0-.562-2.335zm-23.389 19.195a5.84 5.84 0 0 0 .761-1.892q.212-.781.424-1.562l-1.513-.919a8.76 8.76 0 0 0-1.98 1.412c-.595.571-.924 1.364-.908 2.188.043.839.658 1.537 1.485 1.686.697.021 1.354-.325 1.73-.912zM297.618 90.14c-.598.373-.429 1.274-.186 1.936q.418 1.14.836 2.279l.39-1.475c.342-.572.493-1.238.431-1.902-.135-.648-.908-1.189-1.47-.838z"/></g><path d="M675.284 227h-253a23.03 23.03 0 0 1-23-23V23a23.03 23.03 0 0 1 23-23h253a23.03 23.03 0 0 1 23 23v181a23.03 23.03 0 0 1-23 23z" fill="#fff"/><path d="M675.284 227h-253a23.03 23.03 0 0 1-23-23V23a23.03 23.03 0 0 1 23-23h253a23.03 23.03 0 0 1 23 23v181a23.03 23.03 0 0 1-23 23zm-253-225c-11.593.013-20.987 9.407-21 21v181c.013 11.593 9.407 20.987 21 21h253c11.593-.013 20.987-9.407 21-21V23c-.013-11.593-9.407-20.987-21-21z" fill="#3f3d56"/><path d="M491.118 27.559h-40a4 4 0 1 1 0-8h40a4 4 0 1 1 0 8zm87 90h-127a4 4 0 1 1 0-8h127a4 4 0 1 1 0 8z" fill="#ccc"/><circle cx="473.614" cy="65.488" r="26.819" fill="#0ff"/><path d="M447.118 193.947h6v2h-6zm182.169 2h-12.583v-2h12.583zm-25.167 0h-12.583v-2h12.583zm-25.167 0H566.37v-2h12.583zm-25.167 0h-12.583v-2h12.583zm-25.167 0h-12.583v-2h12.583zm-25.167 0h-12.583v-2h12.583zm-25.167 0h-12.583v-2h12.583zm163.585-2h6v2h-6z" fill="#3f3d56"/><g fill="#0ff"><path d="M543.957 158.559h5v34h-5zm51 0h5v34h-5zm25 19h5v15h-5zm-51-34h5v49h-5z"/><circle cx="89.957" cy="220.559" r="6"/><circle cx="105.957" cy="191.559" r="6"/><circle cx="281.957" cy="168.559" r="6"/></g><path fill="#ffb6b6" d="M144.231 597.467l9.05-.001 4.305-34.907-13.357.001.002 34.907z"/><use xlink:href="#B" fill="#2f2e41"/><path fill="#ffb6b6" d="M212.231 597.467l9.05-.001 4.305-34.907-13.357.001.002 34.907z"/><use xlink:href="#B" x="68" fill="#2f2e41"/><use xlink:href="#C" fill="#ffb6b6"/><use xlink:href="#D" fill="#3f3d56"/><path d="M227.457 356.559s16.735 16.321 13.161 20.09-11.748 9.05-4.161 9.91 10.735 2.724 4.161 4.292-5.558 5.594-5.558 5.594 9.897 47.114 2.397 78.114c0 0-4.174 84.672-6.793 91.266s-3.619 2.594-2.619 6.594 3-3 1 4a92.52 92.52 0 0 0-2.587 11.14l-19.562-3s-3.15-9.927 0-12.534 5.975-1 2.562-6.803-4.413 2.197-3.413-5.803-3.175-51.268 3.413-74.134l-12.173-64.163-19.327 66.437s-10.251 81.14-13.582 84-8.331-2.14-3.331 2.86 4.913 4.14 5 5c.931 9.172-27.698-.86-27.698-.86.159-2.331.159-4.669 0-7-.302-2.14 3.302-2.825 0-4.983s1.611-.018 1.611-.018 7.383-59.86 13-78l6.5-88.337s.413 1.762 0-2.521-3.413-1.283-.413-4.283 5-4.529 3-6.764-7.517-6.759-4.259-9.497 9.671-20.598 9.671-20.598l62.5.5" fill="#2f2e41"/><path d="M203.958 257.385l-11.269-12.689-17.807 1.979-11.401 15.955h0c-12.601 2.897-20.737 15.14-18.528 27.879 4.424 25.475 19.459 50.183 14.495 62.752-7.536 19.08-7.996 26.862 10.043 24.187s78.474-8.842 66.757-20.559-14.29-31.296-14.29-31.296l-.47-44.794a19.91 19.91 0 0 0-17.529-23.413z" fill="#3f3d56"/><use xlink:href="#C" x="57" y="-7" fill="#ffb6b6"/><use xlink:href="#D" x="57" y="-7" fill="#3f3d56"/><circle cx="178.888" cy="222.08" r="21.523" fill="#ffb6b6"/><path d="M174.93 243.149c5.994-1.502 6.198-3.215 12.193-4.717 1.909-.478 4.12-1.231 4.686-3.116a4.54 4.54 0 0 0-1.078-3.901 36.9 36.9 0 0 1-2.65-3.257c-1.104-1.851-1.224-4.127-.322-6.084s2.71-3.344 4.835-3.708c1.854-.317 3.766.174 5.633-.064 2.559-.326 6.324-9.822 4.683-11.813-1.597-1.938-4.219-3.095-5.099-5.447-.576-1.538-.261-3.258-.518-4.881-.38-2.406-5.248 4.255-4.6 1.907 1.589-5.759-25.304-6.666-28.104.722-1.046 2.761-3.879 3.2-6.058 5.193-1.428 1.306-4.844 5.487-5.339 7.74a16.33 16.33 0 0 0 .232 6.863c2.234 10.526 5.925 19.855 15.751 24.24" fill="#2f2e41"/><path d="M5.202 608.271l389.726.307a1.19 1.19 0 0 0 1.034-1.787 1.19 1.19 0 0 0-1.034-.594L5.202 605.89a1.19 1.19 0 0 0-1.034 1.787 1.19 1.19 0 0 0 1.034.594z" fill="#cacaca"/><defs ><path id="B" d="M143.912 606.907l27.829-.001v-.352c0-5.982-4.85-10.831-10.832-10.832h-.001l-5.083-3.857-9.485 3.857h-2.429z"/><path id="C" d="M143.879 313.506l16.061-2.3c5.432 9.083 7.362 33.258 7.362 33.258l15.718 37.359c2.878 1.955 3.935 5.695 2.507 8.867s-4.93 4.859-8.301 3.999-5.637-4.017-5.372-7.486l-25.807-43.484z"/><path id="D" d="M152.584 268.918h0a17.12 17.12 0 0 0-13.523 22.612l3.408 9.66s-4.293 29.087 2.782 37.298l21.711-1.965s-3.97-14.675-.922-21.775c1.866-4.348 1.763-19.367-.076-31.584-1.404-9.329-4.057-15.689-13.38-14.245z"/></defs></svg>