<svg xmlns="http://www.w3.org/2000/svg" xmlns:xlink="http://www.w3.org/1999/xlink" width="500" zoomAndPan="magnify" viewBox="0 0 375 374.999991" height="500" preserveAspectRatio="xMidYMid meet" version="1.0"><defs><g/><clipPath id="7945c5e6ee"><path d="M 77 83.851562 L 262 83.851562 L 262 269.851562 L 77 269.851562 Z M 77 83.851562 " clip-rule="nonzero"/></clipPath><clipPath id="810df5b3d2"><path d="M 94.859375 75 L 298 75 L 298 279.148438 L 94.859375 279.148438 Z M 94.859375 75 " clip-rule="nonzero"/></clipPath></defs><g clip-path="url(#7945c5e6ee)"><path fill="#fffdfd" d="M 166.617188 269.878906 C 164.644531 269.679688 162.675781 269.414062 160.722656 269.058594 C 159.148438 269.101562 157.5625 268.980469 156.03125 268.5625 C 153.746094 267.945312 151.347656 267.777344 149.101562 267.027344 C 147.675781 266.882812 146.21875 266.964844 144.847656 266.457031 C 142.191406 265.589844 139.296875 265.394531 136.8125 264.046875 C 135.898438 263.128906 134.964844 262.492188 133.648438 262.558594 C 132.21875 261.855469 130.59375 261.667969 129.203125 260.855469 C 127.988281 260.378906 127.132812 259.328125 125.878906 258.933594 C 124.496094 258.09375 123.007812 257.464844 121.648438 256.570312 C 120.335938 255.441406 118.503906 255.152344 117.246094 253.957031 C 115.296875 252.652344 113.453125 251.183594 111.84375 249.464844 C 110.449219 248.71875 110.289062 246.976562 108.941406 246.285156 C 107.613281 246.070312 106.816406 244.847656 106 243.957031 C 104.617188 243.980469 104.253906 242.335938 103.242188 241.609375 C 101.933594 240.28125 100.875 238.691406 99.410156 237.53125 C 98.230469 236.878906 97.703125 235.484375 96.769531 234.546875 C 95.527344 233.027344 93.910156 231.777344 93.03125 229.992188 C 92.027344 229.167969 91.773438 227.84375 90.992188 226.898438 C 90.410156 225.71875 89.375 224.621094 89.121094 223.363281 C 88.414062 222.222656 88.050781 220.886719 87.328125 219.710938 C 87.160156 218.28125 85.679688 217.691406 85.359375 216.285156 C 84.640625 214.765625 83.792969 213.296875 83.414062 211.640625 C 82.859375 210.253906 82.734375 208.6875 82.070312 207.386719 C 81.480469 206.355469 81.726562 204.78125 80.957031 204.054688 C 81.925781 203.472656 79.726562 202.132812 80.476562 201.144531 C 80.761719 201.015625 82.386719 200.976562 81.316406 200.945312 C 79.878906 201.097656 79.574219 199.359375 79.753906 198.277344 C 79.824219 197.148438 78.308594 196.828125 78.679688 195.484375 C 78.335938 194.355469 78.007812 193.175781 78.304688 192.078125 C 77.089844 191.625 78.527344 189.898438 77.824219 189.132812 C 77.617188 188.34375 78.582031 187.707031 78.011719 186.808594 C 77.738281 185.792969 77.386719 184.628906 77.644531 183.382812 C 77.53125 182.296875 78.523438 181.230469 77.347656 180.679688 C 77.828125 179.40625 76.972656 177.957031 77.695312 176.753906 C 78.105469 175.441406 77.34375 174.019531 77.582031 172.609375 C 77.632812 169.511719 77.152344 166.316406 78.074219 163.304688 C 77.5 162.371094 78.164062 161.8125 79.066406 161.78125 C 78.8125 161.511719 77.382812 161.457031 77.949219 160.417969 C 78.335938 159.804688 79.320312 159.742188 78.410156 158.980469 C 77.527344 157.980469 78.957031 157.363281 78.394531 156.1875 C 78.625 154.941406 78.5625 153.648438 79.089844 152.414062 C 78.90625 151.183594 81.003906 151.863281 80.832031 151.085938 C 79.785156 151.554688 79.234375 150.976562 79.789062 149.960938 C 79.628906 148.582031 80.855469 147.667969 81.046875 146.316406 C 81.515625 144.953125 82.207031 143.726562 82.832031 142.445312 C 83.363281 141.367188 83.527344 140.171875 84.175781 139.160156 C 84.734375 138.058594 85.351562 136.984375 85.816406 135.820312 C 86.273438 134.324219 87.707031 133.363281 88.003906 131.789062 C 88.414062 130.558594 89.347656 129.570312 89.882812 128.410156 C 90.289062 127.117188 91.476562 126.066406 92.226562 124.933594 C 93.101562 123.816406 93.503906 122.390625 94.503906 121.367188 C 94.527344 120.683594 96.300781 121.277344 95.300781 120.523438 C 94.941406 119.167969 97.101562 119.03125 97.308594 118.214844 C 97.269531 116.988281 98.949219 116.203125 99.632812 115.214844 C 100.648438 114.195312 101.292969 112.882812 102.476562 112.011719 C 103.246094 111.230469 104.152344 110.785156 104.390625 109.652344 C 104.894531 109.035156 106.730469 109.636719 106.671875 109.054688 C 105.09375 108.757812 107.632812 107.914062 107.734375 107.101562 C 108.875 106.082031 110.511719 105.742188 111.519531 104.476562 C 112.753906 103.75 113.6875 102.640625 114.792969 101.734375 C 115.800781 100.871094 117.113281 100.328125 117.972656 99.339844 C 118.472656 98.207031 120.546875 98.566406 120.730469 97.113281 C 121.585938 96.296875 123 96.757812 123.417969 95.683594 C 124.8125 95.457031 125.558594 93.996094 126.910156 93.777344 C 128.253906 92.945312 129.890625 92.667969 131.113281 91.570312 C 132.320312 90.523438 134.136719 90.734375 135.53125 89.949219 C 136.148438 89.738281 136.777344 89.5 136.039062 89.066406 C 136.582031 88.3125 137.597656 89.972656 138.207031 88.980469 C 138.835938 89.253906 139.816406 88.339844 139.980469 88.589844 C 140.558594 88.847656 140.847656 87.226562 141.804688 87.859375 C 143.003906 87.757812 144.207031 87.398438 145.40625 87.273438 C 145.332031 86.410156 146.742188 86.414062 147.296875 86.253906 C 147.902344 86.742188 149.605469 86.867188 148.519531 85.96875 C 149.523438 85.15625 151 85.589844 152.214844 85.46875 C 154.734375 85.21875 157.214844 84.660156 159.691406 84.167969 C 162.039062 83.894531 164.425781 84.035156 166.789062 83.976562 C 171.972656 84.015625 177.164062 83.933594 182.347656 84.152344 C 183.492188 84.636719 184.609375 84.511719 185.867188 84.554688 C 187.519531 84.613281 189.140625 84.980469 190.792969 84.992188 C 192.042969 85.375 193.332031 85.359375 194.523438 85.910156 C 195.539062 86.28125 197.273438 86.394531 196.921875 87.527344 C 198.023438 86.394531 199.703125 87.535156 200.960938 87.917969 C 202.273438 88.191406 203.476562 88.789062 204.703125 89.308594 C 206.351562 89.671875 207.699219 90.722656 209.179688 91.457031 C 210.042969 92.515625 211.539062 92.570312 212.421875 93.589844 C 212.921875 94.011719 213.097656 94.949219 213.539062 93.925781 C 214.695312 94.535156 215.871094 95.402344 217.132812 95.972656 C 218.566406 96.796875 220.03125 97.617188 221.183594 98.820312 C 222.441406 99.921875 224.015625 100.535156 225.246094 101.671875 C 226.226562 102.628906 227.589844 103.113281 228.414062 104.207031 C 229.648438 104.90625 230.699219 105.863281 231.808594 106.734375 C 233.21875 107.347656 233.664062 109.070312 234.757812 110.007812 C 236.210938 110.460938 236.839844 111.742188 238.042969 112.476562 C 239.65625 113.472656 240.578125 115.21875 241.882812 116.546875 C 242.328125 117.242188 244.347656 119.03125 242.625 119.296875 C 243.300781 119.683594 244.089844 118.871094 244.65625 119.910156 C 246.179688 121.230469 246.660156 123.292969 248.003906 124.753906 C 248.558594 125.507812 248.167969 126.960938 249.40625 126.988281 C 249.53125 128.421875 250.953125 129.101562 251.332031 130.445312 C 251.890625 131.722656 252.136719 133.070312 252.738281 134.308594 C 253.144531 135.578125 253.84375 136.824219 254.335938 138.105469 C 254.664062 139.308594 254.945312 140.527344 255.515625 141.648438 C 256.148438 142.960938 256.3125 144.402344 256.542969 145.8125 C 257.199219 146.984375 257.242188 148.34375 257.710938 149.589844 C 258.171875 151.335938 258.863281 153.042969 258.976562 154.863281 C 259.59375 156.890625 259.941406 158.984375 260.179688 161.09375 C 260.5625 162.191406 260.277344 163.5625 261.066406 164.351562 C 261.066406 164.988281 260.03125 165.441406 260.957031 165.976562 C 261.671875 167.996094 261.578125 170.199219 261.417969 172.300781 C 261.71875 173.527344 261.8125 174.824219 261.238281 175.992188 C 261.332031 176.832031 261.773438 177.601562 261.503906 178.40625 C 262.429688 179.261719 260.640625 180.71875 261.449219 181.488281 C 261.339844 182.753906 261.078125 184.003906 260.960938 185.265625 C 260.785156 186.648438 261.980469 188.015625 261.386719 189.304688 C 260.625 190.363281 261.835938 192.058594 260.5625 192.75 C 260.355469 193.808594 260.101562 194.867188 260.140625 195.984375 C 259.738281 197.40625 259.347656 198.855469 259.078125 200.289062 C 258.878906 200.980469 258.265625 201.335938 259 201.847656 C 258.671875 202.988281 258.777344 204.328125 257.523438 204.894531 C 257.414062 206.109375 257 207.179688 256.734375 208.347656 C 256.558594 209.515625 256.695312 210.679688 255.867188 211.671875 C 255.816406 213 255.007812 214.027344 254.667969 215.1875 C 254.375 216.734375 253.425781 218.078125 253.046875 219.59375 C 252.179688 220.917969 250.855469 221.945312 250.324219 223.484375 C 249.378906 224.316406 248.964844 225.511719 248.132812 226.460938 C 247.199219 227.289062 246.882812 228.636719 245.980469 229.445312 C 245.515625 230.5625 244.296875 230.984375 243.78125 231.976562 C 243.027344 233.183594 241.894531 233.972656 240.820312 234.882812 C 240.386719 235.890625 239.933594 237.804688 238.324219 237.152344 C 237.734375 237.863281 237.777344 239.410156 236.742188 240.105469 C 235.675781 241.160156 234.664062 242.382812 233.316406 243.066406 C 232.488281 243.703125 231.914062 245.054688 230.925781 245.785156 C 229.566406 247.078125 228.214844 248.417969 226.601562 249.386719 C 225.308594 249.9375 224.574219 251.414062 223.261719 252.132812 C 222.304688 253.074219 220.820312 253.164062 220.007812 254.292969 C 218.421875 255.203125 217.050781 256.480469 215.382812 257.28125 C 213.199219 258.441406 210.894531 259.378906 208.792969 260.6875 C 207.449219 261.269531 205.839844 261.058594 204.628906 261.976562 C 203.222656 262.726562 201.515625 262.441406 200.164062 263.320312 C 198.917969 263.925781 197.640625 264.375 196.355469 264.855469 C 194.558594 265.886719 192.410156 266.066406 190.597656 267.0625 C 189.148438 267.648438 187.519531 267.339844 186.09375 267.996094 C 184.734375 268.222656 183.425781 268.679688 182.027344 268.703125 C 178.894531 268.949219 175.734375 269.046875 172.636719 269.597656 C 170.964844 269.734375 169.285156 269.816406 167.621094 269.972656 C 167.285156 269.957031 166.949219 269.921875 166.617188 269.878906 Z M 177.375 265.890625 C 178.835938 265.617188 180.273438 265.242188 181.765625 265.203125 C 183.21875 265.050781 184.613281 264.554688 186.082031 264.476562 C 187.464844 264.160156 188.871094 264.03125 190.277344 263.859375 C 191.984375 263.578125 193.6875 263.144531 195.238281 262.378906 C 196.675781 262.171875 197.992188 261.554688 199.371094 261.167969 C 200.394531 260.621094 200.984375 259.832031 202.132812 259.589844 C 203.457031 259.449219 204.605469 258.671875 205.878906 258.335938 C 207.144531 257.65625 208.589844 257.367188 209.78125 256.542969 C 211.6875 255.9375 212.996094 254.230469 214.921875 253.679688 C 215.980469 252.984375 217.148438 252.558594 218.203125 251.859375 C 220.035156 251.414062 221.101562 249.683594 222.722656 248.878906 C 223.960938 247.652344 225.496094 246.78125 226.691406 245.5 C 227.652344 244.554688 228.910156 244.011719 229.820312 243.003906 C 231.757812 241.257812 233.71875 239.527344 235.414062 237.535156 C 236.730469 236.386719 237.921875 235.117188 239.03125 233.769531 C 240.121094 232.886719 241.023438 231.871094 241.65625 230.601562 C 242.46875 229.707031 243.125 228.699219 243.976562 227.832031 C 244.558594 226.800781 245.261719 225.851562 245.792969 224.816406 C 246.6875 223.207031 248.039062 221.902344 248.96875 220.324219 C 249.613281 219.128906 250.441406 218.027344 251.007812 216.796875 C 251.175781 215.597656 251.78125 214.417969 252.3125 213.273438 C 252.945312 212.097656 253.21875 210.769531 253.949219 209.671875 C 254.5 208.210938 254.855469 206.664062 255.527344 205.300781 C 255.835938 204.023438 256.578125 202.886719 256.789062 201.570312 C 257.605469 200.441406 257.808594 199.078125 257.867188 197.714844 C 257.964844 195.953125 258.25 194.21875 258.507812 192.480469 C 258.542969 191.265625 259.609375 190.300781 259.296875 189.152344 C 259.25 187.691406 259.453125 186.179688 259.628906 184.824219 C 260.050781 184.015625 258.890625 183.195312 259.421875 182.214844 C 259.492188 181.019531 259.40625 179.460938 260.363281 178.804688 C 260.992188 178.777344 261.460938 178.757812 260.5625 178.679688 C 258.757812 178.433594 260.242188 176.21875 259.78125 175.058594 C 259.410156 173.796875 259.320312 172.484375 259.386719 171.171875 C 259.609375 169.726562 258.863281 168.445312 258.867188 167.023438 C 259.0625 165.632812 258.089844 164.570312 258.277344 163.191406 C 258.199219 161.328125 257.703125 159.527344 257.222656 157.738281 C 256.875 156.402344 257.203125 154.84375 256.253906 153.714844 C 255.796875 152.292969 255.640625 150.78125 255.1875 149.351562 C 255.011719 147.9375 254.886719 146.449219 254.121094 145.207031 C 253.910156 144.019531 252.925781 142.894531 253.195312 141.6875 C 253.039062 140.214844 252.457031 138.820312 251.832031 137.46875 C 251.347656 136.210938 250.816406 135.050781 250.347656 133.769531 C 249.730469 132.71875 249.0625 131.703125 248.519531 130.597656 C 247.65625 129.585938 247.140625 128.320312 246.144531 127.371094 C 245.199219 126.25 244.277344 125.09375 243.449219 123.890625 C 243.007812 122.269531 241.519531 121.257812 240.640625 119.886719 C 238.179688 116.515625 235.34375 113.4375 232.503906 110.386719 C 231.640625 109.3125 230.160156 108.824219 229.277344 107.679688 C 227.8125 106.277344 226.210938 105.035156 224.601562 103.808594 C 223.679688 102.761719 222.46875 102.101562 221.417969 101.207031 C 219.734375 99.949219 218.042969 98.65625 216.167969 97.710938 C 215.300781 96.84375 214.550781 96.148438 213.246094 96.132812 C 212.152344 95.667969 211.332031 95.011719 210.289062 94.464844 C 209.09375 93.941406 207.992188 93.113281 206.738281 92.835938 C 205.425781 92.21875 204.117188 91.570312 202.859375 90.847656 C 201.589844 90.488281 200.285156 89.777344 198.960938 89.367188 C 197.761719 88.632812 196.371094 88.4375 195.183594 87.726562 C 193.601562 87.585938 192.117188 86.859375 190.515625 86.878906 C 189.210938 86.753906 189.484375 86.003906 190.46875 85.742188 C 189.28125 84.984375 189.054688 86.996094 187.738281 86.441406 C 184.726562 86.132812 181.816406 85.242188 178.796875 85.007812 C 177.484375 84.46875 176.144531 84.734375 174.78125 84.878906 C 171.109375 84.988281 167.378906 84.734375 163.769531 85.585938 C 162.246094 85.835938 160.714844 85.382812 159.1875 85.707031 C 158.71875 85.984375 158.269531 84.484375 158.125 85.28125 C 159.054688 86 156.398438 86.335938 155.808594 86.53125 C 152.253906 87.410156 148.597656 87.832031 145.089844 88.910156 C 143.898438 89.144531 142.804688 89.246094 141.8125 89.972656 C 140.714844 90.335938 139.8125 89.164062 138.871094 90.167969 C 138.578125 90.585938 139.757812 89.992188 140.011719 89.941406 C 140.257812 91.433594 137.679688 91.351562 136.832031 92.265625 C 135.484375 92.878906 134.191406 93.679688 132.726562 94.03125 C 131.359375 94.640625 130.132812 95.515625 128.71875 96.039062 C 127.621094 96.6875 126.441406 97.246094 125.246094 97.695312 C 124.410156 98.363281 123.675781 99.09375 122.605469 99.460938 C 121.578125 100.132812 120.457031 100.652344 119.480469 101.421875 C 118.425781 102.394531 117.082031 102.742188 116.074219 103.675781 C 115.0625 104.699219 113.882812 105.488281 112.75 106.433594 C 111.683594 107.070312 111.144531 108.292969 109.875 108.644531 C 108.144531 110.648438 106.109375 112.371094 104.25 114.257812 C 102.957031 115.378906 101.800781 116.644531 100.9375 118.128906 C 100.039062 119.058594 98.976562 119.855469 98.195312 120.917969 C 97.324219 122.027344 96.636719 123.261719 95.683594 124.3125 C 94.980469 125.570312 94.074219 126.691406 93.382812 127.957031 C 92.71875 129.199219 91.734375 130.300781 91.332031 131.65625 C 90.15625 132.214844 90.367188 133.839844 89.367188 134.511719 C 89.25 135.199219 88.53125 135.367188 88.625 136.222656 C 88.238281 137.484375 87.09375 138.171875 86.894531 139.492188 C 86.113281 140.753906 86.082031 142.3125 85.042969 143.425781 C 84.4375 144.316406 84.410156 145.539062 83.878906 146.304688 C 84.449219 147.308594 82.648438 147.710938 82.863281 148.464844 C 82.671875 149.511719 82.113281 150.78125 82.011719 151.984375 C 81.636719 152.796875 82.019531 154.371094 81.140625 154.648438 C 81.589844 155.554688 80.066406 155.5625 81 156.449219 C 81.136719 157.542969 80.675781 159.003906 79.835938 159.519531 C 81.023438 159.824219 79.835938 161.347656 78.898438 160.933594 C 79.375 161.15625 80.585938 162.320312 79.890625 163.285156 C 79.585938 164.824219 80.226562 166.34375 79.839844 167.84375 C 79.628906 170.285156 79.78125 172.742188 79.46875 175.175781 C 79.0625 176.601562 79.964844 178 79.355469 179.34375 C 79.675781 180.3125 79.53125 181.726562 79.738281 182.355469 C 78.386719 182.597656 80.273438 183.050781 79.957031 183.953125 C 80.242188 185.914062 80.714844 187.980469 80.121094 189.925781 C 81.089844 190.703125 79.195312 190.078125 79.90625 190.808594 C 81.175781 192.121094 81.222656 194.050781 81.261719 195.761719 C 81.828125 196.96875 82.550781 198.125 82.566406 199.511719 C 82.878906 200.738281 83.585938 201.902344 83.234375 203.101562 C 84.054688 203.601562 83.367188 204.082031 84.285156 204.511719 C 84.65625 206.09375 84.503906 207.90625 85.5 209.28125 C 86.183594 210.3125 86.953125 211.410156 87.363281 212.632812 C 87.855469 214.152344 88.960938 215.398438 89.359375 216.964844 C 90.046875 218.023438 90.8125 219.066406 91.363281 220.226562 C 92.378906 222.078125 93.214844 224.0625 94.457031 225.765625 C 95.140625 226.949219 95.960938 228.070312 96.710938 229.226562 C 97.34375 230.371094 98.171875 231.117188 98.8125 232.136719 C 99.609375 233.234375 100.4375 234.328125 101.378906 235.34375 C 102.234375 236.429688 103.46875 237.140625 104.203125 238.34375 C 104.945312 239.390625 105.964844 240.234375 106.605469 241.347656 C 108.34375 241.230469 108.539062 243.324219 109.804688 244.15625 C 110.851562 245.03125 112.140625 245.664062 112.84375 246.917969 C 113.023438 247.828125 114.042969 247.925781 114.644531 247.921875 C 113.886719 248.53125 115.433594 248.800781 115.445312 249.464844 C 116.605469 250.136719 117.824219 250.730469 118.824219 251.648438 C 120.132812 252.230469 121.246094 253.171875 122.628906 253.632812 C 124.035156 254.226562 125.214844 255.25 126.660156 255.773438 C 128.578125 256.738281 130.4375 257.910156 132.480469 258.558594 C 133.535156 259.414062 134.847656 259.855469 136.089844 260.371094 C 137.445312 260.949219 138.832031 261.597656 140.242188 261.960938 C 141.777344 262.125 143.070312 263.25 144.664062 263.183594 C 146.15625 263.597656 147.570312 264.308594 149.125 264.53125 C 150.527344 264.789062 151.972656 264.742188 153.351562 265.160156 C 156.84375 265.675781 160.378906 265.800781 163.882812 266.199219 C 168.308594 266.300781 172.75 266.277344 177.164062 265.917969 L 177.378906 265.890625 Z M 167.101562 262.332031 C 165.96875 262.1875 164.675781 262.261719 163.488281 262.054688 C 162.136719 261.691406 160.710938 261.480469 159.410156 262.128906 C 158.085938 262.246094 156.835938 261.648438 155.515625 261.617188 C 153.660156 261.425781 151.773438 261.261719 150.003906 260.671875 C 148.5 260.46875 147.113281 259.816406 145.636719 259.472656 C 144.257812 258.960938 142.78125 259.03125 141.492188 258.316406 C 140.414062 257.585938 139.144531 257.152344 137.984375 256.535156 C 136.6875 256.191406 135.578125 255.355469 134.265625 255.082031 C 133.164062 254.164062 131.816406 253.558594 130.425781 253.183594 C 129.171875 252.765625 127.941406 252.402344 126.917969 251.523438 C 125.695312 250.84375 124.425781 250.253906 123.207031 249.570312 C 121.816406 249.167969 121.046875 247.640625 119.632812 247.015625 C 117.578125 246.042969 116.117188 244.246094 114.269531 242.976562 C 113.386719 242.015625 112.226562 241.390625 111.265625 240.53125 C 110.351562 239.65625 109.582031 238.695312 108.828125 237.703125 C 107.988281 236.527344 107.109375 235.449219 105.929688 234.617188 C 105.042969 233.363281 103.863281 232.402344 102.890625 231.238281 C 102.074219 230.089844 101.289062 228.96875 100.472656 227.828125 C 100.113281 226.390625 98.613281 226.007812 97.863281 224.902344 C 96.574219 223.175781 95.410156 221.34375 94.417969 219.425781 C 93.71875 217.382812 91.976562 215.84375 91.488281 213.714844 C 90.785156 212.667969 90.507812 211.472656 89.738281 210.46875 C 89.183594 209.398438 88.675781 208.292969 88.335938 207.140625 C 87.554688 206 87.1875 204.621094 86.804688 203.292969 C 86.554688 202.601562 86.257812 200.660156 87.058594 202.21875 C 87.859375 203.335938 88.589844 204.429688 88.808594 205.832031 C 89.433594 207.550781 90.355469 209.132812 91.199219 210.746094 C 91.671875 212.214844 92.539062 213.539062 93.265625 214.894531 C 94.054688 216.039062 94.671875 217.277344 95.304688 218.503906 C 97.054688 221.125 98.753906 223.785156 100.585938 226.347656 C 101.328125 227.601562 102.363281 228.625 103.289062 229.769531 C 103.769531 230.964844 104.960938 231.515625 105.632812 232.628906 C 106.777344 233.46875 107.90625 234.425781 108.742188 235.589844 C 110.386719 237.574219 112.339844 239.304688 114.230469 241.058594 C 115.859375 242.316406 117.328125 243.753906 118.929688 245.046875 C 120.316406 246.15625 121.808594 247.121094 123.160156 248.273438 C 125.914062 250.066406 128.820312 251.660156 131.917969 252.773438 C 134.882812 254.230469 138.117188 255.003906 141.164062 256.238281 C 144.230469 257.417969 147.445312 258.164062 150.585938 259.101562 C 153.953125 259.90625 157.414062 260.242188 160.855469 260.554688 C 165.875 260.949219 170.917969 260.84375 175.941406 260.5625 C 178.144531 260.085938 180.421875 260.023438 182.648438 259.65625 C 184.953125 259.3125 187.347656 259.273438 189.523438 258.367188 C 191.945312 258.167969 194.257812 257.367188 196.632812 256.898438 C 199.15625 256.117188 201.558594 254.992188 204.074219 254.183594 C 207.644531 252.90625 210.910156 250.941406 214.335938 249.363281 C 215.792969 249.558594 213.609375 250.828125 213.015625 251.03125 C 211.542969 251.632812 210.554688 253.0625 208.972656 253.445312 C 207.890625 254.371094 206.539062 254.699219 205.335938 255.371094 C 203.757812 256.605469 201.65625 256.761719 199.859375 257.539062 C 198.628906 258.273438 197.179688 258.148438 195.878906 258.695312 C 194.46875 258.84375 193.089844 259.167969 191.769531 259.675781 C 190.40625 259.933594 189.195312 260.710938 187.777344 260.617188 C 183.21875 261.273438 178.65625 261.917969 174.058594 262.21875 C 171.800781 262.34375 169.527344 262.601562 167.265625 262.40625 L 167.097656 262.332031 Z M 162.902344 259.167969 C 161.695312 258.804688 160.421875 259.222656 159.230469 258.605469 C 157.617188 258.476562 156.121094 257.726562 154.503906 257.539062 C 153.097656 257.175781 151.644531 257.152344 150.230469 256.945312 C 148.695312 256.4375 147.011719 256.769531 145.523438 256.0625 C 143.261719 255.46875 140.863281 255.171875 138.804688 253.984375 C 137.160156 253.296875 135.507812 252.617188 134 251.65625 C 132.066406 250.796875 130.597656 249.078125 128.53125 248.519531 C 127.691406 247.613281 126.519531 247.066406 125.640625 246.148438 C 124.335938 244.996094 122.546875 244.484375 121.476562 243.058594 C 120.113281 242.164062 119.039062 240.871094 117.691406 239.929688 C 116.210938 238.636719 115 237.054688 113.359375 235.9375 C 112.164062 235.152344 111.53125 233.84375 110.507812 232.871094 C 109.5 231.96875 108.867188 230.761719 107.949219 229.792969 C 106.527344 228.515625 105.414062 226.9375 104.207031 225.476562 C 103.121094 224.503906 102.601562 223.082031 101.628906 222.011719 C 101.085938 220.929688 100.320312 220.132812 99.570312 219.15625 C 99.019531 217.941406 98.164062 216.933594 97.570312 215.75 C 96.574219 214.003906 95.460938 212.28125 94.832031 210.367188 C 94.179688 209.417969 93.777344 208.386719 93.234375 207.359375 C 92.789062 206.140625 92.347656 204.949219 91.839844 203.730469 C 91.089844 201.609375 90.476562 199.402344 89.464844 197.398438 C 89.3125 196.175781 88.546875 195.136719 88.421875 193.898438 C 88.167969 192.4375 87.804688 190.996094 87.460938 189.582031 C 87.515625 188.648438 86.90625 187.941406 87.382812 187.101562 C 86.894531 185.234375 86.816406 183.273438 86.707031 181.347656 C 87.011719 179.007812 86.878906 176.617188 87.40625 174.304688 C 87.609375 172.890625 87.21875 171.371094 87.800781 170.03125 C 88.683594 169.726562 88.03125 171.824219 88.171875 172.40625 C 87.867188 176.558594 88.101562 180.726562 88.085938 184.878906 C 87.199219 185.523438 88.675781 186.375 88.46875 187.429688 C 88.839844 189.488281 88.710938 191.660156 89.59375 193.601562 C 89.480469 194.890625 90.324219 196.011719 90.367188 197.230469 C 90.597656 198.722656 91.894531 199.839844 92.125 201.355469 C 92.539062 202.476562 93.261719 203.539062 93.457031 204.679688 C 94.695312 205.847656 95.027344 207.628906 95.828125 209.085938 C 96.421875 210.386719 97.117188 211.652344 97.519531 213.023438 C 98.113281 214.113281 98.871094 214.917969 99.597656 215.902344 C 100.335938 216.414062 99.703125 217.277344 100.671875 217.300781 C 101.445312 218.3125 102.160156 219.417969 103.003906 220.269531 C 103.402344 221.632812 104.648438 222.511719 105.109375 223.824219 C 106.042969 224.871094 107.027344 225.894531 107.636719 227.179688 C 108.574219 228.160156 109.421875 229.242188 110.265625 230.230469 C 111.324219 230.851562 111.789062 232.125 112.722656 232.917969 C 113.625 233.53125 114.003906 235.152344 115.210938 234.859375 C 115.335938 236.074219 116.511719 236.976562 117.421875 237.605469 C 118.269531 238.457031 119.441406 238.957031 120.25 239.882812 C 121.410156 241.007812 122.828125 241.828125 123.972656 242.980469 C 125.191406 244.144531 126.621094 245.035156 128.066406 245.878906 C 129.269531 246.851562 130.761719 247.382812 131.996094 248.316406 C 133.300781 249.195312 134.785156 249.753906 136.066406 250.664062 C 137.410156 251.46875 138.996094 251.519531 140.472656 251.792969 C 141.753906 252.125 143.023438 253.242188 144.207031 253.226562 C 145.097656 252.472656 145.9375 254.300781 147.082031 254.070312 C 148.382812 254.449219 149.585938 255.085938 150.957031 255.1875 C 152.992188 255.808594 155.054688 256.347656 157.167969 256.640625 C 159.601562 257.144531 162.066406 257.550781 164.5625 257.476562 L 167.417969 257.476562 C 170.808594 257.734375 170.675781 257.96875 172.28125 257.597656 C 173.390625 257.25 174.730469 257.363281 175.96875 256.976562 C 177.523438 256.734375 179.042969 256.234375 180.636719 256.335938 C 181.785156 255.980469 183.003906 255.902344 184.199219 255.742188 C 185.503906 255.4375 186.789062 255.230469 188.105469 255.011719 C 189.617188 255.175781 190.824219 254.175781 192.273438 254.148438 C 192.9375 254.113281 193.941406 253.753906 192.710938 253.863281 C 193.320312 253.0625 195 253.675781 195.808594 252.765625 C 196.621094 252.890625 197.488281 252.949219 197.558594 252.019531 C 198.832031 251.585938 200.105469 251.261719 201.375 250.71875 C 202.585938 250.058594 203.933594 249.890625 205.054688 249.28125 C 206.011719 248.082031 207.613281 248.121094 208.855469 247.421875 C 210.261719 247.199219 210.816406 245.773438 212.210938 245.714844 C 212.722656 244.652344 214.410156 244.640625 215.195312 243.550781 C 216.234375 242.421875 217.78125 242.035156 218.796875 240.867188 C 220.003906 240.351562 220.9375 239.441406 222.027344 238.6875 C 223.113281 237.816406 224.148438 236.867188 224.976562 235.753906 C 225.753906 234.667969 227.230469 234.210938 228.011719 233.09375 C 229.359375 231.640625 230.777344 230.238281 232.367188 229.0625 C 233.082031 228.070312 233.507812 226.859375 234.5 226.066406 C 235.53125 225.125 236.234375 223.925781 236.964844 222.757812 C 237.703125 221.707031 238.65625 220.6875 239.078125 219.488281 C 239.917969 218.390625 240.304688 217.007812 241.257812 215.980469 C 242.253906 214.054688 243.5 212.253906 244.21875 210.191406 C 244.988281 207.980469 246.085938 205.898438 246.707031 203.636719 C 247.246094 202.242188 247.378906 200.683594 248.347656 199.488281 C 248.816406 198.289062 249.289062 197.078125 249.496094 195.753906 C 250.074219 192.921875 250.988281 190.125 251.011719 187.210938 C 251.648438 181.625 251.332031 175.984375 251.027344 170.390625 C 250.675781 166.578125 249.777344 162.839844 249.460938 159.023438 C 249.347656 157.800781 248.539062 156.867188 249.023438 155.617188 C 248.230469 154.5625 248.507812 153.035156 247.628906 151.859375 C 246.796875 150.332031 246.589844 148.539062 245.707031 147.03125 C 245.066406 146.628906 244.3125 146.902344 245.367188 146.480469 C 245.671875 145.34375 244.429688 144.207031 244.152344 143.066406 C 243.980469 141.726562 243.277344 140.609375 242.777344 139.371094 C 242.183594 138.136719 241.34375 137 241.078125 135.636719 C 240.285156 134.179688 239.367188 132.789062 238.507812 131.371094 C 237.316406 129.511719 235.679688 127.996094 234.511719 126.121094 C 232.820312 124.273438 231.414062 122.175781 229.734375 120.3125 C 227.691406 117.859375 225.351562 115.675781 222.808594 113.753906 C 220.9375 112.242188 219.191406 110.554688 217.097656 109.347656 C 216.738281 108.234375 215.976562 107.5 214.828125 107.113281 C 213.363281 106.121094 211.820312 105.238281 210.359375 104.246094 C 208.996094 103.007812 207.117188 102.589844 205.601562 101.589844 C 204.320312 101.125 203.175781 100.328125 201.851562 99.941406 C 200.621094 99.355469 199.351562 98.90625 198.027344 98.609375 C 197.046875 98.210938 195.710938 97.835938 194.976562 97.277344 C 197.378906 97.59375 199.582031 98.714844 201.941406 99.226562 C 203.152344 99.675781 204.375 100.070312 205.476562 100.75 C 206.6875 101.136719 207.914062 101.574219 208.84375 102.511719 C 210.097656 103.351562 211.535156 103.894531 212.6875 104.894531 C 213.875 105.449219 214.539062 106.855469 215.902344 106.894531 C 216.960938 107.90625 218.285156 108.636719 219.445312 109.566406 C 220.9375 110.710938 222.285156 112.03125 223.703125 113.261719 C 227.195312 116.425781 230.347656 119.9375 233.511719 123.425781 C 234.117188 124.597656 235.019531 125.488281 235.9375 126.40625 C 236.824219 127.421875 237.621094 128.535156 238.328125 129.664062 C 239.253906 130.410156 239.570312 131.808594 240.28125 132.796875 C 240.808594 134.046875 241.464844 135.082031 242.15625 136.246094 C 242.851562 137.539062 243.3125 138.929688 244.082031 140.1875 C 244.457031 141.5625 245.382812 142.671875 245.699219 144.042969 C 246.628906 145.09375 246.425781 146.617188 247.191406 147.707031 C 247.957031 149.621094 248.929688 151.503906 249.421875 153.53125 C 249.769531 154.382812 249.789062 155.238281 250.300781 156.003906 C 250.324219 157.492188 250.667969 158.980469 250.890625 160.453125 C 251.097656 161.648438 251.671875 163.007812 251.417969 164.054688 C 251.839844 166.042969 251.765625 168.101562 252.082031 170.109375 C 253.140625 171.207031 252.054688 172.816406 252.445312 174.167969 C 252.457031 175.457031 252.867188 176.804688 252.539062 178.0625 C 251.835938 178.457031 253.207031 178.828125 252.640625 179.558594 C 252.429688 181.359375 252.425781 183.183594 252.066406 184.960938 C 252.582031 186.167969 251.746094 187.46875 251.789062 188.773438 C 251.46875 190.035156 251.308594 191.3125 251.148438 192.582031 C 250.46875 193.828125 250.460938 195.21875 250.253906 196.59375 C 250.023438 198.074219 249.078125 199.304688 248.816406 200.769531 C 248.335938 201.84375 247.945312 202.921875 247.65625 204.058594 C 247.023438 205.378906 246.691406 206.792969 246.308594 208.191406 C 245.601562 209.210938 245.128906 210.390625 244.75 211.585938 C 244.066406 213.675781 242.5 215.34375 241.867188 217.449219 C 240.917969 218.4375 240.359375 219.628906 239.644531 220.753906 C 239.207031 221.808594 238.582031 222.890625 237.742188 223.664062 C 236.78125 225.589844 235.453125 227.332031 234.222656 229.101562 C 233.058594 229.855469 233.007812 231.664062 231.558594 231.925781 C 230.519531 232.128906 231.164062 233.902344 229.886719 234.167969 C 228.828125 235.070312 228.195312 236.378906 227.03125 237.195312 C 226.085938 238.164062 224.800781 238.722656 223.808594 239.566406 C 222.96875 240.738281 221.671875 241.554688 220.585938 242.539062 C 219.4375 243.382812 218.246094 244.089844 217.183594 245.027344 C 215.863281 245.785156 214.464844 246.40625 213.265625 247.351562 C 210.871094 248.6875 208.449219 249.984375 206 251.214844 C 204.402344 252.023438 202.671875 252.539062 201.101562 253.394531 C 200.050781 254.242188 198.613281 254.078125 197.382812 254.554688 C 195.636719 254.726562 194.050781 255.546875 192.335938 255.886719 C 190.34375 256.445312 188.289062 256.792969 186.332031 257.46875 C 185.03125 257.882812 183.636719 257.996094 182.285156 258.246094 C 178.820312 258.644531 175.328125 258.691406 171.859375 258.992188 C 170.574219 259.601562 169.289062 258.886719 167.976562 259.175781 C 166.292969 259.246094 164.582031 259.363281 162.902344 259.167969 Z M 209.925781 250.109375 C 209.542969 249.011719 211.558594 249.578125 210.457031 250.21875 C 210.277344 250.277344 210.058594 250.246094 209.925781 250.109375 Z M 215.398438 248.984375 C 216.480469 247.980469 217.820312 247.238281 219.042969 246.390625 C 220.148438 245.539062 221.289062 244.722656 222.300781 243.734375 C 224.132812 242.277344 225.941406 240.789062 227.53125 239.0625 C 229.53125 237.050781 231.648438 235.136719 233.460938 232.941406 C 234.601562 232.03125 235.375 230.730469 236.238281 229.574219 C 237.222656 228.4375 238.105469 227.21875 238.953125 225.96875 C 239.894531 224.785156 240.671875 223.484375 241.578125 222.273438 C 242.152344 221.175781 243.101562 220.253906 243.695312 219.121094 C 244.320312 217.746094 245.210938 216.511719 246.023438 215.25 C 246.671875 213.839844 247.390625 212.46875 247.910156 210.996094 C 248.675781 209.578125 249 207.964844 249.773438 206.542969 C 250.28125 205.09375 250.488281 203.550781 251.066406 202.113281 C 251.773438 200.21875 252.121094 198.230469 252.496094 196.257812 C 253.148438 194.101562 253.070312 191.8125 253.675781 189.644531 C 254.222656 186.617188 254.769531 183.554688 254.761719 180.46875 C 254.71875 178.011719 255.308594 175.574219 255.152344 173.109375 C 255.25 171.542969 254.972656 169.976562 255.085938 168.414062 C 255.433594 168.9375 255.75 170.855469 255.980469 171.902344 C 256.179688 173.496094 256.460938 175.140625 255.882812 176.695312 C 255.269531 177.996094 256.144531 179.292969 255.578125 180.496094 C 255.375 182.617188 255.605469 184.761719 255.359375 186.878906 C 255.085938 188.109375 254.957031 189.390625 254.5625 190.597656 C 254.355469 191.886719 254.574219 193.253906 254.148438 194.496094 C 253.824219 195.664062 253.230469 196.894531 253.113281 198.15625 C 252.738281 199.453125 252.800781 200.886719 252.175781 202.144531 C 252.148438 203.507812 251.585938 204.582031 251.332031 205.921875 C 250.703125 207.300781 250.582031 208.929688 249.644531 210.140625 C 249.5 211.378906 248.566406 212.136719 248.285156 213.289062 C 247.699219 214.460938 246.878906 215.472656 246.628906 216.796875 C 245.996094 218.53125 244.257812 219.542969 243.621094 221.289062 C 242.964844 222.382812 242.019531 223.265625 241.542969 224.46875 C 240.871094 225.890625 239.808594 227.015625 238.96875 228.230469 C 238.199219 229.632812 236.910156 230.679688 236.1875 232.121094 C 235.15625 233.457031 233.882812 234.570312 232.570312 235.613281 C 231.78125 236.828125 230.570312 237.574219 229.582031 238.613281 C 228.28125 239.796875 227.292969 241.289062 225.796875 242.253906 C 224.601562 242.882812 223.773438 243.984375 222.617188 244.6875 C 220.925781 245.796875 219.316406 247.015625 217.675781 248.191406 C 217.207031 248.324219 215.636719 249.714844 215.398438 248.984375 Z M 85.945312 200.824219 C 85.863281 199.429688 86.886719 201.554688 85.945312 200.824219 Z M 83.980469 194.277344 C 83.726562 193.113281 84.652344 194.335938 84.070312 194.46875 Z M 83.566406 192.328125 C 83.238281 190.980469 83.027344 189.578125 82.992188 188.191406 C 83.828125 188.792969 83.613281 190.453125 84.011719 191.460938 C 83.8125 191.652344 84.03125 193.023438 83.566406 192.328125 Z M 82.484375 183.195312 C 83.070312 181.890625 82.96875 184.453125 82.484375 183.195312 Z M 82.410156 182.046875 C 82.207031 179.554688 82.34375 177.042969 82.292969 174.539062 C 82.277344 172.792969 82.414062 171.054688 82.722656 169.339844 C 83.023438 166.742188 82.78125 164.050781 83.566406 161.535156 C 84.203125 159.425781 84.480469 157.210938 85.226562 155.128906 C 85.347656 153.777344 85.992188 152.671875 86.414062 151.402344 C 86.746094 150.109375 86.808594 148.828125 87.730469 147.78125 C 88.511719 146.304688 88.785156 144.617188 89.753906 143.230469 C 90.296875 142.03125 90.75 140.890625 91.410156 139.699219 C 92.195312 138.140625 92.878906 136.503906 93.863281 135.0625 C 94.65625 133.945312 95.265625 132.625 96.046875 131.457031 C 97.007812 129.335938 98.566406 127.558594 100.007812 125.75 C 101.28125 124.128906 102.117188 122.203125 103.515625 120.667969 C 105.085938 118.671875 107.066406 117.039062 108.542969 114.96875 C 109.65625 114.050781 110.703125 113.171875 111.902344 112.339844 C 113.984375 110.933594 115.683594 109.027344 117.890625 107.792969 C 118.378906 107.199219 119.890625 106.996094 118.917969 107.976562 C 117.855469 108.652344 116.773438 109.328125 115.820312 110.140625 C 114.871094 111.289062 113.324219 111.828125 112.628906 113.191406 C 111.6875 114.167969 110.421875 114.734375 109.546875 115.808594 C 108.324219 117.03125 107.019531 118.199219 105.953125 119.558594 C 105.132812 120.753906 104.085938 121.820312 103.242188 123.011719 C 102.550781 124.339844 101.457031 125.390625 100.65625 126.640625 C 100.175781 127.832031 99.40625 128.90625 98.625 129.929688 C 98.0625 131.121094 97.128906 132.070312 96.441406 133.195312 C 95.964844 134.5 95.070312 135.558594 94.628906 136.882812 C 93.519531 138.472656 92.621094 140.1875 91.511719 141.777344 C 90.945312 143.046875 89.996094 144.097656 89.753906 145.492188 C 89.203125 146.59375 88.542969 147.667969 88.34375 148.902344 C 87.339844 150.402344 86.886719 152.164062 86.535156 153.910156 C 86.246094 155.214844 85.578125 156.496094 85.566406 157.824219 C 85.40625 159.480469 85.070312 161.121094 84.960938 162.789062 C 84.683594 164.875 84.539062 167.046875 83.644531 168.984375 C 83.992188 170.335938 83.460938 171.71875 83.464844 173.117188 C 83.1875 175.289062 83.019531 177.496094 83.148438 179.683594 C 83.492188 180.21875 83.335938 182.636719 82.414062 182.046875 Z M 88.027344 169.175781 C 87.371094 168.640625 88.019531 166.652344 88.507812 167.011719 C 89.195312 168.039062 88.378906 168.445312 88.027344 169.175781 Z M 88.324219 165.046875 C 88.613281 163.210938 88.863281 161.363281 88.949219 159.511719 C 89.679688 156.539062 90.683594 153.636719 91.5625 150.703125 C 92.136719 149.191406 92.527344 147.519531 93.542969 146.234375 C 94.359375 147.039062 92.84375 148.457031 92.78125 149.539062 C 92.28125 150.871094 91.882812 152.191406 91.375 153.519531 C 91.121094 154.847656 90.859375 156.117188 90.308594 157.382812 C 89.800781 159.683594 89.753906 162.082031 88.957031 164.3125 C 89.34375 165.09375 88.109375 166.984375 88.324219 165.046875 Z M 252.683594 156.742188 C 252.574219 155.265625 254.035156 157.457031 252.839844 157.023438 L 252.746094 156.898438 Z M 252.464844 155.117188 C 251.984375 153.480469 251.679688 151.789062 250.925781 150.25 C 250.617188 148.992188 250.355469 147.726562 249.957031 146.488281 C 249.703125 145.203125 249.375 143.941406 248.933594 142.710938 C 247.851562 140.585938 247.320312 138.21875 246.121094 136.144531 C 245.144531 134.238281 244.328125 132.242188 243.140625 130.457031 C 242.722656 128.832031 244.394531 130.660156 244.46875 131.328125 C 245.769531 133.261719 246.949219 135.308594 247.683594 137.535156 C 248.160156 138.960938 249.191406 140.179688 249.417969 141.6875 C 249.941406 142.929688 250.449219 144.214844 250.789062 145.527344 C 251.070312 147.050781 251.601562 148.484375 252.074219 149.949219 C 252.46875 151.5625 252.738281 153.21875 252.867188 154.871094 C 252.882812 155.109375 252.597656 155.65625 252.464844 155.117188 Z M 95.5 141.746094 C 95.445312 140.316406 96.707031 139.171875 97.152344 137.839844 C 98.109375 135.753906 99.550781 133.957031 100.542969 131.890625 C 101.390625 130.066406 102.738281 128.570312 103.867188 126.929688 C 104.46875 125.4375 105.816406 124.445312 106.71875 123.140625 C 108.773438 120.65625 111.101562 118.394531 113.601562 116.367188 C 114.214844 116.117188 115.121094 114.808594 115.613281 115.179688 C 114.730469 116.335938 113.945312 117.609375 112.933594 118.675781 C 111.789062 119.796875 110.421875 120.835938 109.84375 122.375 C 108.546875 123.144531 107.949219 124.613281 106.808594 125.578125 C 105.714844 126.625 104.765625 127.894531 103.46875 128.683594 C 102.496094 129.582031 102.234375 131.042969 101.289062 131.914062 C 101.164062 133.109375 99.949219 133.585938 99.835938 134.796875 C 99.480469 136.101562 98.335938 136.953125 97.894531 138.222656 C 97.152344 139.277344 97.070312 140.632812 96.101562 141.5625 C 95.824219 141.875 95.660156 142.660156 95.5 141.746094 Z M 242.109375 128.714844 C 241.511719 128.152344 241.59375 126.761719 242.269531 128.066406 C 242.738281 128.503906 243.316406 130.210938 242.335938 129.015625 L 242.222656 128.871094 Z M 240.992188 126.535156 C 240.167969 126.027344 240.765625 125.273438 241.183594 126.238281 C 241.367188 126.582031 241.484375 127.125 240.992188 126.535156 Z M 237.664062 122.292969 C 236.988281 121.523438 237.90625 120.945312 238.195312 122.007812 C 238.566406 122.46875 237.925781 122.722656 237.664062 122.292969 Z M 236.234375 120.195312 C 235.804688 119.824219 234.632812 118.070312 235.890625 118.835938 C 236.265625 119.308594 237.738281 120.574219 236.917969 120.902344 C 236.625 120.742188 236.421875 120.464844 236.234375 120.195312 Z M 233.535156 117.058594 C 232.894531 116.539062 232.398438 115.242188 233.472656 116.320312 C 233.808594 116.671875 235.371094 117.9375 234.539062 118.074219 C 234.152344 117.792969 233.851562 117.414062 233.535156 117.058594 Z M 230.925781 114.695312 C 229.179688 112.882812 227.132812 111.390625 225.34375 109.617188 C 224.53125 108.964844 222.835938 108.28125 222.878906 107.226562 C 225.632812 108.378906 227.355469 111.015625 229.679688 112.789062 C 230.507812 113.507812 231.847656 114.484375 232.144531 115.351562 C 231.640625 115.488281 231.234375 115.023438 230.929688 114.695312 Z M 116.097656 114.691406 C 116.714844 113.59375 118.105469 113.191406 119.097656 112.453125 C 119.742188 112.21875 121.027344 110.640625 121.425781 111.496094 C 120.207031 112.136719 119.421875 113.375 118.136719 113.890625 C 117.675781 114.132812 116.476562 115.550781 116.097656 114.691406 Z M 121.46875 110.699219 C 122.136719 109.859375 123.46875 109.675781 124.152344 108.746094 C 125.785156 107.855469 127.082031 106.351562 128.929688 105.859375 C 130.089844 105.25 131.160156 104.515625 132.261719 103.800781 C 133.5 103.242188 134.664062 102.492188 135.960938 102.089844 C 137.136719 101.945312 137.957031 100.796875 139.152344 100.578125 C 142.316406 99.90625 145.359375 98.6875 148.46875 97.785156 C 149.6875 97.449219 150.917969 97.199219 152.144531 96.84375 C 154.132812 96.082031 156.214844 95.546875 158.28125 95.027344 C 161.777344 94.230469 165.371094 94.171875 168.914062 93.765625 C 171.558594 93.28125 174.273438 93.53125 176.945312 93.566406 C 179.503906 93.707031 182.144531 93.746094 184.566406 94.671875 C 184.820312 95.417969 183.019531 94.492188 182.453125 94.617188 C 177.652344 94.195312 172.8125 94.164062 167.996094 94.367188 C 164.410156 94.59375 160.839844 95.132812 157.398438 96.191406 C 154.304688 97.03125 151.21875 97.957031 148.097656 98.652344 C 146.726562 99.226562 145.210938 99.375 143.824219 99.949219 C 141.910156 100.550781 140.011719 101.1875 138.183594 102.003906 C 136.949219 102.339844 135.933594 103.113281 134.730469 103.527344 C 133.753906 104.324219 132.667969 104.707031 131.566406 105.285156 C 130.140625 106.003906 128.851562 106.96875 127.453125 107.664062 C 126.304688 108.347656 125.007812 108.78125 124.101562 109.859375 C 123.375 110.070312 122.050781 111.511719 121.46875 110.699219 Z M 220.519531 105.832031 C 218.550781 104.25 216.230469 103.21875 214.101562 101.890625 C 212.878906 101.570312 211.847656 100.863281 210.925781 100.019531 C 209.820312 99.035156 208.457031 98.472656 207.097656 97.941406 C 206.304688 97.871094 205.988281 96.578125 206.847656 97.320312 C 208.101562 97.820312 209.324219 98.054688 210.324219 99.039062 C 211.664062 99.378906 212.671875 100.453125 214.039062 100.746094 C 215.347656 101.878906 216.824219 102.824219 218.328125 103.671875 C 219.148438 104.601562 220.476562 105.105469 221.230469 105.964844 C 220.996094 106.097656 220.726562 105.941406 220.519531 105.832031 Z M 122.597656 104.898438 C 123.1875 103.851562 124.925781 103.445312 125.925781 102.570312 C 127.320312 101.699219 128.828125 101.023438 130.21875 100.152344 C 131.246094 99.3125 132.683594 99.25 133.777344 98.488281 C 135.292969 97.828125 136.871094 97.296875 138.324219 96.503906 C 139.828125 96.226562 141.1875 95.496094 142.644531 95.078125 C 143.972656 94.613281 145.316406 94.332031 146.6875 94.035156 C 148.546875 93.183594 150.605469 92.871094 152.546875 92.226562 C 153.941406 91.796875 155.394531 91.5625 156.78125 91.152344 C 159.101562 91.152344 161.304688 90.195312 163.628906 90.171875 C 163.917969 90.917969 161.757812 90.914062 161.097656 91.175781 C 158.5625 91.808594 156.003906 92.328125 153.417969 92.699219 C 152.152344 93.105469 150.921875 93.574219 149.632812 93.898438 C 148.167969 94.210938 146.816406 94.699219 145.386719 95.09375 C 144.242188 95.742188 142.925781 95.890625 141.722656 96.367188 C 139.269531 97.171875 136.855469 98.144531 134.515625 99.246094 C 132.820312 99.714844 131.289062 100.636719 129.648438 101.273438 C 128.429688 102.152344 126.960938 102.554688 125.734375 103.445312 C 124.667969 103.769531 123.621094 104.917969 122.597656 104.898438 Z M 198.144531 97.671875 C 198.199219 97.003906 198.691406 98.296875 198.144531 97.671875 Z M 203.117188 96.171875 C 201.71875 95.917969 200.484375 95.230469 199.078125 94.960938 C 197.605469 94.378906 196.082031 93.910156 194.566406 93.4375 C 191.785156 92.785156 188.972656 92.28125 186.164062 91.769531 C 184.453125 91.375 186.949219 91.257812 187.457031 91.472656 C 189.175781 91.910156 190.964844 91.855469 192.683594 92.300781 C 194.09375 92.445312 195.410156 92.742188 196.644531 93.414062 C 197.898438 93.933594 199.117188 94.429688 200.433594 94.753906 C 201.816406 95.207031 203.28125 95.589844 204.527344 96.335938 C 204.617188 96.703125 203.316406 96.265625 203.117188 96.171875 Z M 188.695312 95.683594 C 188.332031 95.550781 186.257812 95.347656 187.261719 94.984375 C 187.941406 95.328125 189.730469 95.15625 189.757812 95.828125 C 189.410156 95.925781 189.011719 95.859375 188.695312 95.683594 Z M 181.292969 91.289062 C 179.972656 91.101562 178.660156 90.769531 177.359375 90.671875 C 178.6875 90.195312 180.1875 90.699219 181.582031 90.65625 C 182.601562 90.734375 184.011719 90.910156 184.664062 91.378906 C 183.558594 91.605469 182.40625 91.363281 181.292969 91.289062 Z M 175.820312 90.765625 C 174.90625 90.136719 177.195312 90.34375 176.03125 90.804688 Z M 164.546875 90.324219 C 165.289062 90.042969 167.269531 89.714844 167.441406 90.199219 C 166.542969 90.398438 165.390625 90.554688 164.546875 90.324219 Z M 168.28125 90.261719 C 169.097656 90.078125 170.933594 89.941406 171.265625 90.386719 C 170.292969 90.488281 169.21875 90.554688 168.28125 90.261719 Z M 239.171875 235.734375 C 238.960938 234.941406 237.867188 236.589844 239.007812 235.945312 L 239.109375 235.84375 Z M 79.503906 191.738281 C 79.085938 191.328125 79.089844 192.398438 79.503906 191.738281 Z M 78.742188 182.664062 C 77.804688 182.542969 78.941406 182.992188 78.742188 182.664062 Z M 260.003906 164.5 C 259.375 163.746094 259.910156 165.351562 260.003906 164.5 Z M 79.003906 162.511719 C 78.085938 161.734375 78.660156 163.351562 79.003906 162.511719 Z M 79.898438 158.734375 C 80.277344 158.097656 77.980469 159.175781 79.570312 158.867188 L 79.753906 158.808594 Z M 80.496094 156.855469 C 79.691406 155.070312 79.996094 158.027344 80.496094 156.855469 Z M 80.097656 154.953125 C 79.101562 154.363281 79.394531 155.445312 80.253906 155.109375 L 80.230469 155.050781 Z M 80.097656 154.160156 C 79.101562 153.566406 79.394531 154.648438 80.253906 154.3125 L 80.230469 154.253906 Z M 81.292969 153.179688 C 81.0625 152.308594 79.253906 151.96875 80.5 153.0625 C 80.675781 153.230469 81.144531 153.582031 81.292969 153.179688 Z M 84.277344 143.5 C 83.910156 142.847656 82.714844 144.296875 83.964844 143.808594 C 84.09375 143.746094 84.261719 143.660156 84.277344 143.5 Z M 84.277344 141.230469 C 83.738281 140.429688 83.808594 142.003906 84.277344 141.230469 Z M 87.058594 136.84375 C 86.730469 136.3125 86.425781 137.65625 87.058594 136.84375 Z M 90.339844 130.488281 C 89.421875 129.710938 89.996094 131.332031 90.339844 130.488281 Z M 91.671875 127.570312 C 90.734375 127.449219 91.867188 127.898438 91.671875 127.570312 Z M 99.789062 117.550781 C 99.371094 117.140625 99.375 118.210938 99.789062 117.550781 Z M 102.925781 114.019531 C 102.753906 113.1875 102.140625 115.085938 102.925781 114.019531 Z M 103.855469 112.175781 C 102.933594 111.730469 103.839844 113.195312 103.855469 112.175781 Z M 231.0625 107.339844 C 230.355469 106.65625 230.210938 107.699219 231.0625 107.339844 Z M 115.339844 102.507812 C 114.402344 102.386719 115.539062 102.835938 115.339844 102.507812 Z M 219.367188 98.730469 C 218.425781 98.609375 219.5625 99.058594 219.367188 98.730469 Z M 123.855469 98.058594 C 123.4375 97.648438 123.445312 98.71875 123.855469 98.058594 Z M 217.140625 97.074219 C 216.023438 96.472656 216.507812 97.429688 217.339844 97.234375 Z M 126.160156 96.5 C 125.707031 95.785156 124.367188 96.617188 125.660156 96.675781 C 125.777344 96.640625 126.160156 96.710938 126.160156 96.5 Z M 126.910156 95.582031 C 127.277344 95.078125 129.164062 95.378906 127.640625 94.964844 C 126.9375 94.632812 125.578125 96.613281 126.910156 95.582031 Z M 126.144531 95.085938 C 125.796875 94.335938 125.320312 95.742188 126.144531 95.085938 Z M 212.464844 94.6875 C 212.207031 94 211.238281 95.121094 212.292969 94.828125 Z M 131.414062 93.890625 C 130.878906 93.089844 130.945312 94.667969 131.414062 93.890625 Z M 133.363281 92.125 C 132.652344 90.925781 133.105469 93.878906 133.472656 92.296875 Z M 208.410156 91.84375 C 207.128906 91.328125 208.898438 92.949219 208.410156 91.84375 Z M 138.050781 90.605469 C 137.261719 89.855469 138.117188 91.78125 138.050781 90.605469 Z M 204.011719 90.433594 C 203.425781 89.921875 202.265625 90.597656 203.640625 90.503906 L 203.835938 90.488281 Z M 142.355469 89.132812 C 141.972656 88.5 140.351562 88.039062 141.53125 89.035156 C 141.695312 89.171875 142.285156 89.546875 142.355469 89.132812 Z M 195.957031 87.328125 C 195.785156 86.796875 194.253906 86.097656 194.828125 87.285156 C 195.320312 86.929688 195.566406 87.914062 195.957031 87.328125 Z M 149.355469 86.992188 C 148.417969 86.871094 149.550781 87.324219 149.355469 86.992188 Z M 188.101562 85.363281 C 187.539062 84.660156 186.675781 85.488281 186.109375 85.460938 C 186.757812 85.488281 187.496094 85.613281 188.101562 85.363281 Z M 160.652344 85.140625 C 160.332031 84.597656 159.121094 85.242188 160.269531 85.339844 C 160.375 85.328125 160.636719 85.3125 160.652344 85.140625 Z M 163.527344 84.960938 C 163.140625 84.464844 160.875 84.765625 162.542969 84.996094 C 162.855469 84.960938 163.300781 85.296875 163.527344 84.960938 Z M 182.769531 84.804688 C 181.832031 84.683594 182.964844 85.136719 182.769531 84.804688 Z M 258.164062 205.726562 C 257.316406 204.851562 258.6875 204.804688 258.386719 205.738281 L 258.292969 205.753906 Z M 133.460938 89.992188 C 134.191406 89.769531 133.769531 90.355469 133.460938 89.992188 Z M 154.289062 84.667969 C 154.796875 84.105469 155.71875 84.847656 154.601562 84.738281 L 154.4375 84.71875 Z M 154.289062 84.667969 " fill-opacity="1" fill-rule="nonzero"/></g><g clip-path="url(#810df5b3d2)"><path fill="#f2f2f2" d="M 145.109375 99.546875 C 145.285156 99.226562 145.070312 99.207031 145.488281 98.917969 C 148.335938 96.984375 151.328125 95.21875 154.414062 93.609375 C 157.5 92.007812 160.683594 90.558594 163.949219 89.320312 L 165.378906 89.128906 C 158.550781 91.644531 151.976562 94.875 145.109375 99.546875 Z M 228.261719 85.988281 C 224.566406 84.730469 221.636719 83.925781 219.378906 83.320312 C 218.8125 83.171875 218.289062 83.039062 217.804688 82.914062 C 217.324219 82.785156 216.878906 82.664062 216.472656 82.566406 C 215.65625 82.363281 214.996094 82.175781 214.464844 82.027344 C 212.34375 81.433594 212.355469 81.121094 213.257812 80.925781 L 213.894531 81.078125 C 210.816406 80.5625 207.667969 80.183594 204.546875 79.964844 C 201.425781 79.746094 198.335938 79.6875 195.378906 79.777344 C 194.78125 79.800781 194.25 79.84375 193.757812 79.890625 C 193.265625 79.9375 192.816406 79.988281 192.386719 80.050781 C 191.53125 80.179688 190.769531 80.269531 189.941406 80.320312 C 180.746094 80.789062 171.855469 82.703125 163.523438 85.765625 C 155.183594 88.835938 147.390625 93.0625 140.296875 98.269531 C 133.203125 103.476562 126.789062 109.644531 121.179688 116.667969 C 115.578125 123.691406 110.769531 131.578125 106.980469 140.285156 C 105.859375 142.855469 104.71875 146.023438 103.800781 149.101562 C 102.871094 152.179688 102.164062 155.160156 101.628906 157.308594 C 99.570312 165.609375 98.632812 174.671875 99.097656 184.003906 C 99.5625 193.332031 101.484375 202.925781 104.945312 212.144531 C 108.390625 221.367188 113.367188 230.199219 119.59375 238.09375 C 125.8125 245.996094 133.300781 252.929688 141.550781 258.558594 C 144.691406 260.710938 147.707031 262.550781 149.800781 264.054688 C 138.507812 258.007812 128.453125 249.753906 120.335938 239.9375 C 112.207031 230.125 106.023438 218.746094 102.257812 206.636719 L 102.441406 207.144531 C 102.5625 207.730469 102.710938 208.308594 102.851562 208.890625 C 102.992188 209.472656 103.125 210.058594 103.285156 210.632812 L 103.753906 212.371094 L 104.261719 214.101562 C 103.355469 212.042969 102.433594 209.71875 101.632812 207.5 C 101.441406 206.941406 101.253906 206.394531 101.066406 205.859375 C 100.886719 205.324219 100.730469 204.796875 100.574219 204.292969 C 100.257812 203.28125 100.019531 202.339844 99.820312 201.523438 C 99.03125 198.203125 98.382812 194.765625 97.90625 191.25 C 97.429688 187.730469 97.128906 184.132812 97.015625 180.5 C 96.792969 173.238281 97.332031 165.820312 98.714844 158.632812 C 100.09375 151.449219 102.296875 144.503906 105.132812 138.167969 C 107.972656 131.832031 111.433594 126.109375 115.160156 121.230469 C 117.246094 118.492188 119.925781 115.167969 122.734375 112.023438 C 124.121094 110.4375 125.550781 108.90625 126.890625 107.453125 C 127.574219 106.742188 128.214844 106.023438 128.847656 105.367188 C 129.46875 104.695312 130.0625 104.058594 130.621094 103.457031 L 131.023438 103.121094 C 128.757812 104.902344 126.566406 106.792969 124.457031 108.777344 C 122.347656 110.765625 120.324219 112.851562 118.394531 115.027344 C 122.8125 109.171875 127.640625 103.90625 133.574219 98.960938 C 133.777344 98.789062 133.980469 98.617188 134.183594 98.449219 C 134.390625 98.28125 134.601562 98.113281 134.808594 97.949219 C 135.226562 97.617188 135.648438 97.28125 136.070312 96.945312 C 136.5 96.621094 136.929688 96.292969 137.363281 95.96875 C 137.582031 95.804688 137.796875 95.640625 138.015625 95.476562 C 138.238281 95.316406 138.457031 95.160156 138.679688 95 C 140.445312 93.707031 142.292969 92.496094 144.175781 91.308594 C 145.121094 90.730469 146.070312 90.144531 147.039062 89.597656 C 148 89.03125 148.984375 88.507812 149.964844 87.972656 C 150.453125 87.707031 150.953125 87.460938 151.449219 87.203125 L 152.191406 86.824219 L 152.941406 86.457031 C 153.441406 86.214844 153.9375 85.972656 154.4375 85.730469 C 154.941406 85.503906 155.445312 85.273438 155.945312 85.042969 L 156.699219 84.703125 C 156.953125 84.59375 157.207031 84.488281 157.457031 84.378906 C 157.964844 84.164062 158.46875 83.953125 158.972656 83.738281 C 159.988281 83.339844 160.992188 82.914062 162.003906 82.550781 C 162.511719 82.363281 163.011719 82.175781 163.515625 81.992188 C 164.019531 81.816406 164.523438 81.644531 165.023438 81.472656 C 165.273438 81.386719 165.523438 81.300781 165.773438 81.214844 C 166.023438 81.132812 166.277344 81.050781 166.523438 80.972656 C 167.023438 80.816406 167.523438 80.65625 168.015625 80.496094 C 171.984375 79.28125 175.835938 78.351562 179.417969 77.640625 C 185.410156 76.453125 191.570312 75.898438 197.730469 75.96875 C 203.894531 76.046875 210.074219 76.742188 216.128906 78.023438 C 222.183594 79.304688 228.113281 81.1875 233.804688 83.585938 C 239.496094 85.984375 244.957031 88.894531 250.113281 92.230469 C 251.277344 92.972656 252.589844 93.957031 253.785156 94.925781 C 254.378906 95.417969 254.957031 95.886719 255.460938 96.339844 C 255.964844 96.789062 256.410156 97.199219 256.773438 97.535156 C 257.25 97.984375 254.753906 96.367188 252.871094 95.125 C 250.984375 93.890625 248.863281 92.550781 246.707031 91.300781 C 244.542969 90.054688 242.335938 88.90625 240.335938 87.964844 C 238.027344 86.894531 235.835938 86.011719 233.675781 85.214844 C 231.503906 84.433594 229.363281 83.738281 227.132812 83.09375 C 229.609375 83.976562 232.050781 84.976562 234.445312 86.058594 C 235.648438 86.59375 236.828125 87.171875 238.007812 87.753906 L 239.757812 88.65625 C 240.339844 88.957031 240.910156 89.28125 241.484375 89.59375 C 244.804688 91.429688 247.378906 93.152344 249.253906 94.527344 C 251.128906 95.902344 252.316406 96.933594 252.835938 97.496094 C 253.363281 98.0625 253.222656 98.160156 252.394531 97.761719 C 251.984375 97.5625 251.402344 97.234375 250.625 96.808594 C 250.238281 96.585938 249.804688 96.339844 249.328125 96.066406 C 248.84375 95.796875 248.316406 95.5 247.738281 95.171875 C 244.792969 93.496094 240.136719 90.941406 236 89.222656 C 247.664062 94.417969 258.347656 102.027344 267.144531 111.4375 C 271.542969 116.140625 275.480469 121.285156 278.875 126.761719 C 282.265625 132.234375 285.109375 138.046875 287.351562 144.070312 C 289.125 148.730469 290.675781 153.742188 291.367188 155.609375 C 292.707031 159.128906 293.835938 162.703125 294.757812 166.070312 C 295.683594 169.4375 296.402344 172.597656 297.011719 175.28125 C 297.265625 176.378906 297.484375 176.566406 297.65625 175.941406 C 297.824219 175.316406 297.984375 173.882812 298 171.757812 C 298.011719 169.636719 297.917969 166.820312 297.523438 163.460938 C 297.429688 162.621094 297.304688 161.75 297.183594 160.84375 C 297.046875 159.941406 296.882812 159.007812 296.71875 158.042969 C 296.527344 157.082031 296.347656 156.085938 296.121094 155.070312 C 295.890625 154.058594 295.660156 153.011719 295.375 151.953125 C 294.214844 147.394531 292.710938 142.910156 290.933594 138.539062 C 290.027344 136.355469 289.0625 134.199219 288.019531 132.082031 C 287.761719 131.546875 287.484375 131.027344 287.21875 130.5 C 286.949219 129.972656 286.679688 129.449219 286.394531 128.929688 L 285.546875 127.375 L 284.664062 125.839844 C 279.910156 117.675781 274.023438 110.191406 267.285156 103.6875 C 260.550781 97.179688 252.953125 91.667969 244.875 87.335938 C 243.871094 86.78125 242.84375 86.277344 241.828125 85.761719 C 241.316406 85.507812 240.796875 85.265625 240.28125 85.019531 L 239.511719 84.652344 L 238.734375 84.304688 C 238.214844 84.070312 237.695312 83.839844 237.175781 83.609375 C 236.652344 83.390625 236.128906 83.171875 235.605469 82.957031 L 234.820312 82.632812 L 234.027344 82.324219 C 233.5 82.121094 232.976562 81.914062 232.449219 81.71875 C 228.214844 80.160156 223.921875 78.871094 219.601562 77.921875 C 203.816406 74.394531 187.226562 74.625 171.515625 78.640625 C 171.023438 78.765625 170.53125 78.886719 170.042969 79.019531 L 168.582031 79.433594 L 167.847656 79.640625 L 167.125 79.867188 L 165.671875 80.316406 C 165.1875 80.464844 164.710938 80.636719 164.230469 80.792969 C 163.75 80.957031 163.265625 81.109375 162.792969 81.285156 C 161.839844 81.636719 160.882812 81.964844 159.941406 82.34375 C 156.164062 83.8125 152.464844 85.492188 148.890625 87.40625 C 145.316406 89.316406 141.84375 91.421875 138.523438 93.75 L 137.28125 94.621094 L 136.054688 95.523438 L 135.445312 95.972656 L 133.640625 97.367188 C 132.054688 98.632812 130.492188 99.921875 128.984375 101.277344 C 127.460938 102.613281 126.003906 104.023438 124.5625 105.445312 C 123.140625 106.890625 121.738281 108.355469 120.402344 109.878906 C 119.050781 111.390625 117.769531 112.960938 116.507812 114.546875 C 115.269531 116.148438 114.046875 117.769531 112.902344 119.441406 C 112.316406 120.269531 111.769531 121.121094 111.207031 121.964844 C 110.925781 122.386719 110.664062 122.820312 110.390625 123.246094 C 110.125 123.675781 109.851562 124.105469 109.589844 124.539062 L 108.8125 125.84375 L 108.425781 126.5 L 108.054688 127.160156 L 107.308594 128.484375 L 106.59375 129.828125 C 106.109375 130.71875 105.667969 131.628906 105.210938 132.535156 C 104.980469 132.984375 104.777344 133.449219 104.554688 133.90625 C 104.34375 134.367188 104.121094 134.820312 103.914062 135.285156 L 103.300781 136.671875 L 102.992188 137.371094 L 102.703125 138.070312 L 102.125 139.476562 L 101.574219 140.894531 C 101.203125 141.835938 100.871094 142.792969 100.527344 143.746094 C 100.351562 144.222656 100.203125 144.707031 100.042969 145.1875 C 99.882812 145.667969 99.71875 146.148438 99.570312 146.628906 C 98.972656 148.566406 98.402344 150.511719 97.921875 152.476562 C 97.417969 154.4375 97.007812 156.421875 96.621094 158.410156 C 96.527344 158.90625 96.445312 159.40625 96.355469 159.902344 C 96.273438 160.402344 96.175781 160.898438 96.109375 161.398438 C 95.964844 162.402344 95.796875 163.398438 95.6875 164.40625 C 95.183594 168.417969 94.910156 172.457031 94.882812 176.492188 C 94.855469 180.53125 95.066406 184.566406 95.503906 188.578125 C 97.082031 202.945312 101.78125 216.851562 109.070312 229.144531 C 112.71875 235.292969 117 241.050781 121.824219 246.304688 C 126.65625 251.550781 132.03125 256.292969 137.84375 260.433594 C 149.460938 268.730469 162.886719 274.546875 176.992188 277.367188 C 184.046875 278.78125 191.261719 279.4375 198.484375 279.351562 C 205.710938 279.261719 212.96875 278.414062 220.085938 276.792969 C 226.542969 275.320312 232.886719 273.210938 238.992188 270.488281 C 245.097656 267.769531 250.960938 264.441406 256.464844 260.558594 C 267.480469 252.796875 277.050781 242.796875 284.371094 231.21875 C 286.523438 227.820312 288.019531 225 289.097656 222.796875 C 289.644531 221.699219 290.058594 220.742188 290.40625 219.941406 C 290.761719 219.144531 290.992188 218.480469 291.179688 217.964844 C 291.542969 216.933594 291.605469 216.457031 291.445312 216.453125 C 291.363281 216.445312 291.226562 216.558594 291.035156 216.777344 C 290.839844 216.988281 290.589844 217.304688 290.289062 217.707031 C 287.460938 221.515625 284.769531 224.324219 281.871094 227.136719 C 281.40625 227.585938 280.53125 228.488281 281.089844 227.460938 C 282.792969 224.359375 283.71875 222.246094 284.222656 220.945312 C 284.71875 219.640625 284.804688 219.148438 284.628906 219.175781 C 284.457031 219.203125 284.019531 219.742188 283.464844 220.507812 C 283.328125 220.699219 283.179688 220.90625 283.027344 221.117188 C 282.871094 221.332031 282.710938 221.550781 282.546875 221.777344 C 282.214844 222.230469 281.875 222.703125 281.535156 223.15625 C 280.484375 224.519531 280.058594 224.796875 280.742188 223.25 C 280.914062 222.867188 281.144531 222.359375 281.445312 221.726562 C 281.601562 221.410156 281.769531 221.058594 281.957031 220.675781 C 282.140625 220.292969 282.339844 219.871094 282.554688 219.414062 C 283.429688 217.589844 284.570312 215.171875 285.863281 211.992188 C 286.769531 209.738281 287.714844 207.15625 288.546875 204.453125 C 289.378906 201.753906 290.113281 198.9375 290.664062 196.246094 C 291.21875 193.554688 291.609375 190.992188 291.859375 188.816406 C 291.921875 188.273438 291.96875 187.75 292.011719 187.257812 C 292.054688 186.765625 292.105469 186.304688 292.125 185.871094 C 292.171875 185.003906 292.207031 184.269531 292.214844 183.691406 C 292.210938 182.898438 292.195312 182.207031 292.167969 181.601562 C 292.144531 180.996094 292.082031 180.476562 292.027344 180.03125 C 291.972656 179.585938 291.910156 179.210938 291.84375 178.894531 C 291.773438 178.578125 291.6875 178.320312 291.605469 178.109375 C 291.277344 177.257812 290.914062 177.113281 290.589844 176.792969 C 289.800781 176.011719 288.980469 175.980469 288.167969 177.953125 C 288.078125 178.175781 287.988281 178.429688 287.898438 178.714844 C 287.800781 179 287.703125 179.320312 287.605469 179.671875 C 287.507812 180.019531 287.410156 180.402344 287.3125 180.816406 C 287.210938 181.234375 287.101562 181.675781 286.988281 182.148438 C 286.558594 184.042969 286.035156 186.410156 285.355469 189.1875 C 284.671875 191.960938 283.816406 195.144531 282.683594 198.640625 C 282.097656 200.382812 281.472656 202.214844 280.730469 204.101562 C 280.375 205.050781 279.96875 206.003906 279.570312 206.984375 C 279.359375 207.46875 279.148438 207.960938 278.933594 208.457031 C 278.824219 208.703125 278.714844 208.953125 278.605469 209.203125 C 278.492188 209.449219 278.375 209.699219 278.261719 209.949219 C 275.308594 216.429688 271.179688 223.230469 266.113281 229.523438 C 261.0625 235.835938 255.046875 241.585938 248.773438 246.367188 C 244.984375 249.265625 241.253906 251.589844 237.625 253.523438 C 235.804688 254.476562 234.019531 255.359375 232.242188 256.125 C 232.019531 256.222656 231.800781 256.320312 231.578125 256.417969 C 231.355469 256.507812 231.132812 256.601562 230.914062 256.691406 C 230.472656 256.875 230.03125 257.054688 229.597656 257.234375 C 229.15625 257.402344 228.714844 257.570312 228.28125 257.734375 C 227.84375 257.902344 227.410156 258.066406 226.972656 258.214844 C 223.488281 259.445312 220.066406 260.417969 216.621094 261.140625 C 213.175781 261.863281 209.714844 262.390625 206.136719 262.695312 C 202.511719 262.996094 198.824219 263.09375 195.066406 262.957031 C 194.125 262.90625 193.179688 262.886719 192.234375 262.808594 C 191.757812 262.777344 191.285156 262.746094 190.808594 262.710938 C 190.332031 262.667969 189.855469 262.625 189.375 262.582031 C 189.136719 262.558594 188.898438 262.539062 188.65625 262.515625 C 188.417969 262.488281 188.179688 262.460938 187.9375 262.433594 C 187.457031 262.382812 186.976562 262.328125 186.492188 262.273438 C 186.011719 262.207031 185.527344 262.140625 185.039062 262.074219 C 184.796875 262.042969 184.554688 262.011719 184.3125 261.980469 C 184.066406 261.941406 183.824219 261.902344 183.582031 261.863281 C 179.367188 261.222656 175.355469 260.257812 171.445312 259.042969 C 169.488281 258.433594 167.566406 257.738281 165.648438 257 C 163.738281 256.242188 161.84375 255.414062 159.949219 254.527344 C 158.058594 253.621094 156.171875 252.644531 154.28125 251.59375 C 152.390625 250.53125 150.503906 249.378906 148.601562 248.136719 C 148.132812 247.816406 147.648438 247.511719 147.175781 247.183594 C 146.703125 246.855469 146.226562 246.527344 145.746094 246.191406 C 145.269531 245.851562 144.796875 245.503906 144.316406 245.15625 C 143.832031 244.8125 143.363281 244.4375 142.882812 244.078125 C 140.964844 242.613281 139.042969 241.035156 137.113281 239.3125 C 132.074219 234.84375 127.0625 228.828125 122.976562 221.945312 C 122.722656 221.515625 122.46875 221.082031 122.214844 220.648438 C 121.972656 220.207031 121.730469 219.769531 121.484375 219.328125 C 121.234375 218.890625 121.007812 218.441406 120.773438 217.992188 C 120.542969 217.542969 120.296875 217.101562 120.082031 216.644531 C 119.171875 214.835938 118.347656 212.980469 117.5625 211.117188 C 116.785156 209.246094 116.09375 207.351562 115.441406 205.457031 C 114.816406 203.558594 114.238281 201.65625 113.734375 199.761719 C 112.871094 196.527344 112.167969 193.089844 111.644531 189.605469 C 111.117188 186.121094 110.820312 182.589844 110.679688 179.167969 C 110.589844 176.746094 110.523438 174.402344 110.542969 172.078125 C 110.566406 169.757812 110.660156 167.457031 110.871094 165.125 C 110.25 168.484375 109.875 172.121094 109.648438 175.246094 C 109.621094 175.660156 109.574219 176.109375 109.546875 176.542969 C 109.515625 176.972656 109.480469 177.390625 109.449219 177.734375 C 109.414062 178.082031 109.378906 178.359375 109.347656 178.511719 C 109.316406 178.664062 109.289062 178.695312 109.261719 178.546875 C 109.007812 176.925781 108.820312 176.507812 108.679688 176.914062 C 108.539062 177.320312 108.429688 178.554688 108.417969 180.210938 C 108.414062 180.417969 108.410156 180.632812 108.410156 180.851562 C 108.414062 181.070312 108.417969 181.296875 108.425781 181.527344 C 108.433594 181.988281 108.445312 182.46875 108.457031 182.964844 C 108.484375 183.457031 108.511719 183.964844 108.539062 184.484375 C 108.554688 184.742188 108.570312 185 108.585938 185.261719 C 108.609375 185.523438 108.632812 185.785156 108.652344 186.046875 C 108.808594 188.144531 109.097656 190.253906 109.335938 191.988281 C 109.628906 193.988281 110.027344 196.085938 110.515625 198.230469 C 111.023438 200.375 111.628906 202.558594 112.324219 204.734375 C 113.019531 206.910156 113.828125 209.066406 114.6875 211.171875 C 114.910156 211.695312 115.113281 212.226562 115.34375 212.742188 C 115.570312 213.257812 115.796875 213.773438 116.023438 214.28125 C 116.496094 215.292969 116.949219 216.300781 117.441406 217.269531 C 120.683594 223.910156 124.878906 230.09375 128.726562 234.890625 C 130.644531 237.296875 132.457031 239.378906 133.949219 241.089844 C 134.328125 241.515625 134.683594 241.917969 135.011719 242.304688 C 135.339844 242.6875 135.65625 243.039062 135.933594 243.375 C 136.21875 243.707031 136.46875 244.023438 136.699219 244.304688 C 136.925781 244.585938 137.125 244.847656 137.289062 245.082031 C 139.335938 246.425781 141.824219 248.21875 144.59375 250.09375 C 145.277344 250.574219 145.996094 251.035156 146.714844 251.519531 C 147.070312 251.765625 147.441406 251.992188 147.808594 252.230469 C 148.175781 252.46875 148.546875 252.707031 148.917969 252.949219 C 150.417969 253.882812 151.9375 254.835938 153.480469 255.710938 C 161.222656 260.199219 169.625 263.507812 178.332031 265.519531 C 187.035156 267.53125 196.050781 268.257812 204.984375 267.699219 C 206.410156 267.597656 207.046875 267.847656 205.941406 268.046875 C 205.558594 268.109375 205.011719 268.210938 204.375 268.277344 C 203.734375 268.351562 203.007812 268.4375 202.265625 268.503906 C 201.523438 268.558594 200.769531 268.609375 200.082031 268.648438 C 199.394531 268.671875 198.769531 268.6875 198.292969 268.691406 C 194.835938 268.683594 191.542969 268.46875 188.296875 268.089844 C 185.050781 267.707031 181.847656 267.15625 178.5625 266.421875 C 174.699219 265.550781 170.882812 264.453125 167.167969 263.085938 C 165.304688 262.417969 163.476562 261.660156 161.664062 260.871094 C 160.761719 260.464844 159.859375 260.066406 158.972656 259.628906 C 158.527344 259.410156 158.078125 259.207031 157.640625 258.976562 L 156.324219 258.304688 C 149.328125 254.640625 142.816406 250.09375 137.058594 244.789062 C 137.496094 245.441406 137.414062 245.554688 136.960938 245.296875 C 136.738281 245.164062 136.417969 244.941406 136.035156 244.644531 C 135.65625 244.339844 135.210938 243.960938 134.714844 243.527344 C 134.21875 243.097656 133.695312 242.59375 133.132812 242.070312 C 132.574219 241.539062 132.011719 240.960938 131.429688 240.382812 C 130.863281 239.789062 130.292969 239.183594 129.738281 238.589844 C 129.195312 237.984375 128.65625 237.402344 128.167969 236.835938 C 125.832031 234.171875 123.648438 231.378906 121.640625 228.472656 C 119.644531 225.558594 117.816406 222.539062 116.160156 219.421875 C 112.875 213.183594 110.300781 206.578125 108.527344 199.730469 C 106.734375 192.894531 105.765625 185.816406 105.550781 178.660156 C 105.453125 175.078125 105.558594 171.476562 105.855469 167.875 C 105.917969 166.972656 106.03125 166.074219 106.117188 165.171875 C 106.160156 164.71875 106.230469 164.273438 106.285156 163.824219 C 106.34375 163.371094 106.394531 162.921875 106.457031 162.472656 C 106.726562 160.675781 107.011719 158.871094 107.378906 157.082031 C 108.621094 150.859375 110.535156 145.128906 113 139.734375 C 115.472656 134.339844 118.5 129.277344 122.148438 124.417969 C 125.761719 119.613281 130.128906 114.765625 135.082031 110.335938 C 140.042969 105.914062 145.585938 101.925781 151.339844 98.691406 C 156.285156 95.902344 161.371094 93.671875 166.453125 92.007812 C 171.539062 90.339844 176.609375 89.207031 181.546875 88.554688 C 184.015625 88.234375 186.449219 88.03125 188.835938 87.925781 C 191.222656 87.816406 193.5625 87.84375 195.84375 87.9375 C 196.414062 87.96875 196.980469 88 197.546875 88.027344 C 198.105469 88.074219 198.664062 88.117188 199.222656 88.164062 C 199.777344 88.199219 200.328125 88.265625 200.871094 88.324219 C 201.417969 88.390625 201.960938 88.4375 202.5 88.515625 C 204.652344 88.792969 206.730469 89.171875 208.734375 89.589844 C 211 90.085938 213.21875 90.621094 215.425781 91.207031 C 217.632812 91.789062 219.820312 92.449219 222.027344 93.160156 C 222.578125 93.34375 223.136719 93.511719 223.6875 93.710938 C 224.238281 93.902344 224.792969 94.09375 225.351562 94.289062 C 225.90625 94.492188 226.460938 94.699219 227.019531 94.90625 C 227.582031 95.109375 228.136719 95.34375 228.703125 95.558594 C 230.953125 96.453125 233.238281 97.441406 235.570312 98.570312 C 242.316406 101.847656 247.5 105.285156 251.648438 108.3125 C 253.726562 109.828125 255.53125 111.273438 257.144531 112.585938 C 258.765625 113.890625 260.15625 115.105469 261.421875 116.175781 C 263.929688 118.332031 265.828125 119.996094 267.402344 121.242188 C 268.199219 121.859375 268.894531 122.390625 269.546875 122.832031 C 270.207031 123.265625 270.789062 123.636719 271.355469 123.9375 C 268.789062 120.765625 266.785156 118.667969 265.035156 116.910156 C 264.601562 116.464844 264.171875 116.050781 263.753906 115.648438 C 263.335938 115.242188 262.9375 114.84375 262.519531 114.460938 C 262.109375 114.070312 261.699219 113.6875 261.28125 113.292969 C 260.859375 112.90625 260.433594 112.511719 259.988281 112.101562 C 257.523438 109.84375 254.804688 107.652344 251.894531 105.515625 C 248.984375 103.371094 245.847656 101.316406 242.527344 99.320312 C 236.394531 95.648438 229.824219 92.6875 222.988281 90.5625 C 221.28125 90.019531 219.550781 89.554688 217.816406 89.113281 C 216.074219 88.695312 214.328125 88.300781 212.5625 87.988281 C 209.039062 87.339844 205.480469 86.882812 201.898438 86.664062 C 194.738281 86.21875 187.519531 86.582031 180.460938 87.824219 C 178.691406 88.121094 176.941406 88.5 175.195312 88.902344 C 174.757812 89.003906 174.324219 89.121094 173.890625 89.226562 C 173.457031 89.339844 173.019531 89.433594 172.589844 89.5625 C 171.726562 89.804688 170.859375 90.03125 170.007812 90.300781 C 166.582031 91.339844 163.207031 92.566406 159.933594 94.015625 C 157.203125 95.210938 154.402344 96.53125 151.636719 98.003906 C 148.875 99.46875 146.148438 101.085938 143.570312 102.835938 C 145.410156 101.332031 147.121094 100.011719 148.996094 98.675781 C 150.875 97.34375 152.9375 96.023438 155.542969 94.648438 C 155.964844 94.414062 156.394531 94.207031 156.824219 93.988281 C 157.253906 93.773438 157.679688 93.550781 158.117188 93.34375 C 158.992188 92.933594 159.863281 92.503906 160.757812 92.121094 C 162.535156 91.316406 164.363281 90.601562 166.210938 89.90625 C 167.144531 89.585938 168.070312 89.234375 169.019531 88.9375 C 169.492188 88.785156 169.964844 88.632812 170.4375 88.480469 C 170.914062 88.335938 171.390625 88.195312 171.867188 88.054688 L 172.585938 87.839844 L 173.308594 87.644531 L 174.753906 87.257812 L 176.214844 86.902344 L 176.945312 86.726562 L 179.148438 86.246094 L 181.363281 85.824219 L 182.105469 85.703125 L 183.59375 85.457031 C 185.578125 85.171875 187.570312 84.90625 189.566406 84.75 C 190.5625 84.648438 191.5625 84.597656 192.558594 84.535156 C 193.054688 84.496094 193.554688 84.488281 194.054688 84.464844 C 194.550781 84.449219 195.050781 84.421875 195.546875 84.414062 C 196.042969 84.40625 196.539062 84.398438 197.039062 84.394531 L 197.78125 84.382812 L 198.523438 84.394531 C 199.019531 84.398438 199.511719 84.402344 200.007812 84.410156 C 200.5 84.425781 200.992188 84.441406 201.484375 84.460938 C 203.910156 84.554688 206.28125 84.714844 208.605469 84.976562 C 210.933594 85.238281 213.226562 85.550781 215.488281 85.976562 C 217.753906 86.398438 220 86.875 222.234375 87.472656 C 224.464844 88.066406 226.703125 88.71875 228.929688 89.507812 C 229.105469 89.570312 229.289062 89.628906 229.484375 89.699219 C 229.679688 89.769531 229.878906 89.84375 230.089844 89.921875 C 230.507812 90.078125 230.953125 90.246094 231.410156 90.417969 C 231.867188 90.59375 232.328125 90.789062 232.789062 90.972656 C 233.253906 91.164062 233.714844 91.347656 234.144531 91.542969 C 235.894531 92.292969 237.308594 92.992188 237.464844 93.085938 C 239.386719 94.328125 241.308594 95.515625 243.125 96.671875 C 244.941406 97.832031 246.679688 98.917969 248.230469 99.933594 C 251.34375 101.9375 253.761719 103.578125 254.878906 104.304688 C 257.640625 106.15625 260.339844 108.203125 263.472656 111.132812 C 265.027344 112.613281 266.6875 114.3125 268.464844 116.363281 C 270.242188 118.417969 272.132812 120.820312 274.09375 123.722656 C 274.644531 124.535156 275.214844 125.375 275.78125 126.214844 C 276.355469 127.046875 276.902344 127.886719 277.4375 128.675781 C 277.960938 129.46875 278.457031 130.214844 278.898438 130.878906 C 279.332031 131.546875 279.710938 132.128906 280.019531 132.582031 C 280.445312 133.203125 280.792969 133.726562 281.125 134.171875 C 281.289062 134.394531 281.441406 134.601562 281.59375 134.792969 C 281.734375 134.988281 281.875 135.167969 282.007812 135.34375 C 282.542969 136.039062 283.042969 136.601562 283.585938 137.386719 C 282.371094 134.730469 281.015625 132.054688 279.550781 129.492188 C 278.089844 126.929688 276.523438 124.484375 274.945312 122.269531 C 269.082031 114.09375 262.003906 106.917969 254.042969 101.023438 C 246.078125 95.128906 237.246094 90.503906 227.90625 87.339844 C 220.882812 84.988281 213.691406 83.472656 206.363281 82.824219 C 202.699219 82.492188 199.007812 82.363281 195.285156 82.445312 C 191.558594 82.535156 187.808594 82.828125 184.035156 83.332031 C 183.546875 83.390625 183.058594 83.46875 182.570312 83.542969 C 182.082031 83.617188 181.589844 83.695312 181.101562 83.769531 C 180.613281 83.859375 180.125 83.945312 179.632812 84.03125 C 179.144531 84.117188 178.65625 84.203125 178.167969 84.308594 C 177.679688 84.410156 177.1875 84.507812 176.699219 84.605469 C 176.210938 84.707031 175.722656 84.828125 175.234375 84.9375 C 174.253906 85.148438 173.28125 85.40625 172.308594 85.652344 C 171.816406 85.773438 171.335938 85.921875 170.847656 86.050781 C 170.363281 86.191406 169.875 86.316406 169.390625 86.46875 C 168.425781 86.765625 167.453125 87.054688 166.496094 87.382812 C 164.566406 88.011719 162.660156 88.730469 160.765625 89.488281 C 153.203125 92.542969 145.992188 96.632812 139.492188 101.523438 C 134.65625 105.175781 130.121094 109.273438 125.746094 114.160156 C 123.5625 116.605469 121.421875 119.25 119.335938 122.152344 C 117.257812 125.0625 115.25 128.238281 113.335938 131.726562 C 114.839844 128.515625 116.527344 125.441406 118.386719 122.515625 L 118.734375 121.964844 L 119.09375 121.421875 C 119.335938 121.0625 119.574219 120.703125 119.816406 120.34375 C 120.300781 119.628906 120.808594 118.933594 121.308594 118.230469 C 121.828125 117.539062 122.339844 116.847656 122.871094 116.171875 L 123.679688 115.164062 L 124.082031 114.660156 L 124.5 114.171875 C 128.921875 108.910156 134.015625 104.222656 139.8125 100.25 C 143.605469 97.640625 146.695312 95.75 149.371094 94.125 C 152.054688 92.511719 154.347656 91.1875 156.667969 89.949219 C 158.992188 88.714844 161.359375 87.585938 164.238281 86.492188 C 167.117188 85.414062 170.515625 84.355469 174.925781 83.5625 C 175.503906 83.460938 176.175781 83.320312 176.90625 83.199219 C 177.640625 83.078125 178.417969 82.917969 179.214844 82.804688 C 180.796875 82.535156 182.421875 82.300781 183.726562 82.109375 C 184.289062 82.035156 184.855469 81.960938 185.429688 81.882812 C 186.007812 81.8125 186.589844 81.757812 187.175781 81.695312 C 187.46875 81.667969 187.761719 81.636719 188.058594 81.609375 C 188.355469 81.585938 188.652344 81.5625 188.953125 81.539062 C 189.550781 81.5 190.152344 81.441406 190.761719 81.417969 C 193.1875 81.277344 195.683594 81.253906 198.199219 81.308594 C 203.230469 81.449219 208.339844 81.996094 213.164062 82.886719 C 214.375 83.097656 215.558594 83.355469 216.730469 83.59375 C 217.894531 83.863281 219.046875 84.109375 220.164062 84.402344 C 221.285156 84.675781 222.375 84.980469 223.441406 85.269531 C 223.972656 85.414062 224.496094 85.578125 225.011719 85.722656 C 225.527344 85.871094 226.039062 86.019531 226.535156 86.175781 C 230.53125 87.398438 233.980469 88.625 236.695312 89.511719 C 233.933594 88.191406 230.898438 86.890625 228.261719 85.988281 " fill-opacity="1" fill-rule="nonzero"/></g><g fill="#f2f2f2" fill-opacity="1"><g transform="translate(274.863267, 102.220599)"><g><path d="M -116.707031 0 L -156.90625 95.589844 C -162.835938 109.113281 -159.683594 123.746094 -145.421875 129.304688 C -130.414062 135.234375 -115.039062 126.527344 -107.816406 108.371094 L -96.515625 82.25 L -76.324219 130.972656 L -60.761719 130.972656 L -88.734375 63.726562 L -69.839844 18.523438 L -22.601562 130.972656 L -6.484375 130.972656 L -61.875 0 L -63.539062 0 L -89.289062 62.058594 L -115.410156 0 Z M -97.625 80.214844 L -109.113281 108.371094 C -115.410156 123.007812 -128.933594 134.121094 -145.050781 128.191406 C -158.757812 122.820312 -161.167969 108.371094 -155.980469 95.589844 L -123.375 18.523438 Z M -97.625 80.214844 "/></g></g></g><g fill="#f2f2f2" fill-opacity="1"><g transform="translate(66.942121, 300.097872)"><g><path d="M 50.789062 -15.4375 C 40.65625 -21.492188 29.117188 -9.125 21.644531 1.324219 L 25.792969 -30.371094 L 21.828125 -32.738281 L 1.671875 1 L 1.960938 1.171875 L 21.601562 -31.707031 L 21.054688 -27.753906 L 16.199219 9.679688 L 16.679688 9.964844 C 21.875 1.265625 34.515625 -18.15625 46.46875 -16.460938 L 27 16.128906 L 30.632812 18.300781 Z M 50.789062 -15.4375 "/></g></g></g><g fill="#f2f2f2" fill-opacity="1"><g transform="translate(102.020046, 320.553962)"><g><path d="M 27.5 9.207031 L 31.933594 10.691406 L 28.628906 -31.859375 L 28.261719 -31.980469 C 21.96875 -26.515625 14.003906 -18.5 8.675781 -11.886719 C 6.277344 -8.933594 4.550781 -6.226562 3.507812 -3.992188 C 2.449219 -1.703125 2.5 0.0742188 3.710938 1.183594 C 3.976562 1.625 4.132812 1.679688 4.433594 1.835938 C 6.773438 2.738281 8.324219 1.085938 10.210938 -1.21875 C 13.191406 -4.507812 17.070312 -9.253906 26.328125 -7.09375 Z M 26.292969 -7.515625 C 16.859375 -9.675781 12.890625 -4.839844 9.824219 -1.464844 C 8.167969 0.679688 6.703125 2.246094 4.644531 1.378906 C 4.433594 1.132812 4.277344 1.078125 3.996094 0.867188 C 2.871094 0.0195312 3.046875 -1.738281 3.878906 -3.867188 C 4.902344 -6.050781 6.613281 -8.703125 9.011719 -11.660156 C 13.277344 -17.039062 19.269531 -23.015625 24.578125 -28.167969 Z M 26.292969 -7.515625 "/></g></g></g><g fill="#f2f2f2" fill-opacity="1"><g transform="translate(138.37654, 332.081559)"><g><path d="M 26.382812 -4.664062 C 23.574219 0.625 20.460938 2.386719 15.722656 1.726562 L 6.402344 0.4375 L 11.734375 -38.050781 L 7.324219 -38.660156 L 1.929688 0.265625 L 23.929688 3.316406 Z M 26.382812 -4.664062 "/></g></g></g><g fill="#f2f2f2" fill-opacity="1"><g transform="translate(167.002894, 335.463924)"><g><path d="M 1.945312 0.0664062 L 6.121094 0.203125 L 7.425781 -39.074219 L 3.253906 -39.214844 Z M 1.945312 0.0664062 "/></g></g></g><g fill="#f2f2f2" fill-opacity="1"><g transform="translate(176.68944, 336.405773)"><g><path d="M -1.40625 -39.324219 L 1.941406 -0.164062 L 6.101562 -0.523438 L 2.785156 -39.289062 C 8.777344 -39.804688 13.597656 -35.691406 17.464844 -29.652344 C 22.257812 -21.960938 25.257812 -11.042969 26.011719 -2.222656 L 30.171875 -2.578125 L 26.824219 -41.738281 L 22.664062 -41.382812 L 25.386719 -9.542969 C 23.941406 -16.628906 21.457031 -24.125 17.667969 -29.890625 C 13.902344 -36.050781 8.800781 -40.195312 2.753906 -39.679688 Z M -1.40625 -39.324219 "/></g></g></g><g fill="#f2f2f2" fill-opacity="1"><g transform="translate(211.574423, 333.335678)"><g><path d="M 14.046875 -4.132812 C 24.246094 -7.132812 30.285156 -17.960938 27.207031 -28.429688 C 24.109375 -38.949219 13.152344 -44.835938 2.953125 -41.835938 L -9.222656 -38.253906 L 1.867188 -0.550781 Z M -4.945312 -39.105469 L 3.0625 -41.460938 C 11.234375 -43.863281 20.253906 -37.464844 23.253906 -27.265625 C 26.253906 -17.066406 22.089844 -6.960938 13.917969 -4.558594 L 5.910156 -2.203125 Z M -4.945312 -39.105469 "/></g></g></g><g fill="#f2f2f2" fill-opacity="1"><g transform="translate(247.516723, 321.699798)"><g><path d="M 1.78125 -0.789062 L 5.601562 -2.472656 L -10.277344 -38.425781 L -14.097656 -36.738281 Z M 1.78125 -0.789062 "/></g></g></g><g fill="#f2f2f2" fill-opacity="1"><g transform="translate(256.853205, 318.421142)"><g><path d="M 24.808594 -15.019531 L 28.808594 -17.441406 L -5.78125 -42.441406 L -6.117188 -42.238281 C -6.015625 -33.90625 -5.054688 -22.644531 -3.457031 -14.304688 C -2.753906 -10.566406 -1.804688 -7.496094 -0.773438 -5.257812 C 0.285156 -2.96875 1.671875 -1.859375 3.304688 -2.066406 C 3.8125 -1.980469 3.953125 -2.066406 4.269531 -2.195312 C 6.46875 -3.394531 6.210938 -5.648438 5.675781 -8.578125 C 5.09375 -12.976562 3.980469 -19.003906 11.617188 -24.667969 Z M 11.269531 -24.914062 C 3.523438 -19.117188 4.644531 -12.964844 5.234375 -8.441406 C 5.800781 -5.789062 6.046875 -3.660156 4.054688 -2.652344 C 3.730469 -2.648438 3.589844 -2.5625 3.246094 -2.484375 C 1.871094 -2.175781 0.644531 -3.449219 -0.441406 -5.457031 C -1.441406 -7.652344 -2.363281 -10.671875 -3.066406 -14.414062 C -4.410156 -21.148438 -5.089844 -29.585938 -5.589844 -36.960938 Z M 11.269531 -24.914062 "/></g></g></g></svg>