<svg xmlns="http://www.w3.org/2000/svg" width="760.554" height="493.87" xmlns:v="https://vecta.io/nano"><path d="M760.554 231.87c.002 40.752-31.368 74.637-72 77.77l-2 .13v-74.03a4.96 4.96 0 0 0-1.84-3.86c-.066-.068-.14-.129-.22-.18a1.86 1.86 0 0 0-.23-.16 5 5 0 0 0-4.77-.35l-.83-1.82c.908-.413 1.893-.628 2.89-.63l-56.96-49.07a62.61 62.61 0 0 1 1.36-1.48 78.01 78.01 0 0 1 134.6 53.68z" fill="#f2f2f2"/><path d="M19.778 285.056c-.573-2.93.18-5.963 2.058-8.283a10.09 10.09 0 0 1 7.672-3.74L74.47 219.51l11.225 14.352-45.823 49.812c-.254 5.133-4.307 9.264-9.433 9.617s-9.707-3.185-10.661-8.234zm213.509-65.878a10.44 10.44 0 0 0-.832 1.433l-49.094 7.018-7.455-9.465-15.754 9.384 14.809 23.089 59.875-17.65c3.235 2.929 7.945 3.55 11.829 1.56s6.132-6.175 5.645-10.511a10.5 10.5 0 0 0-7.833-9c-4.228-1.08-8.683.569-11.189 4.141zm-83.861 178.831l8.688 8.65 37.5-29.392-12.822-12.767-33.366 33.509z" fill="#ffb8b8"/><path d="M166.836 431.409l-27.304-27.187h0l10.504-10.549h0l16.755 16.683a14.89 14.89 0 0 1 .045 21.053h0 0z" fill="#2f2e41"/><path fill="#ffb8b8" d="M103.246 480.98h12.26l5.832-47.288h-18.094l.002 47.288z"/><path d="M139.15 492.363l-38.531.002h0l-.001-14.887h0l23.644-.001a14.89 14.89 0 0 1 10.527 4.36c2.792 2.792 4.361 6.578 4.361 10.526h0 0zm-38.569-47.906L86.616 341.47a128.95 128.95 0 0 1 2.001-46.716c2.866-12.312 6.737-20.84 11.507-25.347a4.72 4.72 0 0 1 2.743-1.253l46.106-4.803c1.813-.185 3.57.693 4.51 2.254l1.516 2.526a4.7 4.7 0 0 1 .442.974l9.748 30.22c.294.922.945 1.688 1.808 2.126 15.348 7.836 65.203 34.288 62.35 45.7-2.681 10.723-27.779 28.11-35.408 33.183a4.66 4.66 0 0 1-5.24-.04l-12.663-8.664c-1.254-.859-2.015-2.271-2.042-3.791s.685-2.958 1.908-3.86l8.733-6.434a3.65 3.65 0 0 0-.957-6.384l-46.898-16.456a3.65 3.65 0 0 0-4.846 3.147l-8.647 105.688c-.197 2.343-2.094 4.181-4.443 4.304l-13.379.669a4.86 4.86 0 0 1-.243.006c-2.349.009-4.339-1.732-4.642-4.062z" fill="#2f2e41"/><circle cx="121.726" cy="153.524" r="24.561" fill="#ffb8b8"/><g fill="#ccc"><path d="M98.754 265.2l-18.079-65.965.31-.209c.388-.262 39.356-25.993 84.98-5.257l.827.475-10.713 68.467c-.482 3.223-3.188 5.649-6.444 5.777l-44.083 1.696-.266.005a6.75 6.75 0 0 1-6.532-4.988z"/><path d="M79.987 242.179L64.93 224.864c-1.497-1.717-1.542-4.263-.106-6.032l15.741-19.445 12.083 3.296 6.406 22.422-11.681 16.687c-.826 1.187-2.155 1.924-3.599 1.995l-.252.006a4.66 4.66 0 0 1-3.535-1.613zm83.265-3.607c-1.444-.071-2.773-.808-3.599-1.995l-11.681-16.687 5.618-23.602 11.125-3.034 2.076.991 15.41 19.374c1.436 1.769 1.391 4.315-.106 6.032l-15.057 17.315a4.66 4.66 0 0 1-3.535 1.613l-.252-.006z"/></g><path d="M686.554 230.84a.98.98 0 0 1-.24.68 1 1 0 0 1-1.41.11l-3.35-2.89-56.96-49.07-159.76-137.65a5.02 5.02 0 0 0-6.54.01l-215.14 186.91-1.94 1.68c-.075.066-.159.12-.25.16a1 1 0 0 1-.51.08c-.25-.027-.481-.144-.65-.33-.175-.199-.265-.459-.248-.724s.138-.512.338-.686l.27-.24 216.82-188.36a7.05 7.05 0 0 1 9.16-.02l159.81 137.69 60.25 51.92c.213.184.34.449.35.73z" fill="#3f3d56"/><path d="M565.084 260.37l-2.63-7.24-9.06-25-19.52-53.83-21.82-60.17L472.703 5.6a8.52 8.52 0 0 0-10.89-5.09L234.304 83c-4.408 1.607-6.684 6.478-5.09 10.89l55.79 153.86.95 2.63 58.56 26.54 16.46 7.46 2.67 1.21 69.69 31.59 2.7-.98 45.71-16.57 68.95-25 9.29-3.37a8.52 8.52 0 0 0 5.1-10.89z" fill="#e6e6e6"/><path d="M469.683 132.21c-2.363-6.485-9.528-9.835-16.02-7.49l-90.02 32.65-43.47 15.76a12.5 12.5 0 0 0-3.794 21.321 12.5 12.5 0 0 0 12.314 2.179l34.95-12.67 98.55-35.73c6.485-2.363 9.835-9.528 7.49-16.02zm15.851 43.72c-2.363-6.485-9.528-9.835-16.02-7.49l-15.25 5.53-90.62 32.86-27.62 10.01c-6.486 2.357-9.835 9.523-7.484 16.011s9.514 9.844 16.004 7.499l19.1-6.93 114.4-41.48c.26-.09.51-.2.76-.31a12.5 12.5 0 0 0 6.73-15.7zm16.02 44.18c-2.358-6.484-9.521-9.835-16.01-7.49l-42.77 15.51-33.11 12.01-46.02 16.68-11.6 4.21a12.53 12.53 0 0 0-8.13 13.42c.115.842.316 1.669.6 2.47l16.46 7.46 2.67-.97h.02l83.51-30.28 46.89-17c6.49-2.358 9.842-9.528 7.49-16.02zm-93.73-130.88c-2.363-6.485-9.528-9.835-16.02-7.49l-51.7 18.74c-6.486 2.357-9.835 9.523-7.484 16.011s9.514 9.844 16.004 7.499l16.36-5.93 10.83-3.93 24.521-8.89c6.484-2.358 9.835-9.521 7.49-16.01z" fill="#fff"/><path d="M614.143 114.13h-242a8.5 8.5 0 0 0-7.16 3.93c-.878 1.362-1.343 2.949-1.34 4.57v162.96l69.69 31.59 9.82 4.45 15.51 7.03a7.02 7.02 0 0 0 5.78 0l15.51-7.03 48.54-22 45.24-20.51 48.91-22.16V122.63a8.51 8.51 0 0 0-8.5-8.5z" fill="#0ff"/><path d="M564.143 228.13h-142a12.5 12.5 0 0 0-12.48 12.01 4.01 4.01 0 0 0-.02.49 12.52 12.52 0 0 0 12.5 12.5h142c6.904 0 12.5-5.596 12.5-12.5s-5.596-12.5-12.5-12.5zm8.091 49.48a12.41 12.41 0 0 0-8.09-2.98h-142c-6.904 0-12.5 5.596-12.5 12.5s5.596 12.5 12.5 12.5h106.35l45.24-20.51a12.51 12.51 0 0 0-1.5-1.51zm-129.08 44.02l15.51 7.03a7.02 7.02 0 0 0 5.78 0l15.51-7.03zm89.23-146.79c-1.803-4.929-6.492-8.208-11.74-8.21h-55a12.51 12.51 0 0 0-11.38 7.34 12.36 12.36 0 0 0-1.12 5.16 12.52 12.52 0 0 0 12.5 12.5h55a12.5 12.5 0 0 0 11.74-16.79z" fill="#fff"/><path d="M523.643 299.63l-48.54 22-11.49 5.21c-1.31.59-2.81.59-4.12 0l-11.49-5.21h-4.85l15.51 7.03a7.02 7.02 0 0 0 5.78 0l15.51-7.03 48.54-22zm0 0l-48.54 22-11.49 5.21c-1.31.59-2.81.59-4.12 0l-11.49-5.21h-4.85l15.51 7.03a7.02 7.02 0 0 0 5.78 0l15.51-7.03 48.54-22zm0 0l-48.54 22-11.49 5.21c-1.31.59-2.81.59-4.12 0l-11.49-5.21h-4.85l15.51 7.03a7.02 7.02 0 0 0 5.78 0l15.51-7.03 48.54-22zm162.91-68.79a7.64 7.64 0 0 0-1.21-.98 6.96 6.96 0 0 0-6.68-.49l-106.43 48.24-48.59 22.02-48.54 22-11.49 5.21c-1.31.59-2.81.59-4.12 0l-11.49-5.21-11.97-5.43-72.37-32.79-.02-.01-19.73-8.95-58.91-26.7-40.56-18.38a6.11 6.11 0 0 0-1.29-.43 6.71 6.71 0 0 0-2.99-.06 7.02 7.02 0 0 0-5.61 6.86v251.13a7.01 7.01 0 0 0 7 7h440a7.01 7.01 0 0 0 7-7V235.74a6.97 6.97 0 0 0-2-4.9zm0 256.03c-.001 2.761-2.239 4.999-5 5h-440c-2.761-.001-4.999-2.239-5-5V235.74a5 5 0 0 1 2.29-4.2 5.17 5.17 0 0 1 1.61-.68 4.51 4.51 0 0 1 .51-.08 3.9 3.9 0 0 1 .59-.04 4.97 4.97 0 0 1 2.06.45l42.34 19.19 58.56 26.54 16.46 7.46 2.67 1.21 69.69 31.59 9.82 4.45 15.51 7.03a7.02 7.02 0 0 0 5.78 0l15.51-7.03 48.54-22 45.24-20.51 105.76-47.93a5 5 0 0 1 4.77.35 1.86 1.86 0 0 1 .23.16c.08.051.154.112.22.18a4.96 4.96 0 0 1 1.84 3.86zm-162.91-187.24l-48.54 22-11.49 5.21c-1.31.59-2.81.59-4.12 0l-11.49-5.21h-4.85l15.51 7.03a7.02 7.02 0 0 0 5.78 0l15.51-7.03 48.54-22zm0 0l-48.54 22-11.49 5.21c-1.31.59-2.81.59-4.12 0l-11.49-5.21h-4.85l15.51 7.03a7.02 7.02 0 0 0 5.78 0l15.51-7.03 48.54-22zm-162.67-15.25l2.67 1.21v-2.18zm162.67 15.25l-48.54 22-11.49 5.21c-1.31.59-2.81.59-4.12 0l-11.49-5.21h-4.85l15.51 7.03a7.02 7.02 0 0 0 5.78 0l15.51-7.03 48.54-22zM175.526 493.87h-113a1 1 0 1 1 0-2h113a1 1 0 1 1 0 2z" fill="#3f3d56"/><g fill="#2f2e41"><path d="M112.388 171.486a10.7 10.7 0 0 1 .99-19.527c7.411-2.86 15.72 2.977 23.489 1.317 7.743-1.654 12.223-10.911 10.374-18.611s-8.575-13.499-15.993-16.268a34.48 34.48 0 0 0-29.741 2.726 31.75 31.75 0 0 0-14.945 25.634 29.44 29.44 0 0 0 14.244 25.791c1.975 1.138 4.273 2.052 6.494 1.54a18.1 18.1 0 0 0 5.088-2.601z"/><path d="M104.428 120.524c-6.535-8.668-15.358-15.79-25.624-19.32s-21.997-3.247-31.639 1.742-16.832 14.899-17.582 25.729c-1.249 18.025 14.152 33.346 15.733 51.345 1.018 11.589-3.869 22.912-13.001 30.12S11.036 219.474 0 215.793a36.35 36.35 0 0 0 28.017 7.951c10.04-1.507 18.87-7.449 24.047-16.181 3.466-6.023 4.89-13.018 5.442-19.945a88.62 88.62 0 0 0-3.468-32.493c-1.728-5.741-4.07-11.649-2.975-17.544 1.276-6.267 6.17-11.168 12.435-12.454 4.953-.928 10.018.584 14.747 2.323s9.498 3.753 14.536 3.868 10.526-2.191 12.473-6.839z"/></g></svg>