<svg xmlns="http://www.w3.org/2000/svg" width="562.675" height="591.739" xmlns:v="https://vecta.io/nano"><style><![CDATA[.B{fill:#2f2e41}.C{fill:#ffb6b6}]]></style><g fill="#f2f2f2"><circle cx="182.653" cy="58" r="58"/><circle cx="58.653" cy="209" r="58"/><circle cx="181.653" cy="370" r="58"/><path d="M415.458 564.738c1.516.07 2.914-.815 3.499-2.216s.234-3.017-.881-4.047l-.248-.984q.049-.118.098-.236c1.524-3.601 5.061-5.935 8.971-5.92s7.429 2.375 8.927 5.987c2.927 7.051 6.654 14.113 7.572 21.568.404 3.295.234 6.635-.504 9.872 6.876-14.998 10.446-31.3 10.469-47.799a111.08 111.08 0 0 0-.689-12.392q-.571-5.06-1.584-10.047a116.42 116.42 0 0 0-23.087-49.342c-5.561-3.034-10.058-7.7-12.886-13.369-1.024-2.038-1.748-4.213-2.149-6.458a29.36 29.36 0 0 0 1.892.175l.596.031.074.003a3.58 3.58 0 0 0 2.94-5.832q-.406-.5-.813-.999l-1.244-1.532a1.78 1.78 0 0 1-.134-.154l-1.419-1.748a10.35 10.35 0 0 1 3.394-3.28c4.741-2.777 11.281-.854 14.706 3.435 3.435 4.288 4.083 10.304 2.89 15.662-1.173 4.559-3.114 8.885-5.738 12.793l.782.977a117.17 117.17 0 0 1 12.23 19.375 48.71 48.71 0 0 1 2.908-22.624c2.783-6.715 8.001-12.37 12.595-18.175 5.519-6.973 16.835-3.93 17.807 4.909q.014.128.028.257-1.024.577-2.004 1.226a4.9 4.9 0 0 0 1.976 8.919l.1.015c-.243 2.459-.673 4.897-1.285 7.291a50.21 50.21 0 0 1-25 31.468l-1.193.607c3.45 9.777 5.614 19.961 6.438 30.296.466 6.097.439 12.222-.082 18.315l.031-.216c1.316-6.775 4.931-12.889 10.232-17.308 7.874-6.469 18.999-8.851 27.494-14.05 1.843-1.184 4.206-1.189 6.055-.015s2.848 3.316 2.56 5.487q-.017.114-.035.227c-1.266.516-2.499 1.11-3.692 1.779q-1.024.578-2.004 1.226a4.9 4.9 0 0 0 1.976 8.919l.1.015.206.031a48.81 48.81 0 0 1-8.978 14.058c-9.43 10.119-22.614 15.904-36.446 15.991h-.01c-1.858 8.073-4.549 15.931-8.032 23.447h-28.692c-.103-.319-.195-.648-.288-.967a32.6 32.6 0 0 0 7.939-.473l-6.386-7.857c-.047-.049-.092-.1-.134-.154l-3.25-4-.001-.002a47.75 47.75 0 0 1 1.399-12.164z"/></g><path d="M190.958 224.739a9.86 9.86 0 0 0 13.887 5.981l25.476 23.25 3.383-17.893-24.727-19.278c-2.553-4.326-7.939-6.059-12.536-4.033s-6.952 7.169-5.483 11.973z" class="C"/><path d="M279.628 206.968s8.883-20.075 20.103-16.085c10.305 3.665 11.675 2.46 5.427 23.468l-42.152 63.518s-44.335-28.177-36.942-28.452 7.193-14.386 7.193-14.386l18.081 5.895 1.087-5.716 1.743 1.743 4.497-3.539z" fill="#0ff"/><path d="M330.231 254.446l-1.874 17.381 1.103 22.793-47.807-5.62-3.422-34.554 6.044.059 45.956-.059zm9.186 315.574h-11.038L317.653 487h25l-3.236 83.02z" class="C"/><path d="M342.653 503.02V521s-15.9 14.23-27 1l-6.92-58.62s-.17-5.49-3.6-8.75a4.68 4.68 0 0 1-.76-.94c-2.48-3.83-1.47-11.75-1.47-11.75s-4.82-2.6-6.34-11-6.52-26.75-6.52-26.75-10.33-27.09-9.61-44.24c.13-3.17.18-6.06.18-8.66-.03-11.48-1.18-17.41-1.18-17.41l-2.09-39.84 4.31-6.04 19.71.58 1.34-.04.49-.01 20.24-.61 11.43 6.72 2.46 6.05c2.69 6.51 6.83 16.36 8.66 19.67 2.82 5.1 1.42 31.34-8.18 43 0 0-3.99 5.67-2.94 7.72.95 1.86.04 5.01-.14 5.57v.01c-.02.05-.03.08-.03.08l-1.53 34s0 14.57 3.43 19.89 6.06 72.39 6.06 72.39zm2.59 86.124h-7.916l-1.413-7.473-3.619 7.473h-20.994a4.72 4.72 0 0 1-2.682-8.603l16.765-11.579v-7.555l17.634 1.053z" class="B"/><path d="M274.158 570.237l-10.865-1.947 4.091-83.61 24.608 4.411-17.834 81.146z" class="C"/><path d="M337.803 363.36s-3.99 5.67-2.94 7.72c.95 1.86.04 5.01-.14 5.57v.01c-1.102.871-2.269 1.656-3.49 2.35 0 0-5.78 3.84-5.54 6.13.23 2.29-2.22 5.21-2.22 5.21l-13.77 31.12s-5.3 13.58-4.03 19.78c.39 1.9-.24 6.69-1.3 12.44l-10.95 58.91-6.77 16.4s-25.33-7.03-26-9c0 0 9-63.54 6.99-67.82s-1.02-16.81.62-25.18c1.63-8.38 3.86-56.29 10.76-72l1.59-3.71c5.57-13.41 6.95-20.95 6.95-20.95l12.52-37.87 1.28-3.89.29 1.42 1.54-1.47 22.52 8.02 11.61 4.14c2.69 6.51 6.83 16.36 8.66 19.67 2.82 5.1 1.42 31.34-8.18 43zm-61.976 199.292l-12.123-2.923-1.84-.443-1.329 7.437-18.549 8.442a4.71 4.71 0 0 0 1.126 8.931l20.656 3.71 4.884-6.72.071 7.61 7.795 1.39 2.518-26.659z" class="B"/><path d="M561.485 591.739H1.191a1.19 1.19 0 0 1-1.187-1.191 1.19 1.19 0 0 1 1.187-1.191h560.294a1.19 1.19 0 1 1 0 2.381z" fill="#ccc"/><circle cx="308.891" cy="155.163" r="22.048" fill="#ffb7b7"/><path d="M286.274 197.321l11.996-7.198 5.383-9.123h14l4.61 6.724 21.206 10.799-.213 32.988-9.603 49.49-55-16-3.374-18.542s-19.595-20.946-2.8-32.942z" fill="#0ff"/><path d="M337.624 339.751a9.16 9.16 0 0 0 2.031-13.894l7.736-83.047-19.856 1.534-1.361 81.15a9.21 9.21 0 0 0 11.45 14.257z" class="C"/><path d="M343.653 198s0 1 3.313 10.388c2.838 8.042 7.86 57.446-1.939 69.504 2.732 1.683-1.376 32.903-2.373 36.109l-20-5c-2.698-4.637.174-37.185 2.135-37.957l-.115-14.82-5.118-48.851 19.71-8.074z" fill="#0ff"/><path d="M202.267 237.302l-5.044-32.329a4.23 4.23 0 0 1 3.521-4.823l7.046-1.099a4.23 4.23 0 0 1 4.823 3.521l5.044 32.329a4.23 4.23 0 0 1-3.521 4.823l-7.046 1.099a4.23 4.23 0 0 1-4.823-3.521z" fill="#3f3d56"/><path d="M201.826 201.67a2.28 2.28 0 0 0-1.897 2.599l5.044 32.329a2.28 2.28 0 0 0 2.599 1.897l7.046-1.099a2.28 2.28 0 0 0 1.897-2.599l-5.044-32.329a2.28 2.28 0 0 0-2.599-1.897z" fill="#0ff"/><g class="B"><path d="M341.653 165.291v2.472A11.95 11.95 0 0 1 329.4 179.71l-16.239-.515c-.19-1.608-.721-3.157-1.557-4.543a10.73 10.73 0 0 1-.631 4.491l-7.183-.179c5.695-12.551 7.916-23.22 0-28.397h-10.643a11.45 11.45 0 0 0-1.525-4.312 10.55 10.55 0 0 1-.568 4.312h-10.402c.003-11.035 8.948-19.98 19.983-19.983h3.155c23.79-5.984 36.348 6.805 37.862 34.707zM99.589 233.442a12.61 12.61 0 0 1-12.608-12.608 12.61 12.61 0 0 1 12.608-12.608 12.61 12.61 0 0 1 12.608 12.608c-.008 6.96-5.648 12.601-12.608 12.608zm0-22.925c-4.172 0-7.934 2.513-9.531 6.368s-.714 8.292 2.236 11.242 7.387 3.833 11.242 2.236 6.368-5.358 6.368-9.531a10.33 10.33 0 0 0-10.316-10.316zm0 28.083c-7.186 0-13.664-4.329-16.414-10.968a17.77 17.77 0 0 1 23.213-23.213c6.639 2.75 10.968 9.228 10.968 16.414A17.79 17.79 0 0 1 99.589 238.6zm0-33.241c-6.259 0-11.901 3.77-14.296 9.552s-1.071 12.438 3.354 16.863 11.081 5.749 16.863 3.354 9.552-8.037 9.552-14.296c-.01-8.542-6.932-15.464-15.474-15.474zm0 52.727c-15.067 0-28.651-9.076-34.417-22.996s-2.579-29.943 8.075-40.597 26.677-13.841 40.597-8.075 22.997 19.35 22.997 34.417c-.023 20.564-16.688 37.229-37.252 37.252zm0-72.212a34.96 34.96 0 1 0 34.96 34.96c-.022-19.299-15.661-34.938-34.96-34.96z"/><path d="M68.006 202.261l1.96-1.189 14.856 24.494-1.96 1.189zm28.164 54.117l13.146-23.409 1.999 1.123-13.146 23.409zm7.024-52.911l28.44-.403.032 2.292-28.44.403zm40.491 149.35l-1.231-1.934a19.43 19.43 0 0 1 10.264-3.036l.022 2.292a17.15 17.15 0 0 0-9.055 2.678zm10.719 51.181c-15.598.149-29.585-9.583-34.866-24.261s-.701-31.09 11.417-40.913l1.444 1.781c-14.726 11.937-17.015 33.54-5.116 48.297s33.496 17.1 48.284 5.239 17.186-33.453 5.363-48.27l1.791-1.431c5.136 6.39 7.958 14.33 8.008 22.529.172 20.247-16.078 36.813-36.325 37.03z"/><path d="M139.358 370.166l-2.199-.648a8.82 8.82 0 0 1 6.321-6.159l.184-.022 6.87-.265 2.634-3.211-2.025-.653-9.847-7.239-.073-7.601-10.25 6.976-.111-11.541 2.292-.022.07 7.258 10.25-6.976.103 10.738 8.624 6.339 4.874 1.573-5.422 6.61-7.79.301a6.54 6.54 0 0 0-4.505 4.543zm46.806-10.333l-21.519-30.308c-10.845 2.769-11.25 19.321-11.253 19.492l-2.292-.038c.013-.787.476-19.304 13.823-21.863l.723-.139 15.651 22.044-1.075-4.628 2.233-.518z"/><path d="M153.644 384.519c-8.594.035-15.815-6.449-16.701-14.998l2.281-.221a14.33 14.33 0 0 0 28.587-1.538c-.029-5.016-2.696-9.647-7.02-12.189l-5.042-2.996 9.914 1.499c-3.625-2.916-8.233-4.326-12.869-3.939l-.131-2.289c11.497-.661 16.895 6.892 17.119 7.213l1.519 2.186-5.838-.883a16.63 16.63 0 0 1-11.821 28.154zM183.63 50.481l-.539-.539c-14.37-14.049-37.37-13.913-51.573.305s-14.313 37.219-.248 51.573a21.28 21.28 0 0 0 .504.516c14.354 14.114 37.403 14.017 51.637-.218s14.332-37.283.218-51.637zm-26.157 60.085c-8.848.008-17.355-3.41-23.738-9.537a20.97 20.97 0 0 1-1.123-1.135c-12.904-13.496-12.668-34.827.532-48.033s34.531-13.453 48.033-.555q.585.55 1.135 1.135a34.36 34.36 0 0 1-24.839 58.125z"/><path d="M183.092 49.942l-1.914 1.364-28.037 19.864-1.077.756-19.452 27.968-1.341 1.926.504.516 1.96-1.307 28.037-18.695 1.112-.745 19.429-29.149 1.318-1.96-.539-.539zm-21.262 29.103l-.596.894-1.055.699-21.24 14.156 14.156-20.346.619-.894 1.02-.722 21.274-15.061z"/><path d="M152.132 73.601l1.51-1.725 9.17 8.024-1.51 1.725zm3.622-30.089h2.292v5.37h-2.292zm0 58.457h2.292v5.37h-2.292z"/></g><path d="M155.754 43.512h2.292v5.37h-2.292zm0 58.457h2.292v5.37h-2.292z"/><path d="M165.694 50.355l1.993-4.987 2.129.851-1.993 4.987zm-21.709 54.277l1.993-4.987 2.129.851-1.993 4.987z" class="B"/><path d="M165.694 50.355l1.993-4.987 2.129.851-1.993 4.987zm-21.709 54.277l1.993-4.987 2.129.851-1.993 4.987z"/><path d="M171.685 53.351l3.178-4.329 1.848 1.357-3.178 4.329zm-34.595 47.122l3.178-4.329 1.848 1.357-3.178 4.329z" class="B"/><path d="M171.685 53.351l3.178-4.329 1.848 1.357-3.178 4.329zm-34.595 47.122l3.178-4.329 1.848 1.357-3.178 4.329z"/><path d="M178.348 59.745l4.468-2.979 1.272 1.907-4.468 2.979zm-48.635 32.433l4.468-2.979 1.272 1.907-4.468 2.979z" class="B"/><path d="M178.348 59.745l4.468-2.979 1.272 1.907-4.468 2.979zm-48.635 32.433l4.468-2.979 1.272 1.907-4.468 2.979z"/><path d="M181.784 66.116l5.107-1.663.71 2.179-5.107 1.663zm-55.582 18.102l5.107-1.663.71 2.179-5.107 1.663z" class="B"/><path d="M181.784 66.116l5.107-1.663.71 2.179-5.107 1.663zm-55.582 18.102l5.107-1.663.71 2.179-5.107 1.663z"/><path d="M183.417 73.775l5.369-.102.044 2.292-5.369.102zm-58.447 1.111l5.369-.102.044 2.292-5.369.102z" class="B"/><path d="M183.417 73.775l5.369-.102.044 2.292-5.369.102zm-58.447 1.111l5.369-.102.044 2.292-5.369.102z"/><path d="M182.528 82.432l.508-2.235 5.236 1.191-.508 2.235zm-57.001-12.968l.508-2.235 5.236 1.191-.508 2.235z" class="B"/><path d="M182.528 82.432l.508-2.235 5.236 1.191-.508 2.235zm-57.001-12.968l.508-2.235 5.236 1.191-.508 2.235z"/><path d="M180.005 88.542l1.045-2.041 4.78 2.447-1.045 2.041zM127.97 61.903l1.045-2.041 4.78 2.447-1.045 2.041z" class="B"/><path d="M180.005 88.542l1.045-2.041 4.78 2.447-1.045 2.041zM127.97 61.903l1.045-2.041 4.78 2.447-1.045 2.041z"/><path d="M176.431 93.437l1.48-1.751 4.101 3.467-1.48 1.751zm-44.643-37.74l1.48-1.751 4.101 3.467-1.48 1.751z" class="B"/><path d="M176.431 93.437l1.48-1.751 4.101 3.467-1.48 1.751zm-44.643-37.74l1.48-1.751 4.101 3.467-1.48 1.751z"/><path d="M172.12 97.202l1.821-1.393 3.263 4.265-1.821 1.393zm-35.524-46.425l1.821-1.393 3.263 4.265-1.821 1.393z" class="B"/><path d="M172.12 97.202l1.821-1.393 3.263 4.265-1.821 1.393zm-35.524-46.425l1.821-1.393 3.263 4.265-1.821 1.393z"/><path d="M167.164 99.931l2.074-.976 2.286 4.859-2.074.976zm-24.888-52.894l2.074-.976 2.286 4.859-2.074.976z" class="B"/><path d="M167.164 99.931l2.074-.976 2.286 4.859-2.074.976zm-24.888-52.894l2.074-.976 2.286 4.859-2.074.976z"/><path d="M161.263 101.634l2.243-.474 1.109 5.254-2.243.474zm-12.078-57.197l2.243-.474 1.109 5.254-2.243.474z" class="B"/><path d="M161.263 101.634l2.243-.474 1.109 5.254-2.243.474zm-12.078-57.197l2.243-.474 1.109 5.254-2.243.474z"/><path d="M149.692 106.536l1.023-5.272 2.25.437-1.023 5.272zm11.144-57.385l1.023-5.272 2.25.437-1.023 5.272z" class="B"/><path d="M149.692 106.536l1.023-5.272 2.25.437-1.023 5.272zm11.144-57.385l1.023-5.272 2.25.437-1.023 5.272z"/></svg>