<svg xmlns="http://www.w3.org/2000/svg" xmlns:xlink="http://www.w3.org/1999/xlink" width="933.351" height="538.011" xmlns:v="https://vecta.io/nano"><style><![CDATA[.B{fill:#2f2e41}.C{fill:#a0616a}.D{fill:#ffb6b6}.E{fill:#3f3d56}]]></style><path d="M86.391 420.272c-1.516.07-2.914-.815-3.499-2.216s-.234-3.017.881-4.047l.248-.984q-.049-.118-.098-.236c-1.524-3.601-5.061-5.935-8.971-5.92s-7.429 2.375-8.927 5.987c-2.927 7.051-6.654 14.113-7.572 21.568-.404 3.295-.234 6.635.504 9.872-6.876-14.998-10.446-31.3-10.469-47.799a111.08 111.08 0 0 1 .689-12.392q.571-5.06 1.584-10.047a116.42 116.42 0 0 1 23.087-49.342 30.98 30.98 0 0 0 12.886-13.369c1.024-2.038 1.748-4.213 2.149-6.458-.627.082-1.265.134-1.892.175l-.597.031-.074.003a3.58 3.58 0 0 1-2.94-5.832q.406-.5.813-.999l1.244-1.532c.047-.049.092-.1.134-.154l1.419-1.748a10.35 10.35 0 0 0-3.394-3.28c-4.741-2.777-11.281-.854-14.706 3.435-3.435 4.288-4.083 10.304-2.89 15.662 1.173 4.559 3.114 8.885 5.738 12.793l-.782.977a117.17 117.17 0 0 0-12.23 19.375 48.71 48.71 0 0 0-2.908-22.624c-2.783-6.715-8.001-12.37-12.595-18.175-5.519-6.973-16.835-3.93-17.807 4.909q-.014.128-.028.257 1.024.577 2.004 1.226a4.9 4.9 0 0 1-1.976 8.919l-.1.015c.243 2.459.673 4.897 1.285 7.291a50.21 50.21 0 0 0 25 31.468l1.193.607a119.6 119.6 0 0 0-6.438 30.296c-.466 6.097-.439 12.222.082 18.315l-.031-.216c-1.316-6.775-4.931-12.889-10.232-17.308-7.874-6.469-18.999-8.851-27.494-14.05-1.843-1.184-4.206-1.189-6.055-.015s-2.848 3.316-2.56 5.487q.017.114.035.227a32.93 32.93 0 0 1 3.692 1.779q1.024.578 2.004 1.226a4.9 4.9 0 0 1-1.976 8.919l-.1.015-.206.031a48.81 48.81 0 0 0 8.978 14.058c9.43 10.119 22.614 15.904 36.446 15.991h.01c1.858 8.073 4.549 15.931 8.032 23.447h28.692c.103-.319.195-.648.288-.967a32.6 32.6 0 0 1-7.939-.473l6.386-7.857a1.78 1.78 0 0 0 .134-.154l3.25-4 .001-.002a47.75 47.75 0 0 0-1.399-12.164z" fill="#f2f2f2"/><path d="M439.755 446.277c.001.316-.124.619-.348.843s-.527.348-.843.347H1.275a1.19 1.19 0 0 1 0-2.38h437.29c.316-.001.619.124.843.347s.348.527.348.843z" fill="#ccc"/><path d="M206.366 289.309a7.34 7.34 0 0 1 4.118 10.475l10.527 13.06-6.376 8.333-14.606-18.652a7.38 7.38 0 0 1 6.339-13.216z" class="C"/><path d="M211.073 324.881l-5.945-14.79 10.998-7.81 5.141 9.213 7.507 5.12 9.971 8.855c2.703-2.22 23.442-18.84 30.076-11.774a7.84 7.84 0 0 1 2.322 6.129c-.414 5.379-6.118 9.894-6.334 10.06l-12.591 11.822c-.47.801-5.418 9.036-11.074 10.469a6.04 6.04 0 0 1-4.806-.708c-12.871-7.903-21.1-15.681-24.123-22.739-.538-1.231-.922-2.523-1.142-3.848z" class="B"/><path d="M204.841 518.444l-9.684.452-6.354-37.136 14.293-.668 1.745 37.352z" class="C"/><path d="M210.033 536.629l-6.872.321-1.53-6.43-2.838 6.634-18.225.852a4.1 4.1 0 0 1-2.677-7.359l14.084-10.732-.307-6.559 15.351.198z" class="B"/><path d="M103.735 438.707l-3.528-9.029 33.151-17.905 16.746 10.526-46.369 16.408z" class="C"/><g class="B"><path d="M88.168 449.446l-2.504-6.407 5.602-3.507-7.194-.565-6.64-16.994a4.1 4.1 0 0 1 6.115-4.892l14.675 9.908 6.116-2.39 4.725 14.607zm206.01-37.613s-4.022 25.676-23.033 27.577-36.536-6.664-36.536-6.664l-53.232-16.394-66.126 18.622s-6.557-14.882-6.337-15.843c2.022-8.845 4.656-2.862 4.656-2.862l60.203-26.616s9.506-2.535 25.982 4.436 60.617 23.774 60.617 23.774z"/><path d="M293.958 410.259s3.171 30.758-15.349 35.457c-17.604 4.467-41.888-.115-41.888-.115l-28.949-3.023-1.267 55.574a139.58 139.58 0 0 1-17.744 1.267c-1.267 0-1.352-.664-1.352-.664l-2.454-64.287a20.06 20.06 0 0 1 20.757-21.283q2.05.078 4.301.29c17.809 1.708 39.918-1.923 39.918-1.923z"/><path d="M242.59 365.637s-7.518 45.465-2.437 49.095 12.049 3.644 12.049 3.644l1.62-25.103zm12.539-55.837l-10.052 9.552a29.63 29.63 0 0 0-5.83 35.237l4.805 9.163z"/></g><path d="M257.377 311.406l-13.621 15.515a21.77 21.77 0 0 0-5.299 12.166h0a21.77 21.77 0 0 0 .248 6.137l5.133 27.905 3.858 40.299s29.787 9.025 32.836-4.911-23.155-97.11-23.155-97.11z" fill="#0ff"/><path d="M249.611 400.241l-4.355-10.017-3.696-26.113c-.201-1.52 3.935-26.381 9.923-53.055l7.278-10.188 4.197-3.848 11.958 7.839c4.313 2.282 13.745 32.064 7.94 53.139-1.997 7.25 1.494 16.276 2.032 22.937l8.288 20.364 1.963 11.777-.299.114c-.299.114-5.095.762-24.676 4.025-16.224 2.704-7.34-10.599-20.552-16.974z" class="B"/><path d="M211.283 389.298a7.34 7.34 0 0 1 11.189-1.228l15.363-6.735 6.37 8.338-21.829 9.207a7.38 7.38 0 0 1-11.092-9.581z" class="C"/><path d="M246.845 394.08l-15.831 1.861-4.654-12.661 10.239-2.546 6.909-5.902 11.159-7.302c-1.434-3.19-12.036-27.561-3.479-32.111a7.84 7.84 0 0 1 6.523-.634c5.082 1.809 7.944 8.498 8.048 8.75l8.109 15.25c.65.663 7.3 7.597 7.2 13.431a6.04 6.04 0 0 1-1.943 4.452c-11.001 10.35-20.663 16.252-28.267 17.319-1.329.197-2.677.228-4.013.093z" class="B"/><ellipse cx="388.135" cy="457.362" rx="19.082" ry="19.507" transform="matrix(.992899 -.118963 .118963 .992899 -184.97758 -131.57273)" class="C"/><path d="M304.502 261.894c-3.67-3.37-5.799-8.169-8.884-12.125s-8.023-7.236-12.637-5.677c-3.181 1.075-5.357 4.256-6.249 7.619s-.707 6.931-.515 10.426c-.775-7.136-6.298-13.482-13.038-14.981a16.44 16.44 0 0 0-17.553 8.177 9.95 9.95 0 0 0-13.149 1.296 11.08 11.08 0 0 0-.14 13.788c3.277 3.839 8.899 4.639 13.117 1.866l1.667 1.202a6.56 6.56 0 0 0 4.456 7.137c2.343.635 5.48.107 6.597 2.352.781 1.569-.102 3.449-1.113 4.847s-2.235 2.864-2.165 4.623c.104 2.654 3.042 4.171 5.578 4.429 6.342.496 12.352-2.902 15.196-8.593q.081-.164.179-.33a23.16 23.16 0 0 0 2.519-18.139c-.339-1.192-.252-2.118.551-2.506 3.471-1.677 13.926-.283 17.278 1.708s6.184 4.818 9.442 6.974 7.257 3.642 10.929 2.508a11.71 11.71 0 0 0 6.642-6.236 32.52 32.52 0 0 0 2.549-9.183c-6.492 4.621-15.319 4.129-21.257-1.184zm2.886 126.958l-.01-.013.01.026z" class="B"/><g class="E"><path d="M183.261 297.748c-22.928 3.516-44.365-12.22-47.881-35.148s12.22-44.365 35.148-47.881 44.365 12.22 47.881 35.148a42 42 0 0 1-35.148 47.881zm-12.43-81.052c-21.836 3.349-36.823 23.765-33.474 45.601s23.765 36.823 45.601 33.474 36.823-23.765 33.474-45.601a40 40 0 0 0-45.601-33.474z"/><use xlink:href="#B"/><use xlink:href="#B" x="170.196" y="95.151"/><path d="M702.792 83.521c-22.928 3.516-44.365-12.22-47.881-35.148S667.131 4.007 690.059.491s44.365 12.22 47.881 35.148a42 42 0 0 1-35.148 47.881zm-12.43-81.052a40 40 0 1 0 45.601 33.475C732.614 14.108 712.198-.879 690.362 2.47zm203.683 153.903a42 42 0 1 1 35.148-47.881c3.516 22.928-12.22 44.365-35.148 47.881zm-12.43-81.052a40 40 0 1 0 45.601 33.475c-3.349-21.836-23.765-36.823-45.601-33.474zm-535.169 6.697l4.791-1.746s-3.439 5.282-4.184 5.7h0c.078.998.23 1.99.455 2.965-3.244 42.179-40.994 29.555-40.994 29.555 12.796-1.659 13.08-7.064 13.08-7.064-7.58.05-9.805-4.566-9.805-4.566a3.09 3.09 0 0 0 3.802-1.595c-8.325-.848-8.435-8.823-8.435-8.823a10.4 10.4 0 0 0 5.131 1.135c-1.056-.951-9.948-8.794-6.114-14.137 0 0 7.051 9.036 21.718 7.697l.958-.349a7.85 7.85 0 0 1-.531-2.144 10.5 10.5 0 0 1 8.787-11.97h0c6.919-1.061 9.008 2.665 9.008 2.665l4.487-3.723c-.099.015.165 5.033-2.155 6.401zm156.374 87.887c5.759-.866 11.137 3.082 12.037 8.836l3.201 20.871c.866 5.759-3.082 11.137-8.836 12.037l-20.871 3.201c-5.759.866-11.137-3.082-12.037-8.836l-3.201-20.871c-.866-5.759 3.082-11.137 8.836-12.037l20.871-3.201m-.64-4.174l-20.871 3.201c-8.056 1.259-13.582 8.788-12.37 16.851l3.201 20.871c1.259 8.056 8.788 13.582 16.851 12.37l20.871-3.201c8.056-1.259 13.582-8.788 12.37-16.851l-3.201-20.871c-1.259-8.056-8.788-13.582-16.851-12.37zm5.371 14.131a3.16 3.16 0 0 1-.95-6.248 3.16 3.16 0 0 1 .964 6.246zm-13.246 4.167a8.45 8.45 0 0 1 9.629 7.069 8.45 8.45 0 0 1-7.069 9.629 8.45 8.45 0 0 1-9.629-7.069c-.34-2.214.214-4.473 1.54-6.279a8.45 8.45 0 0 1 5.529-3.351h0m-.64-4.174a12.67 12.67 0 1 0 14.443 10.603h0a12.67 12.67 0 0 0-14.443-10.602zm391.344-92.106c-12.884 1.977-22.618 12.715-23.326 25.73s7.805 24.745 20.399 28.107a24.39 24.39 0 0 1-.484-6.319l1.225-15.376c-.803-1.264-1.326-2.685-1.535-4.168-.619-4.035 1.252-7.407 4.169-7.854 2.479-.38 3.955 1.297 4.297 3.521.382 2.491-.64 6.454-.925 10.031a4.26 4.26 0 0 0 5.106 4.578c5.153-.79 7.613-7.947 6.409-15.798-.915-5.967-5.622-9.811-12.926-8.69-8.252 1.265-12.46 8.217-11.405 15.096a7.94 7.94 0 0 0 2.617 5.059c.502.3.754.89.622 1.46l-.224 2.273c-.001.305-.15.591-.4.768s-.569.222-.857.121c-4.043-.972-6.454-4.857-7.174-9.548-1.185-7.729 3.919-18.003 16.85-19.986 10.391-1.594 18.387 4.88 19.625 12.95 1.638 10.683-3.082 19.567-11.832 20.909-2.941.451-5.944-.718-7.168-2.371l-.772 7.781a22.89 22.89 0 0 1-1.84 6.253 27.55 27.55 0 0 0 26.756-42.383c-5.908-9.026-16.542-13.772-27.206-12.143zM718.014 21.969l-36.667-5.403c-1.963-.387-3.868.89-4.255 2.853l-.003.016-5.415 36.749a3.91 3.91 0 0 0 3.199 4.318l36.656 5.401a3.71 3.71 0 0 0 4.079-3.246l5.415-36.749c.305-1.855-.951-3.607-2.806-3.912q-.101-.017-.203-.027zm-32.199 32.673l-6.294-.927 2.884-19.57 6.294.927zm.393-22.977l-.045-.007a3.46 3.46 0 0 1-2.894-3.933 3.46 3.46 0 0 1 3.924-2.907 3.46 3.46 0 0 1 2.92 3.914 3.46 3.46 0 0 1-3.905 2.933zm22.61 26.366l-6.294-.927 1.577-10.7c.378-2.564-.28-4.45-2.557-4.786a3.48 3.48 0 0 0-3.57 1.848c-.241.473-.392.986-.445 1.514l-1.642 11.147-6.294-.927 2.884-19.57 6.294.927-.401 2.723a6.44 6.44 0 0 1 6.145-2.345c4.132.609 6.856 3.793 5.991 9.664z"/><path d="M204.059 252.234a27.46 27.46 0 0 0-54.563 5.474 27.46 27.46 0 0 0 27.295 26.149l-2.908-18.963-6.893 1.057-1.203-7.847 6.893-1.057-.917-5.98c-1.043-6.801 2.433-11.181 8.632-12.132 2.04-.284 4.098-.418 6.157-.401l1.024 6.679-3.424.525c-3.369.517-4.103 2.769-3.773 4.919l.781 5.091 7.526-1.154.002 8.032-6.324.97 2.908 18.965c12.869-4.112 20.836-16.971 18.788-30.325z" fill-rule="evenodd"/></g><path d="M710.484 427.449l10.042 2.637 14.951-37.481-14.822-3.892-10.171 38.736z" class="D"/><path d="M707.379 437.833l30.882 8.11.103-.391a12.43 12.43 0 0 0-8.863-15.177h-.001l-4.517-5.761-11.649 1.516-2.696-.708z" class="B"/><path d="M761.966 434.962h10.382l4.94-40.05-15.324.001.002 40.049z" class="D"/><path d="M761.6 445.794l31.929-.001v-.404a12.43 12.43 0 0 0-12.428-12.428h-.001l-5.832-4.425-10.882 4.425H761.6zm-25.604-202.483c-2.508 3.135-1.254 13.795-1.254 13.795s-4.389 34.487-2.508 37.623-1.254 5.643-3.135 10.033-3.762 15.049-3.762 15.049c-10.66 8.779-10.033 48.909-10.033 48.909l-3.762 35.741c1.254 3.762 18.811 4.389 21.319 3.762s26.963-89.04 26.963-89.04l-1.254 89.04c0 3.762 16.93 1.881 20.692 1.881s27.59-153.626 27.59-153.626V247.7l-3.135-4.389s-65.213-3.135-67.721 0z" class="B"/><circle cx="763.586" cy="109.123" r="19.438" class="D"/><path d="M737.47 257.178l-.106-.149c-5.662-7.928 2.854-26.977 4.138-29.739h0c-3.145-1.021-5.132-4.12-4.745-7.404l.554-4.707.577-4.617-4.135-4.135-.012-.103-2.38-20.821-3.46-13.829a30.36 30.36 0 0 1 8.617-29.423l7.997-1.27 9.719-9.364h15.673l5.374 5.134c10.565 8.661 13.074 4.898 24.987 21.201l-8.53 22.474 4.768 33.147.003 5.999 2.483 2.76a8.59 8.59 0 0 1 2.037 7.429l-.327 1.633h0a8.59 8.59 0 0 1 5.015 6.094l.872 4.07c.746.985 5.672 7.552 5.672 9.348 0 .27-.199.53-.626.819-3.357 2.273-21.91 6.907-30.121 3.621-8.747-3.497-43.516 1.749-43.866 1.803z" class="E"/><path d="M727.595 178.327l16.163-3.164c5.977 8.926 9.186 33.335 9.186 33.335l17.869 37.059a7.27 7.27 0 0 1-5.332 13.317 7.27 7.27 0 0 1-5.705-7.471l-23.306-43.908z" class="D"/><path d="M727.505 182.161l-.46-24.022 7.606-10.175a13.37 13.37 0 0 1 13.162-5.094h0a13.34 13.34 0 0 1 10.67 14.759c-1.291 10.172-4.222 22.901-10.853 25.781l-.067.029 6.872 24.035-25.486 3.56z" class="E"/><path d="M831.788 161.853s-24.117-4.943-34.507-2.211l-2.291 16.309 29.418 2.611 50.211-9.127a7.27 7.27 0 0 0 7.42-12.271 7.27 7.27 0 0 0-9.387-.089z" class="D"/><path d="M802.586 179.77l-23.882-2.633-9.113-8.851a13.37 13.37 0 0 1-3.359-13.708h0a13.34 13.34 0 0 1 16.009-8.684c9.921 2.588 19.849.174 21.853 7.12l3.576-1.17 23.483 4.474.253 25.733z" class="E"/><path d="M741.538 96.351c2.183-3.377 6.279-5.627 10.249-4.995.753-5.165 4.319-9.482 9.249-11.199s10.405-.546 14.203 3.035a4.35 4.35 0 0 1 4.256-.426c1.367.621 2.556 1.576 3.458 2.776a20.14 20.14 0 0 1 2.818 20.49c.485-1.764-1.283-3.424-3.069-3.82s-3.66-.021-5.471-.279c-2.322-.33-4.409-1.677-6.734-1.98a15.33 15.33 0 0 0-5.825.749c-1.875.623-3.85.888-5.823.782-1.957-.232-4.478 7.185-4.444 12.409.006.99-.197 2.261-1.165 2.471-1.191.259-1.882-1.386-3.016-1.834a2.1 2.1 0 0 0-2.573 1.368 3.42 3.42 0 0 0 .653 3.063 10.11 10.11 0 0 0 2.451 2.126l-.467.388a2.78 2.78 0 0 1-3.508.436 7.57 7.57 0 0 1-2.519-2.868 33.75 33.75 0 0 1-4.62-11.071c-.855-3.975-.176-8.125 1.899-11.621z" class="B"/><path d="M904.619 429.982l-7.71-12.39-1.54 7.08-.79 3.75-6.8-5.26q-10.5-7.62-20.99-15.26l2.19 12.7c1.35 7.82 2.76 15.8 6.1 22.95.37.81.77 1.61 1.2 2.39h32.54a10.49 10.49 0 0 0 .54-2.24c.008-.05.011-.1.01-.15.51-4.85-2.17-9.42-4.75-13.57z" fill="#f0f0f0"/><path d="M932.16 447.16l-275.75.307a1.19 1.19 0 0 1-1.034-1.787 1.19 1.19 0 0 1 1.034-.594l275.75-.307a1.19 1.19 0 0 1 1.031 1.786 1.19 1.19 0 0 1-1.031.595z" fill="#cacaca"/><defs ><path id="B" d="M330.833 138.539c-22.928 3.516-44.365-12.22-47.881-35.148s12.22-44.365 35.148-47.881 44.365 12.22 47.881 35.148a42 42 0 0 1-35.148 47.881zm-12.43-81.052a40 40 0 0 0-17.607 71.783 40 40 0 0 0 63.208-38.308c-3.349-21.836-23.765-36.823-45.601-33.474z"/></defs></svg>