<svg xmlns="http://www.w3.org/2000/svg" xmlns:xlink="http://www.w3.org/1999/xlink" width="792.092" height="584.595" xmlns:v="https://vecta.io/nano"><g fill="#f1f1f1"><path d="M111.768 296.438l-1.597-1.203c8.724-11.581 19.581-25.994 21.254-42.253 1.649-16.028-6.036-33.249-20.054-44.942-11.93-9.952-28.355-16.241-47.497-18.189-3.776-.384-7.658-.609-11.412-.827-9.074-.526-18.458-1.07-27.284-3.897C13.021 181.234.523 171.083.006 157.179c-.241-9.097 4.715-17.539 12.776-21.763l.934 1.769a21.86 21.86 0 0 0-11.711 19.934c.48 12.92 12.291 22.424 23.782 26.104 8.585 2.749 17.84 3.286 26.79 3.805l11.499.834c19.54 1.988 36.337 8.434 48.575 18.643 14.523 12.114 22.479 30.002 20.763 46.683-1.73 16.813-12.772 31.472-21.646 43.251z"/><ellipse cx="228.748" cy="289.697" rx="17.5" ry="8.5" transform="matrix(.909202 -.416356 .416356 .909202 -303.43763 -36.15767)"/><ellipse cx="264.793" cy="334.783" rx="17.5" ry="8.5" transform="matrix(.909202 -.416356 .416356 .909202 -318.93678 -17.05644)"/><ellipse cx="239.446" cy="356.289" rx="17.5" ry="8.5" transform="matrix(.909202 -.416356 .416356 .909202 -330.19251 -25.65719)"/><ellipse cx="304.474" cy="378.204" rx="17.5" ry="8.5" transform="matrix(.909202 -.416356 .416356 .909202 -333.41231 3.40777)"/><ellipse cx="336.296" cy="363.631" rx="17.5" ry="8.5" transform="matrix(.909202 -.416356 .416356 .909202 -324.45558 15.33392)"/><path d="M737.921 584.595l.872-1.8c-13.049-6.32-29.289-14.186-38.201-27.887-8.785-13.507-9.811-32.336-2.678-49.14 6.07-14.301 17.811-27.396 33.952-37.869 3.184-2.066 6.535-4.038 9.775-5.946 7.833-4.611 15.933-9.38 22.495-15.924 9.038-9.014 15.521-23.752 9.633-36.358-3.939-8.204-12.203-13.452-21.304-13.528l-.023 2a21.86 21.86 0 0 1 19.521 12.388c5.472 11.714-.697 25.562-9.24 34.083-6.382 6.365-14.371 11.069-22.097 15.617l-9.85 5.992c-16.477 10.691-28.478 24.095-34.704 38.765-7.39 17.408-6.3 36.955 2.843 51.013 9.215 14.168 25.733 22.169 39.006 28.596z"/><ellipse cx="943.484" cy="556.45" rx="17.5" ry="8.5" transform="matrix(.999 -.044707 .044707 .999 -227.52439 -114.96579)"/><ellipse cx="932.002" cy="613.02" rx="17.5" ry="8.5" transform="matrix(.999 -.044707 .044707 .999 -230.06493 -115.42257)"/><ellipse cx="964.372" cy="620.58" rx="17.5" ry="8.5" transform="matrix(.999 -.044707 .044707 .999 -230.37057 -113.96784)"/><ellipse cx="916.524" cy="669.769" rx="17.5" ry="8.5" transform="matrix(.999 -.044707 .044707 .999 -232.61746 -116.05782)"/><ellipse cx="881.559" cy="671.333" rx="17.5" ry="8.5" transform="matrix(.999 -.044707 .044707 .999 -232.72238 -117.61943)"/></g><path d="M459.927 265.124c.386.397.74.823 1.058 1.276l49.578-1.213 5.784-10.569 17.091 6.644-8.421 19.705a8 8 0 0 1-8.316 4.799l-56.014-6.767a10.5 10.5 0 1 1-.761-13.875zm161.618 301.095l-16.301-.001-7.755-62.878 24.059.001-.003 62.878z" fill="#ffb7b7"/><path d="M625.703 582.021l-52.563-.002v-.665c.001-11.299 9.16-20.458 20.459-20.459h.001l32.104.001z" fill="#2f2e41"/><path fill="#ffb7b7" d="M473.52 565.856l-14.991-6.405 17.569-60.869 22.125 9.452-24.703 57.822z"/><path d="M471.136 582.021l-48.337-20.65.261-.611c4.439-10.39 16.46-15.215 26.851-10.777h.001l29.523 12.612z" fill="#2f2e41"/><path fill="#ffb7b7" d="M542.308 278.746l-1.179 19.102 34.458 3.687 36.055 3.859-10.612-29.007-58.722 2.359z"/><g fill="#2f2e41"><path d="M540.525 285.826l-13.867-81.052 23.202-7.604 6.815-9.346 33.162 1.962 4.869 10.906 17.683 8.355-2.718 50.468-4.769 23.474-.588-.305c-23.906-12.379-62.825 2.76-63.216 2.914z"/><path d="M531.619 273.086l-23.6-9.442.101-.42 11.479-49.143c1.389-7.027 6.465-8.97 6.681-9.049l.157-.058 9.34 2.843 4.102 32.229zm-45.957 281.719l-31.415-6.444 50.211-138.55 17.184-47.257L537.466 310l2.972-19.675 70.349 7.787s19.648 28.855 13.679 75.888l2.7 176.778-31.415 1.611L569.436 374.1l-46.183 97.737s-14.556 41.708-24.971 50.748z"/></g><path d="M582.575 304.674c.553-.013 1.107.017 1.655.091l32.819-37.18-3.818-11.427 16.493-8.016 8.724 19.573a8 8 0 0 1-2.135 9.361l-43.047 36.474a10.5 10.5 0 0 1-17.077 9.693 10.5 10.5 0 0 1 6.385-18.569z" fill="#ffb7b7"/><path d="M614.429 271.203L600.739 239l5.34-22.431 5.753-7.269c.852-.364 1.818-.355 2.663.025 2.122.854 3.929 3.471 5.371 7.779l12.83 36.546zM543.4 175.892v-24.278c0-17.967 14.565-32.533 32.533-32.533s32.533 14.565 32.533 32.533v24.278c-.003 2.412-1.958 4.367-4.37 4.37H547.77c-2.412-.003-4.367-1.958-4.37-4.37z" fill="#2f2e41"/><circle cx="569.248" cy="155.845" r="23.852" fill="#ffb7b7"/><g fill="#2f2e41"><path d="M535.704 153.556c.016-14.206 11.529-25.719 25.735-25.735h4.856c14.206.016 25.719 11.529 25.735 25.735v.486h-10.262l-3.5-9.8-.7 9.8h-5.303l-1.766-4.945-.353 4.945h-34.442z"/><path d="M566.9 182.992c-.983-1.331-1.116-3.108-.342-4.571 5.146-9.787 12.35-27.871 2.787-39.024l-.687-.801h27.762v41.681l-25.22 4.45c-.255.045-.514.068-.773.068-1.397 0-2.708-.67-3.527-1.802z"/></g><path d="M428.888 484.413H131.523c-14.675-.017-26.568-11.909-26.584-26.584V26.584C104.956 11.909 116.848.017 131.523 0h297.364c14.675.017 26.568 11.909 26.584 26.584v431.245c-.017 14.675-11.909 26.568-26.584 26.584z" fill="#3f3d56"/><g fill="#fff"><path d="M429.411 467.452H131c-4.524-.005-8.19-3.671-8.195-8.195V25.156c.005-4.524 3.671-8.19 8.195-8.195h298.411c4.524.005 8.19 3.671 8.195 8.195v434.101c-.005 4.524-3.671 8.19-8.195 8.195z"/><circle cx="279.075" cy="8.141" r="2.262"/></g><g fill="#cbcbcb"><use xlink:href="#B"/><use xlink:href="#B" x="-133" y="-120"/><use xlink:href="#B" x="-130" y="120"/></g><path d="M346.482 292.755a51.55 51.55 0 0 1-36.45-87.999 51.55 51.55 0 0 1 87.999 36.45c0 28.469-23.079 51.548-51.548 51.548zm0-100.642c-27.114 0-49.094 21.98-49.094 49.094s21.98 49.094 49.094 49.094 49.094-21.98 49.094-49.094c0-13.02-5.172-25.508-14.379-34.715s-21.694-14.379-34.714-14.379z" fill="#3f3d56"/><path d="M375.938 227.089l6.137-1.227s-5.155 5.769-6.137 6.137h0c-.092 1.226-.092 2.456 0 3.682-11.782 50.567-55.23 28.229-55.23 28.229 15.833.368 17.183-6.137 17.183-6.137-9.205-1.35-11.046-7.364-11.046-7.364 1.71.902 3.825.373 4.909-1.227-9.941-2.577-8.591-12.273-8.591-12.273 1.772 1.279 3.843 2.082 6.014 2.332-1.105-1.35-10.432-12.519-4.787-18.287 0 0 6.873 12.273 24.915 13.378l1.227-.245c-.209-.884-.291-1.793-.245-2.7a12.89 12.89 0 0 1 12.887-12.887h0c8.591 0 10.432 4.909 10.432 4.909l6.137-3.682c-.123 0-.736 6.137-3.805 7.364z" fill="#0ff"/><path d="M213.929 173.089a51.55 51.55 0 0 1-36.45-87.999 51.55 51.55 0 0 1 87.999 36.45 51.55 51.55 0 0 1-51.548 51.548zm0-100.642c-27.114 0-49.094 21.98-49.094 49.094s21.98 49.094 49.094 49.094 49.094-21.98 49.094-49.094-21.98-49.094-49.094-49.094z" fill="#3f3d56"/><path d="M227.969 96.04a13 13 0 0 1 12.959 12.959v25.915a13 13 0 0 1-12.959 12.959h-25.915a13 13 0 0 1-12.959-12.959v-25.915a13 13 0 0 1 12.959-12.959h25.915m0-5.183h-25.915c-10.007.029-18.113 8.134-18.142 18.142v25.915c.029 10.007 8.134 18.113 18.142 18.142h25.915a18.2 18.2 0 0 0 18.142-18.142v-25.915a18.2 18.2 0 0 0-18.142-18.142zm3.887 18.142a3.88 3.88 0 0 1-3.871-3.883 3.88 3.88 0 0 1 3.879-3.875 3.88 3.88 0 0 1 3.879 3.875 3.88 3.88 0 0 1-3.871 3.883zm-16.845 2.59a10.37 10.37 0 0 1 10.367 10.367 10.37 10.37 0 0 1-10.367 10.367 10.37 10.37 0 0 1-10.367-10.367c0-2.749 1.092-5.386 3.036-7.33s4.581-3.036 7.33-3.036h0m0-5.183c-8.588 0-15.55 6.962-15.55 15.549s6.962 15.55 15.549 15.55 15.55-6.962 15.55-15.549h0c0-8.588-6.962-15.55-15.549-15.55z" fill="#0ff"/><path d="M216.384 412.421a51.55 51.55 0 0 1-36.45-87.999 51.55 51.55 0 0 1 87.999 36.45c0 28.469-23.079 51.548-51.548 51.548zm0-100.642c-27.114 0-49.094 21.98-49.094 49.094s21.98 49.094 49.094 49.094 49.094-21.98 49.094-49.094c0-13.02-5.172-25.508-14.379-34.714s-21.694-14.379-34.714-14.379z" fill="#3f3d56"/><path d="M250.082 361.075c-.003-17.926-14.039-32.711-31.941-33.646s-33.401 12.308-35.272 30.136 10.543 34 28.249 36.8v-23.547h-8.558v-9.744h8.558v-7.426c0-8.444 5.032-13.112 12.729-13.112 2.528.035 5.049.255 7.544.659v8.294h-4.251c-4.184 0-5.492 2.597-5.492 5.265v6.321h9.345l-1.492 9.744h-7.853v23.548a33.71 33.71 0 0 0 28.434-33.293z" fill="#0ff" fill-rule="evenodd"/><path d="M791.092 584h-381a1 1 0 1 1 0-2h381a1 1 0 1 1 0 2z" fill="#cbcbcb"/><defs ><path id="B" d="M346.466 292c-27.194-.001-49.604-21.339-50.937-48.5-.04.829-.063 1.662-.063 2.5 0 28.167 22.833 51 51 51s51-22.833 51-51a52.39 52.39 0 0 0-.063-2.5c-1.333 27.161-23.743 48.499-50.937 48.5z"/></defs></svg>